<?xml version="1.0" encoding="UTF-8" standalone="no"?>
<!-- Created with Inkscape (http://www.inkscape.org/) -->

<svg
   width="95.699181mm"
   height="78.572128mm"
   viewBox="0 0 95.699181 78.572128"
   version="1.1"
   id="svg1"
   inkscape:version="1.4 (86a8ad7, 2024-10-11)"
   sodipodi:docname="mariage-carreau.svg"
   xmlns:inkscape="http://www.inkscape.org/namespaces/inkscape"
   xmlns:sodipodi="http://sodipodi.sourceforge.net/DTD/sodipodi-0.dtd"
   xmlns="http://www.w3.org/2000/svg"
   xmlns:svg="http://www.w3.org/2000/svg">
  <sodipodi:namedview
     id="namedview1"
     pagecolor="#ffffff"
     bordercolor="#000000"
     borderopacity="0.25"
     inkscape:showpageshadow="2"
     inkscape:pageopacity="0.0"
     inkscape:pagecheckerboard="0"
     inkscape:deskcolor="#d1d1d1"
     inkscape:document-units="mm"
     inkscape:zoom="1.581264"
     inkscape:cx="135.65097"
     inkscape:cy="266.8751"
     inkscape:window-width="1712"
     inkscape:window-height="1735"
     inkscape:window-x="188"
     inkscape:window-y="174"
     inkscape:window-maximized="0"
     inkscape:current-layer="layer1" />
  <defs
     id="defs1" />
  <g
     inkscape:label="Layer 1"
     inkscape:groupmode="layer"
     id="layer1"
     transform="translate(-25.664581,-62.177076)">
    <g
       id="1_heart-1-5-3"
       transform="matrix(0.25484173,-0.07076716,0.07076716,0.25484173,9.765401,12.931192)"
       inkscape:label="mariage-carreau">
      <g
         id="use820-7-7-5"
         transform="translate(0,486.27499)">
        <path
           style="fill:#ffffff;fill-opacity:1;stroke:#000000;stroke-width:2.5"
           d="m 0,0 c 0,3.78 3.09,6.87 6.87,6.87 h 152.845 c 3.77,0 6.86,-3.09 6.86,-6.87 v -228.4 c 0,-3.78 -3.09,-6.87 -6.86,-6.87 H 6.87 c -3.78,0 -6.87,3.09 -6.87,6.87 z"
           id="path912-1-6-1" />
      </g>
      <g
         id="1_heart-1-7-1-2"
         transform="rotate(29.846779,86.825378,615.57102)">
        <g
           id="use820-7-6-8-0"
           transform="translate(0,486.27499)">
          <path
             style="fill:#ffffff;fill-opacity:1;stroke:#000000;stroke-width:2.5"
             d="m 0,0 c 0,3.78 3.09,6.87 6.87,6.87 h 152.845 c 3.77,0 6.86,-3.09 6.86,-6.87 v -228.4 c 0,-3.78 -3.09,-6.87 -6.86,-6.87 H 6.87 c -3.78,0 -6.87,3.09 -6.87,6.87 z"
             id="path912-1-1-9-1" />
        </g>
      </g>
      <path
         style="fill:#e6180a;stroke-width:8.72311"
         d="m 149.60727,376.12898 c -21.51694,-5.97505 -43.03391,-11.95011 -64.55084,-17.92516 7.26083,2.36943 12.195704,8.8638 17.01263,14.43651 10.49129,13.69748 19.73414,28.63079 25.8215,44.78821 2.70424,8.0297 5.40705,16.96434 3.1847,25.43662 M 85.05643,358.20382 c 9.411237,2.29675 19.0278,-1.4273 27.65958,-4.93031 15.49474,-7.05902 29.85556,-16.58754 42.80562,-27.62141 4.93188,-4.68705 10.55389,-9.54456 12.61765,-16.25929 -6.17811,22.24817 -12.35389,44.48797 -18.53201,66.73617 m 18.53201,-66.73617 c -2.43929,10.02347 1.22223,20.31074 4.8044,29.58006 6.66258,15.52046 15.61404,30.10128 26.28693,43.17743 4.26678,4.65225 8.68371,10.00249 14.92753,11.90386 -21.51693,-5.97505 -43.0339,-11.95011 -64.55087,-17.92518 m 64.55087,17.92518 c -9.41127,-2.29676 -19.02708,1.42475 -27.65723,4.92186 -15.49707,7.06743 -29.8579,16.59596 -42.80796,27.62983 -4.93188,4.68704 -10.54969,9.54572 -12.61769,16.25931 6.17812,-22.24821 12.3539,-44.488 18.53201,-66.73618"
         id="path768-7-9"
         inkscape:label="diamond" />
    </g>
  </g>
</svg>
