<?xml version="1.0" encoding="UTF-8" standalone="no"?>
<!-- Created with Inkscape (http://www.inkscape.org/) -->

<svg
   width="95.699181mm"
   height="78.572128mm"
   viewBox="0 0 95.699181 78.572128"
   version="1.1"
   id="svg1"
   inkscape:version="1.4 (86a8ad7, 2024-10-11)"
   sodipodi:docname="mariage-carreau.svg"
   xmlns:inkscape="http://www.inkscape.org/namespaces/inkscape"
   xmlns:sodipodi="http://sodipodi.sourceforge.net/DTD/sodipodi-0.dtd"
   xmlns="http://www.w3.org/2000/svg"
   xmlns:svg="http://www.w3.org/2000/svg">
  <sodipodi:namedview
     id="namedview1"
     pagecolor="#ffffff"
     bordercolor="#000000"
     borderopacity="0.25"
     inkscape:showpageshadow="2"
     inkscape:pageopacity="0.0"
     inkscape:pagecheckerboard="0"
     inkscape:deskcolor="#d1d1d1"
     inkscape:document-units="mm"
     inkscape:zoom="1.581264"
     inkscape:cx="135.33477"
     inkscape:cy="266.87511"
     inkscape:window-width="2905"
     inkscape:window-height="1735"
     inkscape:window-x="188"
     inkscape:window-y="174"
     inkscape:window-maximized="0"
     inkscape:current-layer="1_heart-1-5-3" />
  <defs
     id="defs1" />
  <g
     inkscape:label="Layer 1"
     inkscape:groupmode="layer"
     id="layer1"
     transform="translate(-25.664581,-62.177076)">
    <g
       id="1_heart-1-5-3"
       transform="matrix(0.25484173,-0.07076716,0.07076716,0.25484173,9.765401,12.931192)"
       inkscape:label="mariage-carreau">
      <g
         id="use820-7-7-5"
         transform="translate(0,486.27499)">
        <path
           style="fill:#ffffff;fill-opacity:1;stroke:#000000;stroke-width:2.5"
           d="m 0,0 c 0,3.78 3.09,6.87 6.87,6.87 h 152.845 c 3.77,0 6.86,-3.09 6.86,-6.87 v -228.4 c 0,-3.78 -3.09,-6.87 -6.86,-6.87 H 6.87 c -3.78,0 -6.87,3.09 -6.87,6.87 z"
           id="path912-1-6-1" />
      </g>
      <g
         id="1_heart-1-7-1-2"
         transform="rotate(29.846779,86.825378,615.57102)">
        <g
           id="use820-7-6-8-0"
           transform="translate(0,486.27499)">
          <path
             style="fill:#ffffff;fill-opacity:1;stroke:#000000;stroke-width:2.5"
             d="m 0,0 c 0,3.78 3.09,6.87 6.87,6.87 h 152.845 c 3.77,0 6.86,-3.09 6.86,-6.87 v -228.4 c 0,-3.78 -3.09,-6.87 -6.86,-6.87 H 6.87 c -3.78,0 -6.87,3.09 -6.87,6.87 z"
             id="path912-1-1-9-1" />
        </g>
      </g>
    </g>
    <g
       id="use552"
       transform="matrix(-2.4,0,0,-2.4,73.5,100)">
      <path
         fill-rule="nonzero"
         style="fill:#e6180a;fill-rule:nonzero"
         d="M 0,0 C -2.56,0 -5.12,0 -7.68,0 c 1.11,-0.035 2.058,-0.7413 2.904,-1.393 1.495,-1.255 2.789,-2.748 3.881,-4.364 C -0.494,-6.426 -0.022,-7.135 0,-7.94 c 0.038,1.182 0.758,2.206 1.438,3.12 1.212,1.51 2.648,2.846 4.228,3.963 C 6.28,-0.474 6.932,-0.0185 7.68,0 6.57,0.035 5.622,0.741 4.776,1.392 3.281,2.648 1.987,4.141 0.895,5.757 0.494,6.426 0.0225,7.135 0,7.94 c -0.0144,-1.004 -0.545,-1.908 -1.132,-2.712 -1.168,-1.598 -2.647,-2.964 -4.226,-4.155 C -6.061,0.605 -6.8053,0.039 -7.68,0 -5.12,0 -2.56,0 0,0 Z"
         id="path734" />
    </g>
  </g>
</svg>
