<?xml version="1.0" encoding="UTF-8" standalone="no"?>
<!-- Created with Inkscape (http://www.inkscape.org/) -->

<svg
   width="95.699181mm"
   height="78.572128mm"
   viewBox="0 0 95.699181 78.572128"
   version="1.1"
   id="svg1"
   inkscape:version="1.4 (86a8ad7, 2024-10-11)"
   sodipodi:docname="quarante-trefle.svg"
   xmlns:inkscape="http://www.inkscape.org/namespaces/inkscape"
   xmlns:sodipodi="http://sodipodi.sourceforge.net/DTD/sodipodi-0.dtd"
   xmlns="http://www.w3.org/2000/svg"
   xmlns:svg="http://www.w3.org/2000/svg">
  <sodipodi:namedview
     id="namedview1"
     pagecolor="#ffffff"
     bordercolor="#000000"
     borderopacity="0.25"
     inkscape:showpageshadow="2"
     inkscape:pageopacity="0.0"
     inkscape:pagecheckerboard="0"
     inkscape:deskcolor="#d1d1d1"
     inkscape:document-units="mm"
     inkscape:zoom="1.581264"
     inkscape:cx="135.65097"
     inkscape:cy="266.8751"
     inkscape:window-width="1712"
     inkscape:window-height="1735"
     inkscape:window-x="188"
     inkscape:window-y="174"
     inkscape:window-maximized="0"
     inkscape:current-layer="layer1" />
  <defs
     id="defs1" />
  <g
     inkscape:label="Layer 1"
     inkscape:groupmode="layer"
     id="layer1"
     transform="translate(-25.664581,-62.177076)">
    <g
       id="1_heart-6-4-7-6-2-3"
       transform="matrix(0.26029932,0.0468675,-0.0468675,0.26029932,71.42365,-10.551707)"
       inkscape:label="quarante-trefle">
      <g
         id="use820-5-4-8-5-6-4"
         transform="rotate(9.6537318,-2984.3185,381.50303)">
        <path
           style="fill:#89c0ff;fill-opacity:1;stroke:#000000;stroke-width:2.5"
           d="m 0,0 c 0,3.78 3.09,6.87 6.87,6.87 h 152.845 c 3.77,0 6.86,-3.09 6.86,-6.87 v -228.4 c 0,-3.78 -3.09,-6.87 -6.86,-6.87 H 6.87 c -3.78,0 -6.87,3.09 -6.87,6.87 z"
           id="path912-0-6-4-7-6-8" />
      </g>
      <g
         id="use820-5-4-88-5-0-4"
         transform="rotate(-8.6181962,3549.998,87.010626)"
         inkscape:label="carte">
        <path
           style="fill:#89c0ff;fill-opacity:1;stroke:#000000;stroke-width:2.5"
           d="m -9.4540626,-7.5348785 c -0.323012,3.7661735 2.491636,7.10892045 6.2578095,7.43193244 L 149.08967,12.958104 c 3.75621,0.322157 7.09896,-2.492491 7.42197,-6.2586644 L 176.02909,-220.86512 c 0.32301,-3.76617 -2.49164,-7.10892 -6.24785,-7.43108 L 17.495314,-241.35725 c -3.766173,-0.32301 -7.10892,2.49164 -7.431932,6.25781 z"
           id="path912-0-6-2-4-3-9" />
      </g>
      <g
         id="1_heart-6-6-1-8-9"
         transform="rotate(-15.361933,215.45716,444.52902)"
         inkscape:label="carte">
        <g
           id="use820-5-1-2-0-2"
           transform="translate(0,486.27499)">
          <path
             style="fill:#89c0ff;fill-opacity:1;stroke:#000000;stroke-width:2.5"
             d="m 0,0 c 0,3.78 3.09,6.87 6.87,6.87 h 152.845 c 3.77,0 6.86,-3.09 6.86,-6.87 v -228.4 c 0,-3.78 -3.09,-6.87 -6.86,-6.87 H 6.87 c -3.78,0 -6.87,3.09 -6.87,6.87 z"
             id="path912-0-3-0-1-5" />
        </g>
      </g>
      <g
         id="1_heart-6-0-2-5"
         transform="rotate(-30.406356,154.09914,475.44486)"
         inkscape:label="carte">
        <g
           id="use820-5-14-5-3"
           transform="translate(0,486.27499)">
          <path
             style="fill:#89c0ff;fill-opacity:1;stroke:#000000;stroke-width:2.5"
             d="m 0,0 c 0,3.78 3.09,6.87 6.87,6.87 h 152.845 c 3.77,0 6.86,-3.09 6.86,-6.87 v -228.4 c 0,-3.78 -3.09,-6.87 -6.86,-6.87 H 6.87 c -3.78,0 -6.87,3.09 -6.87,6.87 z"
             id="path912-0-60-0-3" />
        </g>
      </g>
      <g
         id="use325-9"
         transform="matrix(-8.5829937,1.545388,-1.545388,-8.5829937,78.774961,404.82594)"
         inkscape:label="club">
        <path
           d="m 3.35,4.66 c 0,-1.81 -1.51,-3.28 -3.38,-3.28 -1.87,0 -3.38,1.47 -3.38,3.28 0,1.81 1.51,3.28 3.38,3.28 1.87,0 3.38,-1.47 3.38,-3.28 z"
           id="path286-0" />
        <path
           d="m 7.71,-1.55 c 0,-1.81 -1.51,-3.28 -3.38,-3.28 -1.87,0 -3.38,1.47 -3.38,3.28 0,1.81 1.51,3.28 3.38,3.28 1.87,0 3.38,-1.47 3.38,-3.28 z"
           id="path287-7" />
        <path
           d="m -0.95,-1.57 c 0,-0.66 -0.2,-1.28 -0.55,-1.8 -0.6,-0.89 -1.65,-1.48 -2.83,-1.48 -1.87,0 -3.38,1.47 -3.38,3.28 0,1.81 1.51,3.28 3.38,3.28 1.87,0 3.38,-1.47 3.38,-3.28 z"
           id="path288-8" />
        <path
           d="m 3.94,-7.94 c -1.67,0 -2.55,1.36 -3.01,2.72 -0.46,1.36 -0.5,2.72 -0.5,2.72 h -0.86 c 0,0 -0.16,-5.43 -3.5,-5.44 z"
           id="path289-1" />
        <path
           d="m -2.32,2.25 c 1.9,-1.9 1.9,-4.75 1.9,-4.75 l 0.85,-0.01 c 0,0 0,2.91 1.85,4.76"
           id="path290-5" />
        <path
           d="m -1.94,-3.85 c 1.9,1.9 4.75,1.9 4.75,1.9 v 0.85 c 0,0 -2.91,0 -4.76,1.85"
           id="path291-8" />
        <path
           d="m 1.87,-3.86 c -1.9,1.9 -4.75,1.9 -4.75,1.9 v 0.85 c 0,0 2.91,0 4.76,1.85"
           id="path292-6" />
      </g>
    </g>
  </g>
</svg>
