<?xml version="1.0" encoding="UTF-8" standalone="no"?>
<!-- Created with Inkscape (http://www.inkscape.org/) -->

<svg
   width="95.699181mm"
   height="78.572128mm"
   viewBox="0 0 95.699181 78.572128"
   version="1.1"
   id="svg1"
   inkscape:version="1.4 (86a8ad7, 2024-10-11)"
   sodipodi:docname="quarante-carreau.svg"
   xmlns:inkscape="http://www.inkscape.org/namespaces/inkscape"
   xmlns:sodipodi="http://sodipodi.sourceforge.net/DTD/sodipodi-0.dtd"
   xmlns="http://www.w3.org/2000/svg"
   xmlns:svg="http://www.w3.org/2000/svg">
  <sodipodi:namedview
     id="namedview1"
     pagecolor="#ffffff"
     bordercolor="#000000"
     borderopacity="0.25"
     inkscape:showpageshadow="2"
     inkscape:pageopacity="0.0"
     inkscape:pagecheckerboard="0"
     inkscape:deskcolor="#d1d1d1"
     inkscape:document-units="mm"
     inkscape:zoom="1.581264"
     inkscape:cx="135.65097"
     inkscape:cy="266.8751"
     inkscape:window-width="1712"
     inkscape:window-height="1735"
     inkscape:window-x="188"
     inkscape:window-y="174"
     inkscape:window-maximized="0"
     inkscape:current-layer="layer1" />
  <defs
     id="defs1" />
  <g
     inkscape:label="Layer 1"
     inkscape:groupmode="layer"
     id="layer1"
     transform="translate(-25.664581,-62.177076)">
    <g
       id="1_heart-6-4-7-6-2"
       transform="matrix(0.26029932,0.0468675,-0.0468675,0.26029932,72.817566,-10.19081)"
       inkscape:label="quarante-carreau">
      <g
         id="use820-5-4-8-5-6"
         transform="rotate(9.6537318,-2984.3185,381.50303)">
        <path
           style="fill:#ffffff;fill-opacity:1;stroke:#000000;stroke-width:2.5"
           d="m 0,0 c 0,3.78 3.09,6.87 6.87,6.87 h 152.845 c 3.77,0 6.86,-3.09 6.86,-6.87 v -228.4 c 0,-3.78 -3.09,-6.87 -6.86,-6.87 H 6.87 c -3.78,0 -6.87,3.09 -6.87,6.87 z"
           id="path912-0-6-4-7-6" />
      </g>
      <g
         id="use820-5-4-88-5-0"
         transform="rotate(-8.6181962,3549.998,87.010626)"
         inkscape:label="carte">
        <path
           style="fill:#ffffff;fill-opacity:1;stroke:#000000;stroke-width:2.5"
           d="m -9.4540626,-7.5348785 c -0.323012,3.7661735 2.491636,7.10892045 6.2578095,7.43193244 L 149.08967,12.958104 c 3.75621,0.322157 7.09896,-2.492491 7.42197,-6.2586644 L 176.02909,-220.86512 c 0.32301,-3.76617 -2.49164,-7.10892 -6.24785,-7.43108 L 17.495314,-241.35725 c -3.766173,-0.32301 -7.10892,2.49164 -7.431932,6.25781 z"
           id="path912-0-6-2-4-3" />
      </g>
      <g
         id="1_heart-6-6-1-8"
         transform="rotate(-15.361933,215.45716,444.52902)"
         inkscape:label="carte">
        <g
           id="use820-5-1-2-0"
           transform="translate(0,486.27499)">
          <path
             style="fill:#ffffff;fill-opacity:1;stroke:#000000;stroke-width:2.5"
             d="m 0,0 c 0,3.78 3.09,6.87 6.87,6.87 h 152.845 c 3.77,0 6.86,-3.09 6.86,-6.87 v -228.4 c 0,-3.78 -3.09,-6.87 -6.86,-6.87 H 6.87 c -3.78,0 -6.87,3.09 -6.87,6.87 z"
             id="path912-0-3-0-1" />
        </g>
      </g>
      <g
         id="1_heart-6-0-2"
         transform="rotate(-30.406356,154.09914,475.44486)"
         inkscape:label="carte">
        <g
           id="use820-5-14-5"
           transform="translate(0,486.27499)">
          <path
             style="fill:#ffffff;fill-opacity:1;stroke:#000000;stroke-width:2.5"
             d="m 0,0 c 0,3.78 3.09,6.87 6.87,6.87 h 152.845 c 3.77,0 6.86,-3.09 6.86,-6.87 v -228.4 c 0,-3.78 -3.09,-6.87 -6.86,-6.87 H 6.87 c -3.78,0 -6.87,3.09 -6.87,6.87 z"
             id="path912-0-60-0" />
        </g>
      </g>
      <path
         style="fill:#e6180a;stroke-width:8.7231"
         d="m 86.792248,390.46455 c -21.977732,3.95714 -43.955538,7.9143 -65.933271,11.87144 7.569661,-1.01718 14.834418,2.69139 21.592806,5.6208 15.397123,7.78578 30.205945,17.22679 42.703382,29.14025 5.921666,6.05998 12.234859,12.93574 13.910417,21.53288 M 20.858977,402.33599 c 9.475328,-2.01608 16.522201,-9.54526 22.777777,-16.44786 10.894732,-13.08516 19.695986,-27.90289 26.572936,-43.4643 2.408461,-6.36325 5.364715,-13.17968 4.309224,-20.12465 4.091629,22.72467 8.181711,45.44074 12.273334,68.16537 M 74.518914,322.29918 c 2.153429,10.08879 9.917401,17.76696 17.168071,24.56259 12.739215,11.08998 27.132505,20.33992 42.423475,27.48712 5.86326,2.33897 12.16482,5.24164 18.61506,4.24422 -21.97777,3.95715 -43.95554,7.9143 -65.933272,11.87144 m 65.933272,-11.87144 c -9.47537,2.01609 -16.52266,9.54273 -22.77932,16.43931 -10.89318,13.09376 -19.69444,27.91144 -26.57139,43.47289 -2.40849,6.36325 -5.360402,13.17886 -4.309228,20.12461 -4.091623,-22.72463 -8.181704,-45.4407 -12.273334,-68.16537"
         id="path768"
         inkscape:label="diamond" />
    </g>
  </g>
</svg>
