<?xml version="1.0" encoding="UTF-8" standalone="no"?>
<!-- Created with Inkscape (http://www.inkscape.org/) -->

<svg
   width="95.699181mm"
   height="78.572128mm"
   viewBox="0 0 95.699181 78.572128"
   version="1.1"
   id="svg1"
   inkscape:version="1.4 (86a8ad7, 2024-10-11)"
   sodipodi:docname="quarante-carreau.svg"
   xmlns:inkscape="http://www.inkscape.org/namespaces/inkscape"
   xmlns:sodipodi="http://sodipodi.sourceforge.net/DTD/sodipodi-0.dtd"
   xmlns="http://www.w3.org/2000/svg"
   xmlns:svg="http://www.w3.org/2000/svg">
  <sodipodi:namedview
     id="namedview1"
     pagecolor="#ffffff"
     bordercolor="#000000"
     borderopacity="0.25"
     inkscape:showpageshadow="2"
     inkscape:pageopacity="0.0"
     inkscape:pagecheckerboard="0"
     inkscape:deskcolor="#d1d1d1"
     inkscape:document-units="mm"
     inkscape:zoom="1.581264"
     inkscape:cx="135.65097"
     inkscape:cy="266.8751"
     inkscape:window-width="1712"
     inkscape:window-height="1735"
     inkscape:window-x="188"
     inkscape:window-y="174"
     inkscape:window-maximized="0"
     inkscape:current-layer="layer1" />
  <defs
     id="defs1" />
  <g
     inkscape:label="Layer 1"
     inkscape:groupmode="layer"
     id="layer1"
     transform="translate(-25.664581,-62.177076)">
    <g
       id="1_heart-6-4-7-6-2"
       transform="matrix(0.26029932,0.0468675,-0.0468675,0.26029932,72.817566,-10.19081)"
       inkscape:label="quarante-carreau">
      <g
         id="use820-5-4-8-5-6"
         transform="rotate(9.6537318,-2984.3185,381.50303)">
        <path
           style="fill:#ffffff;fill-opacity:1;stroke:#000000;stroke-width:2.5"
           d="m 0,0 c 0,3.78 3.09,6.87 6.87,6.87 h 152.845 c 3.77,0 6.86,-3.09 6.86,-6.87 v -228.4 c 0,-3.78 -3.09,-6.87 -6.86,-6.87 H 6.87 c -3.78,0 -6.87,3.09 -6.87,6.87 z"
           id="path912-0-6-4-7-6" />
      </g>
      <g
         id="use820-5-4-88-5-0"
         transform="rotate(-8.6181962,3549.998,87.010626)"
         inkscape:label="carte">
        <path
           style="fill:#ffffff;fill-opacity:1;stroke:#000000;stroke-width:2.5"
           d="m -9.4540626,-7.5348785 c -0.323012,3.7661735 2.491636,7.10892045 6.2578095,7.43193244 L 149.08967,12.958104 c 3.75621,0.322157 7.09896,-2.492491 7.42197,-6.2586644 L 176.02909,-220.86512 c 0.32301,-3.76617 -2.49164,-7.10892 -6.24785,-7.43108 L 17.495314,-241.35725 c -3.766173,-0.32301 -7.10892,2.49164 -7.431932,6.25781 z"
           id="path912-0-6-2-4-3" />
      </g>
      <g
         id="1_heart-6-6-1-8"
         transform="rotate(-15.361933,215.45716,444.52902)"
         inkscape:label="carte">
        <g
           id="use820-5-1-2-0"
           transform="translate(0,486.27499)">
          <path
             style="fill:#ffffff;fill-opacity:1;stroke:#000000;stroke-width:2.5"
             d="m 0,0 c 0,3.78 3.09,6.87 6.87,6.87 h 152.845 c 3.77,0 6.86,-3.09 6.86,-6.87 v -228.4 c 0,-3.78 -3.09,-6.87 -6.86,-6.87 H 6.87 c -3.78,0 -6.87,3.09 -6.87,6.87 z"
             id="path912-0-3-0-1" />
        </g>
      </g>
      <g
         id="1_heart-6-0-2"
         transform="rotate(-30.406356,154.09914,475.44486)"
         inkscape:label="carte">
        <g
           id="use820-5-14-5"
           transform="translate(0,486.27499)">
          <path
             style="fill:#ffffff;fill-opacity:1;stroke:#000000;stroke-width:2.5"
             d="m 0,0 c 0,3.78 3.09,6.87 6.87,6.87 h 152.845 c 3.77,0 6.86,-3.09 6.86,-6.87 v -228.4 c 0,-3.78 -3.09,-6.87 -6.86,-6.87 H 6.87 c -3.78,0 -6.87,3.09 -6.87,6.87 z"
             id="path912-0-60-0" />
        </g>
      </g>
     </g>
     <g
       id="use552"
       transform="matrix(-2.4,0,0,-2.4,73.5,100)">
      <path
         fill-rule="nonzero"
         style="fill:#e6180a;fill-rule:nonzero"
         d="M 0,0 C -2.56,0 -5.12,0 -7.68,0 c 1.11,-0.035 2.058,-0.7413 2.904,-1.393 1.495,-1.255 2.789,-2.748 3.881,-4.364 C -0.494,-6.426 -0.022,-7.135 0,-7.94 c 0.038,1.182 0.758,2.206 1.438,3.12 1.212,1.51 2.648,2.846 4.228,3.963 C 6.28,-0.474 6.932,-0.0185 7.68,0 6.57,0.035 5.622,0.741 4.776,1.392 3.281,2.648 1.987,4.141 0.895,5.757 0.494,6.426 0.0225,7.135 0,7.94 c -0.0144,-1.004 -0.545,-1.908 -1.132,-2.712 -1.168,-1.598 -2.647,-2.964 -4.226,-4.155 C -6.061,0.605 -6.8053,0.039 -7.68,0 -5.12,0 -2.56,0 0,0 Z"
         id="path734" />
    </g>
  </g>
</svg>
