<?xml version="1.0" encoding="UTF-8" standalone="no"?>
<!-- Created with Inkscape (http://www.inkscape.org/) -->

<svg
   width="95.699181mm"
   height="78.572128mm"
   viewBox="0 0 95.699181 78.572128"
   version="1.1"
   id="svg1"
   inkscape:version="1.4 (86a8ad7, 2024-10-11)"
   xmlns:inkscape="http://www.inkscape.org/namespaces/inkscape"
   xmlns:sodipodi="http://sodipodi.sourceforge.net/DTD/sodipodi-0.dtd"
   xmlns="http://www.w3.org/2000/svg"
   xmlns:svg="http://www.w3.org/2000/svg">
  <sodipodi:namedview
     id="namedview1"
     pagecolor="#ffffff"
     bordercolor="#000000"
     borderopacity="0.25"
     inkscape:showpageshadow="2"
     inkscape:pageopacity="0.0"
     inkscape:pagecheckerboard="0"
     inkscape:deskcolor="#d1d1d1"
     inkscape:document-units="mm"
     inkscape:zoom="1.581264"
     inkscape:cx="135.65097"
     inkscape:cy="266.8751"
     inkscape:window-width="1712"
     inkscape:window-height="1735"
     inkscape:window-x="188"
     inkscape:window-y="174"
     inkscape:window-maximized="0"
     inkscape:current-layer="layer1" />
  <defs
     id="defs1" />
  <g
     inkscape:label="Layer 1"
     inkscape:groupmode="layer"
     id="layer1"
     transform="translate(-25.664581,-62.177076)">
    <g
       id="1_heart-6-4-7-6-2-3-0"
       transform="matrix(0.26029932,0.0468675,-0.0468675,0.26029932,77.869714,-11.88507)"
       inkscape:label="quinte">
      <g
         id="use820-5-4-8-5-6-4-0"
         transform="rotate(9.6537318,-2987.4171,362.62875)">
        <path
           style="fill:#89c0ff;fill-opacity:1;stroke:#000000;stroke-width:2.5"
           d="m 0,0 c 0,3.78 3.09,6.87 6.87,6.87 h 152.845 c 3.77,0 6.86,-3.09 6.86,-6.87 v -228.4 c 0,-3.78 -3.09,-6.87 -6.86,-6.87 H 6.87 c -3.78,0 -6.87,3.09 -6.87,6.87 z"
           id="path912-0-6-4-7-6-8-3" />
      </g>
      <g
         id="use820-5-4-88-5-0-4-9"
         transform="rotate(-8.6181962,3549.998,87.010626)"
         inkscape:label="carte">
        <path
           style="fill:#89c0ff;fill-opacity:1;stroke:#000000;stroke-width:2.5"
           d="m -9.4540626,-7.5348785 c -0.323012,3.7661735 2.491636,7.10892045 6.2578095,7.43193244 L 149.08967,12.958104 c 3.75621,0.322157 7.09896,-2.492491 7.42197,-6.2586644 L 176.02909,-220.86512 c 0.32301,-3.76617 -2.49164,-7.10892 -6.24785,-7.43108 L 17.495314,-241.35725 c -3.766173,-0.32301 -7.10892,2.49164 -7.431932,6.25781 z"
           id="path912-0-6-2-4-3-9-1" />
      </g>
      <g
         id="1_heart-6-6-1-8-9-8"
         transform="rotate(-15.361933,215.45716,444.52902)"
         inkscape:label="carte">
        <g
           id="use820-5-1-2-0-2-1"
           transform="translate(0,486.27499)">
          <path
             style="fill:#89c0ff;fill-opacity:1;stroke:#000000;stroke-width:2.5"
             d="m 0,0 c 0,3.78 3.09,6.87 6.87,6.87 h 152.845 c 3.77,0 6.86,-3.09 6.86,-6.87 v -228.4 c 0,-3.78 -3.09,-6.87 -6.86,-6.87 H 6.87 c -3.78,0 -6.87,3.09 -6.87,6.87 z"
             id="path912-0-3-0-1-5-9" />
        </g>
      </g>
      <g
         id="1_heart-6-0-2-5-5"
         transform="rotate(-30.406356,152.38045,474.0686)"
         inkscape:label="carte">
        <g
           id="use820-5-14-5-3-3"
           transform="translate(0,486.27499)">
          <path
             style="fill:#89c0ff;fill-opacity:1;stroke:#000000;stroke-width:2.5"
             d="m 0,0 c 0,3.78 3.09,6.87 6.87,6.87 h 152.845 c 3.77,0 6.86,-3.09 6.86,-6.87 v -228.4 c 0,-3.78 -3.09,-6.87 -6.86,-6.87 H 6.87 c -3.78,0 -6.87,3.09 -6.87,6.87 z"
             id="path912-0-60-0-3-2" />
        </g>
      </g>
      <g
         id="1_heart-6-4"
         transform="rotate(-45.10706,126.25699,484.63366)"
         inkscape:label="carte">
        <g
           id="use820-5-4"
           transform="translate(0,486.27499)">
          <path
             style="fill:#89c0ff;fill-opacity:1;stroke:#000000;stroke-width:2.5"
             d="m 0,0 c 0,3.78 3.09,6.87 6.87,6.87 h 152.845 c 3.77,0 6.86,-3.09 6.86,-6.87 v -228.4 c 0,-3.78 -3.09,-6.87 -6.86,-6.87 H 6.87 c -3.78,0 -6.87,3.09 -6.87,6.87 z"
             id="path912-0-6" />
        </g>
      </g>
      <g
         id="use821"
         style="fill:#e6180a"
         transform="matrix(3.9408511,-0.70955941,0.70955941,3.9408511,46.137149,504.35951)">
        <path
           d="M 17.888672,-8.1044922 H 7.831543 l -1.1967774,2.7714844 q -0.5878906,1.3857422 -0.5878906,2.2885742 0,1.1967774 0.9658203,1.7636719 0.5668945,0.33593748 2.7924805,0.50390623 V 0 H 0.3359375 V -0.77685547 Q 1.8686523,-1.0078125 2.8554688,-2.0366211 3.8422852,-3.0864258 5.2910156,-6.3408203 L 15.474121,-29.058594 h 0.398926 l 10.26709,23.3476565 q 1.469726,3.3173828 2.41455,4.1782227 0.713868,0.65087886 2.015625,0.75585933 V 0 H 16.796875 v -0.77685547 h 0.566895 q 1.658691,0 2.330566,-0.46191403 0.461914,-0.3359375 0.461914,-0.9658203 0,-0.3779297 -0.125977,-0.7768555 -0.04199,-0.1889649 -0.629882,-1.574707 z m -0.713867,-1.5537109 -4.241211,-9.8051759 -4.3671877,9.8051759 z"
           id="text912"
           style="font-weight:bold;font-size:43px;font-family:'Bitstream Vera Serif'"
           transform="scale(0.56453,1.05741)"
           aria-label="A" />
      </g>
      <g
         id="use638"
         style="fill:#e6180a"
         transform="matrix(3.9040307,-0.7029298,0.7029298,3.9040307,-29.568149,464.05178)">
        <path
           d="m 14.004395,-29.058594 v 23.2846682 q 0,2.6245117 0.230957,3.359375 0.230957,0.7138672 0.96582,1.1757813 0.734863,0.46191403 2.351562,0.46191403 h 0.650879 V 0 H 3.2124023 v -0.77685547 h 0.7558594 q 1.8266602,0 2.6035156,-0.41992183 0.7768555,-0.4199219 1.0498047,-1.1547852 0.2729492,-0.7348633 0.2729492,-3.4223633 V -20.53418 q 0,-1.973632 -0.1889648,-2.456543 Q 7.5166016,-23.494629 6.9916992,-23.830566 6.487793,-24.1875 5.815918,-24.1875 q -1.0708008,0 -2.6035157,0.671875 l -0.3779296,-0.755859 10.4770503,-4.78711 z m 27.420898,14.823242 q 0,4.2622075 -1.196777,7.95752 -0.713868,2.2675781 -1.931641,3.7163086 -1.196777,1.4487304 -2.729492,2.30957027 -1.532715,0.83984375 -3.338379,0.83984375 -2.057617,0 -3.716309,-1.04980468 -1.658691,-1.04980464 -2.939453,-3.00244144 -0.923828,-1.4277343 -1.616699,-3.8002929 -0.902832,-3.2124026 -0.902832,-6.6347656 0,-4.640137 1.301758,-8.524414 1.070801,-3.212402 3.254394,-4.913086 2.183594,-1.72168 4.619141,-1.72168 2.477539,0 4.619141,1.700684 2.162597,1.679687 3.17041,4.535156 1.406738,3.92627 1.406738,8.587402 z m -6.466797,-0.04199 q 0,-7.474609 -0.08398,-8.713379 -0.209961,-2.918457 -1.007813,-3.947265 -0.524902,-0.671875 -1.700683,-0.671875 -0.902832,0 -1.427735,0.503906 -0.776855,0.734863 -1.049804,2.603516 -0.27295,1.847656 -0.27295,12.954589 0,6.0468754 0.419922,8.1044926 0.314942,1.4907227 0.902832,1.9946289 0.587891,0.50390628 1.553711,0.50390628 1.049805,0 1.574707,-0.67187498 0.881836,-1.1757813 1.007813,-3.6323242 z"
           id="text774"
           style="font-weight:bold;font-size:43px;font-family:'Bitstream Vera Serif'"
           transform="scale(0.32258,1.05741)"
           aria-label="10" />
      </g>
    </g>
  </g>
</svg>
