<?xml version="1.0" encoding="UTF-8" standalone="no"?>
<!-- Created with Inkscape (http://www.inkscape.org/) -->

<svg
   width="95.699181mm"
   height="78.572128mm"
   viewBox="0 0 95.699181 78.572128"
   version="1.1"
   id="svg1"
   inkscape:version="1.4 (86a8ad7, 2024-10-11)"
   sodipodi:docname="tierce-carreau.svg"
   xmlns:inkscape="http://www.inkscape.org/namespaces/inkscape"
   xmlns:sodipodi="http://sodipodi.sourceforge.net/DTD/sodipodi-0.dtd"
   xmlns="http://www.w3.org/2000/svg"
   xmlns:svg="http://www.w3.org/2000/svg">
  <sodipodi:namedview
     id="namedview1"
     pagecolor="#ffffff"
     bordercolor="#000000"
     borderopacity="0.25"
     inkscape:showpageshadow="2"
     inkscape:pageopacity="0.0"
     inkscape:pagecheckerboard="0"
     inkscape:deskcolor="#d1d1d1"
     inkscape:document-units="mm"
     inkscape:zoom="1.581264"
     inkscape:cx="135.65097"
     inkscape:cy="266.8751"
     inkscape:window-width="1712"
     inkscape:window-height="1735"
     inkscape:window-x="188"
     inkscape:window-y="174"
     inkscape:window-maximized="0"
     inkscape:current-layer="layer1" />
  <defs
     id="defs1" />
  <g
     inkscape:label="Layer 1"
     inkscape:groupmode="layer"
     id="layer1"
     transform="translate(-25.664581,-62.177076)">
    <g
       id="1_heart-1-1-5-8"
       transform="matrix(0.25484173,-0.07076716,0.07076716,0.25484173,3.3398339,16.575274)"
       inkscape:label="tierce-carreau">
      <g
         id="g3"
         transform="translate(31.339774,476.3628)"
         inkscape:label="carte">
        <path
           style="fill:#ffffff;fill-opacity:1;stroke:#000000;stroke-width:2.5"
           d="m 0,0 c 0,3.78 3.09,6.87 6.87,6.87 h 152.845 c 3.77,0 6.86,-3.09 6.86,-6.87 v -228.4 c 0,-3.78 -3.09,-6.87 -6.86,-6.87 H 6.87 c -3.78,0 -6.87,3.09 -6.87,6.87 z"
           id="path2" />
      </g>
      <g
         id="g5"
         transform="rotate(29.846779,116.37531,644.48543)"
         inkscape:label="carte">
        <g
           id="g4"
           transform="translate(0,486.27499)">
          <path
             style="fill:#ffffff;fill-opacity:1;stroke:#000000;stroke-width:2.5"
             d="m 0,0 c 0,3.78 3.09,6.87 6.87,6.87 h 152.845 c 3.77,0 6.86,-3.09 6.86,-6.87 v -228.4 c 0,-3.78 -3.09,-6.87 -6.86,-6.87 H 6.87 c -3.78,0 -6.87,3.09 -6.87,6.87 z"
             id="path3" />
        </g>
      </g>
      <g
         id="g7"
         transform="rotate(15.519475,128.15795,720.54292)"
         inkscape:label="carte">
        <g
           id="g6"
           transform="translate(0,486.27499)">
          <path
             style="fill:#ffffff;fill-opacity:1;stroke:#000000;stroke-width:2.5"
             d="m 0,0 c 0,3.78 3.09,6.87 6.87,6.87 h 152.845 c 3.77,0 6.86,-3.09 6.86,-6.87 v -228.4 c 0,-3.78 -3.09,-6.87 -6.86,-6.87 H 6.87 c -3.78,0 -6.87,3.09 -6.87,6.87 z"
             id="path5" />
        </g>
      </g>
      <path
         style="fill:#e6180a;stroke-width:8.72311"
         d="m 184.49827,355.25936 c -21.51693,-5.97505 -43.03394,-11.95012 -64.55087,-17.92517 7.26087,2.36943 12.19574,8.8638 17.01263,14.43651 10.49133,13.69749 19.73417,28.63079 25.8215,44.78821 2.70424,8.02969 5.40705,16.96434 3.18473,25.43662 M 119.9474,337.33419 c 9.41124,2.29674 19.02783,-1.4273 27.65957,-4.93028 15.49474,-7.05902 29.85557,-16.58758 42.80562,-27.62143 4.93188,-4.68704 10.55393,-9.54457 12.61769,-16.2593 -6.17811,22.24819 -12.35389,44.48797 -18.53201,66.73618 m 18.53201,-66.73618 c -2.43929,10.0235 1.2222,20.31073 4.80436,29.58008 6.66262,15.52045 15.61405,30.10125 26.28693,43.17744 4.26679,4.65222 8.68375,10.0025 14.92758,11.90383 -21.51697,-5.97506 -43.03394,-11.95012 -64.55088,-17.92517 m 64.55088,17.92517 c -9.41127,-2.29675 -19.02713,1.42475 -27.65723,4.92187 -15.49708,7.06742 -29.85791,16.59599 -42.808,27.62981 -4.93188,4.68705 -10.54967,9.54577 -12.61766,16.25932 6.17812,-22.2482 12.3539,-44.488 18.53201,-66.73617"
         id="path768-7"
         inkscape:label="diamond" />
    </g>
  </g>
</svg>
