<?xml version="1.0" encoding="UTF-8" standalone="no"?>
<!-- Created with Inkscape (http://www.inkscape.org/) -->

<svg
   width="11.31843mm"
   height="11.225142mm"
   viewBox="0 0 11.31843 11.225142"
   version="1.1"
   id="svg1"
   inkscape:version="1.4 (86a8ad7, 2024-10-11)"
   sodipodi:docname="coeur-vert.svg"
   xmlns:inkscape="http://www.inkscape.org/namespaces/inkscape"
   xmlns:sodipodi="http://sodipodi.sourceforge.net/DTD/sodipodi-0.dtd"
   xmlns:xlink="http://www.w3.org/1999/xlink"
   xmlns="http://www.w3.org/2000/svg"
   xmlns:svg="http://www.w3.org/2000/svg">
  <sodipodi:namedview
     id="namedview1"
     pagecolor="#ffffff"
     bordercolor="#000000"
     borderopacity="0.25"
     inkscape:showpageshadow="2"
     inkscape:pageopacity="0.0"
     inkscape:pagecheckerboard="0"
     inkscape:deskcolor="#d1d1d1"
     inkscape:document-units="mm"
     inkscape:zoom="17.668226"
     inkscape:cx="10.838666"
     inkscape:cy="22.922505"
     inkscape:window-width="2714"
     inkscape:window-height="1735"
     inkscape:window-x="361"
     inkscape:window-y="100"
     inkscape:window-maximized="0"
     inkscape:current-layer="layer1">
    <sodipodi:guide
       position="0.88565867,10.005202"
       orientation="0,36.802419"
       id="guide1"
       inkscape:locked="false" />
    <sodipodi:guide
       position="10.622965,10.005202"
       orientation="38.097929,0"
       id="guide2"
       inkscape:locked="false" />
    <sodipodi:guide
       position="10.622965,-0.074874924"
       orientation="0,-36.802419"
       id="guide3"
       inkscape:locked="false" />
    <sodipodi:guide
       position="-0.71667633,11.308035"
       orientation="-38.097929,0"
       id="guide4"
       inkscape:locked="false" />
  </sodipodi:namedview>
  <defs
     id="defs1">
    <linearGradient
       id="linearGradient4"
       inkscape:collect="always">
      <stop
         style="stop-color:#55d400;stop-opacity:0.92561983"
         offset="0"
         id="stop4" />
      <stop
         style="stop-color:#115d00;stop-opacity:1;"
         offset="1"
         id="stop5" />
    </linearGradient>
    <filter
       inkscape:collect="always"
       style="color-interpolation-filters:sRGB"
       id="filter4"
       x="-0.081188999"
       y="-0.078428181"
       width="1.162378"
       height="1.1568564">
      <feGaussianBlur
         inkscape:collect="always"
         stdDeviation="0.51893449"
         id="feGaussianBlur4" />
    </filter>
    <linearGradient
       inkscape:collect="always"
       xlink:href="#linearGradient4"
       id="linearGradient5"
       x1="-0.044403445"
       y1="7.7277179"
       x2="0.049962934"
       y2="-8.0078754"
       gradientUnits="userSpaceOnUse" />
    <linearGradient
       inkscape:collect="always"
       xlink:href="#linearGradient4"
       id="linearGradient6"
       gradientUnits="userSpaceOnUse"
       x1="-0.044403445"
       y1="7.7277179"
       x2="0.049962934"
       y2="-8.0078754" />
  </defs>
  <g
     inkscape:label="Layer 1"
     inkscape:groupmode="layer"
     id="layer1"
     transform="translate(-101.5081,-80.887627)">
    <g
       id="use901-8"
       transform="matrix(-0.63476394,0,0,-0.58177908,107.16733,86.768871)"
       style="opacity:0.576859;fill:#1a1a1a;filter:url(#filter4)">
      <path
         style="fill:#1a1a1a"
         d="m -7.67,3.93 c 0.01,-4.71 5.91,-8.14 7.64,-11.87 1.75,3.72 7.66,7.12 7.7,11.83 C 7.68,6.11 5.96,7.92 3.85,7.92 1.73,7.92 0,6.13 0,3.91 0,6.14 -1.71,7.94 -3.82,7.94 -5.94,7.95 -7.66,6.15 -7.67,3.93 Z"
         id="path144-8" />
    </g>
    <g
       id="use901"
       transform="matrix(-0.63476393,0,0,-0.63476393,107.29238,85.927679)"
       style="fill:url(#linearGradient5);fill-opacity:1">
      <path
         style="fill:url(#linearGradient6);fill-opacity:1"
         d="m -7.67,3.93 c 0.01,-4.71 5.91,-8.14 7.64,-11.87 1.75,3.72 7.66,7.12 7.7,11.83 C 7.68,6.11 5.96,7.92 3.85,7.92 1.73,7.92 0,6.13 0,3.91 0,6.14 -1.71,7.94 -3.82,7.94 -5.94,7.95 -7.66,6.15 -7.67,3.93 Z"
         id="path144" />
    </g>
  </g>
</svg>
