<?xml version="1.0" encoding="UTF-8" standalone="no"?>
<!-- Created with Inkscape (http://www.inkscape.org/) -->

<svg
   width="10.037231mm"
   height="10.786411mm"
   viewBox="0 0 10.037232 10.786411"
   version="1.1"
   id="svg1"
   inkscape:version="1.4 (86a8ad7, 2024-10-11)"
   sodipodi:docname="pic-vert.svg"
   xmlns:inkscape="http://www.inkscape.org/namespaces/inkscape"
   xmlns:sodipodi="http://sodipodi.sourceforge.net/DTD/sodipodi-0.dtd"
   xmlns:xlink="http://www.w3.org/1999/xlink"
   xmlns="http://www.w3.org/2000/svg"
   xmlns:svg="http://www.w3.org/2000/svg">
  <sodipodi:namedview
     id="namedview1"
     pagecolor="#ffffff"
     bordercolor="#000000"
     borderopacity="0.25"
     inkscape:showpageshadow="2"
     inkscape:pageopacity="0.0"
     inkscape:pagecheckerboard="0"
     inkscape:deskcolor="#d1d1d1"
     inkscape:document-units="mm"
     inkscape:zoom="17.668226"
     inkscape:cx="8.6030142"
     inkscape:cy="21.620733"
     inkscape:window-width="1971"
     inkscape:window-height="1735"
     inkscape:window-x="420"
     inkscape:window-y="115"
     inkscape:window-maximized="0"
     inkscape:current-layer="layer1" />
  <defs
     id="defs1">
    <linearGradient
       id="linearGradient1"
       inkscape:collect="always">
      <stop
         style="stop-color:#00d300;stop-opacity:0.93055558;"
         offset="0"
         id="stop1" />
      <stop
         style="stop-color:#005d00;stop-opacity:1;"
         offset="1"
         id="stop2" />
    </linearGradient>
    <filter
       inkscape:collect="always"
       style="color-interpolation-filters:sRGB"
       id="filter1"
       x="-0.085649766"
       y="-0.072904908"
       width="1.1712995"
       height="1.1458098">
      <feGaussianBlur
         inkscape:collect="always"
         stdDeviation="0.48177993"
         id="feGaussianBlur1" />
    </filter>
    <linearGradient
       inkscape:collect="always"
       xlink:href="#linearGradient1"
       id="linearGradient2"
       x1="0.026400998"
       y1="7.8120422"
       x2="0.0028094028"
       y2="-7.9235516"
       gradientUnits="userSpaceOnUse" />
    <linearGradient
       inkscape:collect="always"
       xlink:href="#linearGradient1"
       id="linearGradient3"
       gradientUnits="userSpaceOnUse"
       x1="0.026400998"
       y1="7.8120422"
       x2="0.0028094028"
       y2="-7.9235516" />
    <linearGradient
       inkscape:collect="always"
       xlink:href="#linearGradient1"
       id="linearGradient4"
       gradientUnits="userSpaceOnUse"
       x1="0.026400998"
       y1="7.8120422"
       x2="0.0028094028"
       y2="-7.9235516" />
  </defs>
  <g
     inkscape:label="Layer 1"
     inkscape:groupmode="layer"
     id="layer1"
     transform="translate(-102.10884,-81.227085)">
    <g
       id="use1163-5"
       transform="matrix(-0.63476394,0,0,-0.5671918,107.12746,86.859837)"
       style="opacity:0.583471;filter:url(#filter1)">
      <path
         d="m 3.92,-7.93 c -1.67,0 -2.55,1.78 -3.01,3.56 -0.46,1.78 -0.5,3.56 -0.5,3.56 l -0.85,0.01 c 0,0 -0.16,-7.13 -3.5,-7.13 z"
         id="path13-2" />
      <path
         d="M 6.75,-0.8 C 6.74,2.67 1.53,5.19 0,7.93 -1.53,5.18 -6.74,2.66 -6.75,-0.8 c 0,-1.64 1.51,-2.97 3.38,-2.97 1.86,0 3.37,1.33 3.37,2.97 0,-1.64 1.51,-2.97 3.38,-2.97 1.87,0 3.37,1.33 3.37,2.97 z"
         id="path15-7" />
    </g>
    <g
       id="use1163"
       transform="matrix(-0.63476393,0,0,-0.63476393,106.943,86.260763)"
       style="fill:url(#linearGradient2);fill-opacity:1">
      <path
         d="m 3.92,-7.93 c -1.67,0 -2.55,1.78 -3.01,3.56 -0.46,1.78 -0.5,3.56 -0.5,3.56 l -0.85,0.01 c 0,0 -0.16,-7.13 -3.5,-7.13 z"
         id="path13"
         style="fill:url(#linearGradient3);fill-opacity:1"
         inkscape:label="path13" />
      <path
         d="M 6.75,-0.8 C 6.74,2.67 1.53,5.19 0,7.93 -1.53,5.18 -6.74,2.66 -6.75,-0.8 c 0,-1.64 1.51,-2.97 3.38,-2.97 1.86,0 3.37,1.33 3.37,2.97 0,-1.64 1.51,-2.97 3.38,-2.97 1.87,0 3.37,1.33 3.37,2.97 z"
         id="path15"
         style="fill:url(#linearGradient4);fill-opacity:1" />
    </g>
  </g>
</svg>
