<?xml version="1.0" encoding="UTF-8" standalone="no"?>
<!-- Created with Inkscape (http://www.inkscape.org/) -->

<svg
   width="44.717796mm"
   height="64.703606mm"
   viewBox="0 0 44.717796 64.703606"
   version="1.1"
   id="svg1"
   inkscape:version="1.4 (86a8ad7, 2024-10-11)"
   sodipodi:docname="carreau-as.svg"
   xmlns:inkscape="http://www.inkscape.org/namespaces/inkscape"
   xmlns:sodipodi="http://sodipodi.sourceforge.net/DTD/sodipodi-0.dtd"
   xmlns="http://www.w3.org/2000/svg"
   xmlns:svg="http://www.w3.org/2000/svg">
  <sodipodi:namedview
     id="namedview1"
     pagecolor="#ffffff"
     bordercolor="#000000"
     borderopacity="0.25"
     inkscape:showpageshadow="2"
     inkscape:pageopacity="0.0"
     inkscape:pagecheckerboard="0"
     inkscape:deskcolor="#d1d1d1"
     inkscape:document-units="mm"
     inkscape:zoom="3.1233305"
     inkscape:cx="99.893366"
     inkscape:cy="111.73969"
     inkscape:window-width="1712"
     inkscape:window-height="1735"
     inkscape:window-x="1912"
     inkscape:window-y="147"
     inkscape:window-maximized="0"
     inkscape:current-layer="svg1" />
  <defs
     id="defs1" />
  <g
     id="1_diamond"
     transform="matrix(0.26448497,0,0,0.26448497,0.33060621,-1.7500944)">
    <g
       id="use547"
       transform="translate(0,243.13699)">
      <path
         style="fill:#ffffff;stroke:#000000;stroke-width:2.5"
         d="m 0,0 c 0,3.78 3.09,6.87 6.87,6.87 h 152.845 c 3.77,0 6.86,-3.09 6.86,-6.87 v -228.4 c 0,-3.78 -3.09,-6.87 -6.86,-6.87 H 6.87 c -3.78,0 -6.87,3.09 -6.87,6.87 z"
         id="path731" />
    </g>
    <g
       id="use548"
       style="fill:#e6180a"
       transform="translate(4,44.02)">
      <path
         d="M 17.888672,-8.1044922 H 7.831543 l -1.1967774,2.7714844 q -0.5878906,1.3857422 -0.5878906,2.2885742 0,1.1967774 0.9658203,1.7636719 0.5668945,0.33593748 2.7924805,0.50390623 V 0 H 0.3359375 V -0.77685547 Q 1.8686523,-1.0078125 2.8554688,-2.0366211 3.8422852,-3.0864258 5.2910156,-6.3408203 L 15.474121,-29.058594 h 0.398926 l 10.26709,23.3476565 q 1.469726,3.3173828 2.41455,4.1782227 0.713868,0.65087886 2.015625,0.75585933 V 0 H 16.796875 v -0.77685547 h 0.566895 q 1.658691,0 2.330566,-0.46191403 0.461914,-0.3359375 0.461914,-0.9658203 0,-0.3779297 -0.125977,-0.7768555 -0.04199,-0.1889649 -0.629882,-1.574707 z m -0.713867,-1.5537109 -4.241211,-9.8051759 -4.3671877,9.8051759 z"
         id="text731"
         style="font-weight:bold;font-size:43px;font-family:'Bitstream Vera Serif'"
         transform="scale(0.56453,1.05741)"
         aria-label="A" />
    </g>
    <g
       id="use549"
       style="fill:#e6180a"
       transform="rotate(180,81.787502,106.4285)">
      <path
         d="M 17.888672,-8.1044922 H 7.831543 l -1.1967774,2.7714844 q -0.5878906,1.3857422 -0.5878906,2.2885742 0,1.1967774 0.9658203,1.7636719 0.5668945,0.33593748 2.7924805,0.50390623 V 0 H 0.3359375 V -0.77685547 Q 1.8686523,-1.0078125 2.8554688,-2.0366211 3.8422852,-3.0864258 5.2910156,-6.3408203 L 15.474121,-29.058594 h 0.398926 l 10.26709,23.3476565 q 1.469726,3.3173828 2.41455,4.1782227 0.713868,0.65087886 2.015625,0.75585933 V 0 H 16.796875 v -0.77685547 h 0.566895 q 1.658691,0 2.330566,-0.46191403 0.461914,-0.3359375 0.461914,-0.9658203 0,-0.3779297 -0.125977,-0.7768555 -0.04199,-0.1889649 -0.629882,-1.574707 z m -0.713867,-1.5537109 -4.241211,-9.8051759 -4.3671877,9.8051759 z"
         id="text732"
         style="font-weight:bold;font-size:43px;font-family:'Bitstream Vera Serif'"
         transform="scale(0.56453,1.05741)"
         aria-label="A" />
    </g>
    <g
       id="use550"
       transform="rotate(180,6.8250002,29.01)">
      <path
         fill-rule="nonzero"
         style="fill:#e6180a"
         d="M 0,0 C -2.56,0 -5.12,0 -7.68,0 c 1.11,-0.035 2.058,-0.7413 2.904,-1.393 1.495,-1.255 2.789,-2.748 3.881,-4.364 C -0.494,-6.426 -0.022,-7.135 0,-7.94 c 0.038,1.182 0.758,2.206 1.438,3.12 1.212,1.51 2.648,2.846 4.228,3.963 C 6.28,-0.474 6.932,-0.0185 7.68,0 6.57,0.035 5.622,0.741 4.776,1.392 3.281,2.648 1.987,4.141 0.895,5.757 0.494,6.426 0.0225,7.135 0,7.94 c -0.0144,-1.004 -0.545,-1.908 -1.132,-2.712 -1.168,-1.598 -2.647,-2.964 -4.226,-4.155 C -6.061,0.605 -6.8053,0.039 -7.68,0 -5.12,0 -2.56,0 0,0 Z"
         id="path732" />
    </g>
    <g
       id="use551"
       transform="translate(153.925,198.85699)">
      <path
         fill-rule="nonzero"
         style="fill:#e6180a"
         d="M 0,0 C -2.56,0 -5.12,0 -7.68,0 c 1.11,-0.035 2.058,-0.7413 2.904,-1.393 1.495,-1.255 2.789,-2.748 3.881,-4.364 C -0.494,-6.426 -0.022,-7.135 0,-7.94 c 0.038,1.182 0.758,2.206 1.438,3.12 1.212,1.51 2.648,2.846 4.228,3.963 C 6.28,-0.474 6.932,-0.0185 7.68,0 6.57,0.035 5.622,0.741 4.776,1.392 3.281,2.648 1.987,4.141 0.895,5.757 0.494,6.426 0.0225,7.135 0,7.94 c -0.0144,-1.004 -0.545,-1.908 -1.132,-2.712 -1.168,-1.598 -2.647,-2.964 -4.226,-4.155 C -6.061,0.605 -6.8053,0.039 -7.68,0 -5.12,0 -2.56,0 0,0 Z"
         id="path733" />
    </g>
    <g
       id="use552"
       transform="matrix(-2.4,0,0,-2.4,83.787602,121.56864)">
      <path
         fill-rule="nonzero"
         style="fill:#e6180a;fill-rule:nonzero"
         d="M 0,0 C -2.56,0 -5.12,0 -7.68,0 c 1.11,-0.035 2.058,-0.7413 2.904,-1.393 1.495,-1.255 2.789,-2.748 3.881,-4.364 C -0.494,-6.426 -0.022,-7.135 0,-7.94 c 0.038,1.182 0.758,2.206 1.438,3.12 1.212,1.51 2.648,2.846 4.228,3.963 C 6.28,-0.474 6.932,-0.0185 7.68,0 6.57,0.035 5.622,0.741 4.776,1.392 3.281,2.648 1.987,4.141 0.895,5.757 0.494,6.426 0.0225,7.135 0,7.94 c -0.0144,-1.004 -0.545,-1.908 -1.132,-2.712 -1.168,-1.598 -2.647,-2.964 -4.226,-4.155 C -6.061,0.605 -6.8053,0.039 -7.68,0 -5.12,0 -2.56,0 0,0 Z"
         id="path734" />
    </g>
  </g>
</svg>
