<?xml version="1.0" encoding="UTF-8" standalone="no"?>
<!-- Created with Inkscape (http://www.inkscape.org/) -->

<svg
   width="44.717796mm"
   height="64.703606mm"
   viewBox="0 0 44.717796 64.703606"
   version="1.1"
   id="svg1"
   inkscape:version="1.4 (86a8ad7, 2024-10-11)"
   sodipodi:docname="carreau-valet.svg"
   xmlns:inkscape="http://www.inkscape.org/namespaces/inkscape"
   xmlns:sodipodi="http://sodipodi.sourceforge.net/DTD/sodipodi-0.dtd"
   xmlns="http://www.w3.org/2000/svg"
   xmlns:svg="http://www.w3.org/2000/svg">
  <sodipodi:namedview
     id="namedview1"
     pagecolor="#ffffff"
     bordercolor="#000000"
     borderopacity="0.25"
     inkscape:showpageshadow="2"
     inkscape:pageopacity="0.0"
     inkscape:pagecheckerboard="0"
     inkscape:deskcolor="#d1d1d1"
     inkscape:document-units="mm"
     inkscape:zoom="3.1233305"
     inkscape:cx="127.42808"
     inkscape:cy="147.59885"
     inkscape:window-width="1712"
     inkscape:window-height="1735"
     inkscape:window-x="1912"
     inkscape:window-y="147"
     inkscape:window-maximized="0"
     inkscape:current-layer="use639" />
  <defs
     id="defs1" />
  <g
     id="10_diamond"
     transform="matrix(0.26448497,0,0,0.26448497,-398.55769,-1.7500944)">
    <g
       id="use637"
       transform="translate(1508.17,243.13699)">
      <path
         style="fill:#ffffff;stroke:#000000;stroke-width:2.5"
         d="m 0,0 c 0,3.78 3.09,6.87 6.87,6.87 h 152.845 c 3.77,0 6.86,-3.09 6.86,-6.87 v -228.4 c 0,-3.78 -3.09,-6.87 -6.86,-6.87 H 6.87 c -3.78,0 -6.87,3.09 -6.87,6.87 z"
         id="path774" />
    </g>
    <g
       id="use638"
       style="fill:#e6180a"
       transform="translate(1512.17,44.02)">
      <path
         d="m 14.004395,-29.058594 v 23.2846682 q 0,2.6245117 0.230957,3.359375 0.230957,0.7138672 0.96582,1.1757813 0.734863,0.46191403 2.351562,0.46191403 h 0.650879 V 0 H 3.2124023 v -0.77685547 h 0.7558594 q 1.8266602,0 2.6035156,-0.41992183 0.7768555,-0.4199219 1.0498047,-1.1547852 0.2729492,-0.7348633 0.2729492,-3.4223633 V -20.53418 q 0,-1.973632 -0.1889648,-2.456543 Q 7.5166016,-23.494629 6.9916992,-23.830566 6.487793,-24.1875 5.815918,-24.1875 q -1.0708008,0 -2.6035157,0.671875 l -0.3779296,-0.755859 10.4770503,-4.78711 z m 27.420898,14.823242 q 0,4.2622075 -1.196777,7.95752 -0.713868,2.2675781 -1.931641,3.7163086 -1.196777,1.4487304 -2.729492,2.30957027 -1.532715,0.83984375 -3.338379,0.83984375 -2.057617,0 -3.716309,-1.04980468 -1.658691,-1.04980464 -2.939453,-3.00244144 -0.923828,-1.4277343 -1.616699,-3.8002929 -0.902832,-3.2124026 -0.902832,-6.6347656 0,-4.640137 1.301758,-8.524414 1.070801,-3.212402 3.254394,-4.913086 2.183594,-1.72168 4.619141,-1.72168 2.477539,0 4.619141,1.700684 2.162597,1.679687 3.17041,4.535156 1.406738,3.92627 1.406738,8.587402 z m -6.466797,-0.04199 q 0,-7.474609 -0.08398,-8.713379 -0.209961,-2.918457 -1.007813,-3.947265 -0.524902,-0.671875 -1.700683,-0.671875 -0.902832,0 -1.427735,0.503906 -0.776855,0.734863 -1.049804,2.603516 -0.27295,1.847656 -0.27295,12.954589 0,6.0468754 0.419922,8.1044926 0.314942,1.4907227 0.902832,1.9946289 0.587891,0.50390628 1.553711,0.50390628 1.049805,0 1.574707,-0.67187498 0.881836,-1.1757813 1.007813,-3.6323242 z"
         id="text774"
         style="font-weight:bold;font-size:43px;font-family:'Bitstream Vera Serif'"
         transform="scale(0.32258,1.05741)"
         aria-label="10" />
    </g>
    <g
       id="use639"
       style="fill:#e6180a"
       transform="rotate(180,835.875,106.4285)">
      <path
         d="m 14.004395,-29.058594 v 23.2846682 q 0,2.6245117 0.230957,3.359375 0.230957,0.7138672 0.96582,1.1757813 0.734863,0.46191403 2.351562,0.46191403 h 0.650879 V 0 H 3.2124023 v -0.77685547 h 0.7558594 q 1.8266602,0 2.6035156,-0.41992183 0.7768555,-0.4199219 1.0498047,-1.1547852 0.2729492,-0.7348633 0.2729492,-3.4223633 V -20.53418 q 0,-1.973632 -0.1889648,-2.456543 Q 7.5166016,-23.494629 6.9916992,-23.830566 6.487793,-24.1875 5.815918,-24.1875 q -1.0708008,0 -2.6035157,0.671875 l -0.3779296,-0.755859 10.4770503,-4.78711 z m 27.420898,14.823242 q 0,4.2622075 -1.196777,7.95752 -0.713868,2.2675781 -1.931641,3.7163086 -1.196777,1.4487304 -2.729492,2.30957027 -1.532715,0.83984375 -3.338379,0.83984375 -2.057617,0 -3.716309,-1.04980468 -1.658691,-1.04980464 -2.939453,-3.00244144 -0.923828,-1.4277343 -1.616699,-3.8002929 -0.902832,-3.2124026 -0.902832,-6.6347656 0,-4.640137 1.301758,-8.524414 1.070801,-3.212402 3.254394,-4.913086 2.183594,-1.72168 4.619141,-1.72168 2.477539,0 4.619141,1.700684 2.162597,1.679687 3.17041,4.535156 1.406738,3.92627 1.406738,8.587402 z m -6.466797,-0.04199 q 0,-7.474609 -0.08398,-8.713379 -0.209961,-2.918457 -1.007813,-3.947265 -0.524902,-0.671875 -1.700683,-0.671875 -0.902832,0 -1.427735,0.503906 -0.776855,0.734863 -1.049804,2.603516 -0.27295,1.847656 -0.27295,12.954589 0,6.0468754 0.419922,8.1044926 0.314942,1.4907227 0.902832,1.9946289 0.587891,0.50390628 1.553711,0.50390628 1.049805,0 1.574707,-0.67187498 0.881836,-1.1757813 1.007813,-3.6323242 z"
         id="text775"
         style="font-weight:bold;font-size:43px;font-family:'Bitstream Vera Serif'"
         transform="scale(0.32258,1.05741)"
         aria-label="10" />
    </g>
    <g
       id="use640"
       transform="rotate(180,760.91502,29.01)">
      <path
         style="fill:#e6180a"
         d="m 0,0 c -2.56,0 -5.12,0 -7.68,0 0.8747,0.039 1.619,0.605 2.322,1.0728 C -3.779,2.264 -2.3,3.63 -1.132,5.228 -0.587,6.032 -0.0144,6.936 0,7.94 M -7.68,0 c 1.11,-0.035 2.058,-0.7413 2.904,-1.393 1.495,-1.255 2.789,-2.748 3.881,-4.364 C -0.494,-6.426 -0.022,-7.135 0,-7.94 0,-5.293 0,-2.647 0,0 m 0,-7.94 c 0.038,1.182 0.758,2.206 1.438,3.12 1.212,1.51 2.648,2.846 4.228,3.963 C 6.28,-0.474 6.932,-0.0185 7.68,0 5.12,0 2.56,0 0,0 M 7.68,0 C 6.57,0.035 5.622,0.741 4.776,1.392 3.281,2.648 1.987,4.141 0.895,5.757 0.494,6.426 0.0225,7.135 0,7.94 0,5.293 0,2.647 0,0"
         id="path775" />
    </g>
    <g
       id="use641"
       transform="translate(1662.1,198.85699)">
      <path
         style="fill:#e6180a"
         d="m 0,0 c -2.56,0 -5.12,0 -7.68,0 0.8747,0.039 1.619,0.605 2.322,1.0728 C -3.779,2.264 -2.3,3.63 -1.132,5.228 -0.587,6.032 -0.0144,6.936 0,7.94 M -7.68,0 c 1.11,-0.035 2.058,-0.7413 2.904,-1.393 1.495,-1.255 2.789,-2.748 3.881,-4.364 C -0.494,-6.426 -0.022,-7.135 0,-7.94 0,-5.293 0,-2.647 0,0 m 0,-7.94 c 0.038,1.182 0.758,2.206 1.438,3.12 1.212,1.51 2.648,2.846 4.228,3.963 C 6.28,-0.474 6.932,-0.0185 7.68,0 5.12,0 2.56,0 0,0 M 7.68,0 C 6.57,0.035 5.622,0.741 4.776,1.392 3.281,2.648 1.987,4.141 0.895,5.757 0.494,6.426 0.0225,7.135 0,7.94 0,5.293 0,2.647 0,0"
         id="path776" />
    </g>
    <g
       id="use642"
       transform="matrix(-2.4,0,0,-2.4,1552.0343,44.627518)">
      <path
         style="fill:#e6180a"
         d="m 0,0 c -2.56,0 -5.12,0 -7.68,0 0.8747,0.039 1.619,0.605 2.322,1.0728 C -3.779,2.264 -2.3,3.63 -1.132,5.228 -0.587,6.032 -0.0144,6.936 0,7.94 M -7.68,0 c 1.11,-0.035 2.058,-0.7413 2.904,-1.393 1.495,-1.255 2.789,-2.748 3.881,-4.364 C -0.494,-6.426 -0.022,-7.135 0,-7.94 0,-5.293 0,-2.647 0,0 m 0,-7.94 c 0.038,1.182 0.758,2.206 1.438,3.12 1.212,1.51 2.648,2.846 4.228,3.963 C 6.28,-0.474 6.932,-0.0185 7.68,0 5.12,0 2.56,0 0,0 M 7.68,0 C 6.57,0.035 5.622,0.741 4.776,1.392 3.281,2.648 1.987,4.141 0.895,5.757 0.494,6.426 0.0225,7.135 0,7.94 0,5.293 0,2.647 0,0"
         id="path777" />
    </g>
    <g
       id="use643"
       transform="matrix(-2.4,0,0,-2.4,1552.0343,98.783758)">
      <path
         style="fill:#e6180a"
         d="m 0,0 c -2.56,0 -5.12,0 -7.68,0 0.8747,0.039 1.619,0.605 2.322,1.0728 C -3.779,2.264 -2.3,3.63 -1.132,5.228 -0.587,6.032 -0.0144,6.936 0,7.94 M -7.68,0 c 1.11,-0.035 2.058,-0.7413 2.904,-1.393 1.495,-1.255 2.789,-2.748 3.881,-4.364 C -0.494,-6.426 -0.022,-7.135 0,-7.94 0,-5.293 0,-2.647 0,0 m 0,-7.94 c 0.038,1.182 0.758,2.206 1.438,3.12 1.212,1.51 2.648,2.846 4.228,3.963 C 6.28,-0.474 6.932,-0.0185 7.68,0 5.12,0 2.56,0 0,0 M 7.68,0 C 6.57,0.035 5.622,0.741 4.776,1.392 3.281,2.648 1.987,4.141 0.895,5.757 0.494,6.426 0.0225,7.135 0,7.94 0,5.293 0,2.647 0,0"
         id="path778" />
    </g>
    <g
       id="use644"
       transform="matrix(2.4,0,0,2.4,1552.0345,153.94369)">
      <path
         style="fill:#e6180a"
         d="m 0,0 c -2.56,0 -5.12,0 -7.68,0 0.8747,0.039 1.619,0.605 2.322,1.0728 C -3.779,2.264 -2.3,3.63 -1.132,5.228 -0.587,6.032 -0.0144,6.936 0,7.94 M -7.68,0 c 1.11,-0.035 2.058,-0.7413 2.904,-1.393 1.495,-1.255 2.789,-2.748 3.881,-4.364 C -0.494,-6.426 -0.022,-7.135 0,-7.94 0,-5.293 0,-2.647 0,0 m 0,-7.94 c 0.038,1.182 0.758,2.206 1.438,3.12 1.212,1.51 2.648,2.846 4.228,3.963 C 6.28,-0.474 6.932,-0.0185 7.68,0 5.12,0 2.56,0 0,0 M 7.68,0 C 6.57,0.035 5.622,0.741 4.776,1.392 3.281,2.648 1.987,4.141 0.895,5.757 0.494,6.426 0.0225,7.135 0,7.94 0,5.293 0,2.647 0,0"
         id="path779" />
    </g>
    <g
       id="use645"
       transform="matrix(2.4,0,0,2.4,1552.0345,208.09991)">
      <path
         style="fill:#e6180a"
         d="m 0,0 c -2.56,0 -5.12,0 -7.68,0 0.8747,0.039 1.619,0.605 2.322,1.0728 C -3.779,2.264 -2.3,3.63 -1.132,5.228 -0.587,6.032 -0.0144,6.936 0,7.94 M -7.68,0 c 1.11,-0.035 2.058,-0.7413 2.904,-1.393 1.495,-1.255 2.789,-2.748 3.881,-4.364 C -0.494,-6.426 -0.022,-7.135 0,-7.94 0,-5.293 0,-2.647 0,0 m 0,-7.94 c 0.038,1.182 0.758,2.206 1.438,3.12 1.212,1.51 2.648,2.846 4.228,3.963 C 6.28,-0.474 6.932,-0.0185 7.68,0 5.12,0 2.56,0 0,0 M 7.68,0 C 6.57,0.035 5.622,0.741 4.776,1.392 3.281,2.648 1.987,4.141 0.895,5.757 0.494,6.426 0.0225,7.135 0,7.94 0,5.293 0,2.647 0,0"
         id="path780" />
    </g>
    <g
       id="use646"
       transform="matrix(-2.4,0,0,-2.4,1631.892,44.627518)">
      <path
         style="fill:#e6180a"
         d="m 0,0 c -2.56,0 -5.12,0 -7.68,0 0.8747,0.039 1.619,0.605 2.322,1.0728 C -3.779,2.264 -2.3,3.63 -1.132,5.228 -0.587,6.032 -0.0144,6.936 0,7.94 M -7.68,0 c 1.11,-0.035 2.058,-0.7413 2.904,-1.393 1.495,-1.255 2.789,-2.748 3.881,-4.364 C -0.494,-6.426 -0.022,-7.135 0,-7.94 0,-5.293 0,-2.647 0,0 m 0,-7.94 c 0.038,1.182 0.758,2.206 1.438,3.12 1.212,1.51 2.648,2.846 4.228,3.963 C 6.28,-0.474 6.932,-0.0185 7.68,0 5.12,0 2.56,0 0,0 M 7.68,0 C 6.57,0.035 5.622,0.741 4.776,1.392 3.281,2.648 1.987,4.141 0.895,5.757 0.494,6.426 0.0225,7.135 0,7.94 0,5.293 0,2.647 0,0"
         id="path781" />
    </g>
    <g
       id="use647"
       transform="matrix(-2.4,0,0,-2.4,1631.892,98.783758)">
      <path
         style="fill:#e6180a"
         d="m 0,0 c -2.56,0 -5.12,0 -7.68,0 0.8747,0.039 1.619,0.605 2.322,1.0728 C -3.779,2.264 -2.3,3.63 -1.132,5.228 -0.587,6.032 -0.0144,6.936 0,7.94 M -7.68,0 c 1.11,-0.035 2.058,-0.7413 2.904,-1.393 1.495,-1.255 2.789,-2.748 3.881,-4.364 C -0.494,-6.426 -0.022,-7.135 0,-7.94 0,-5.293 0,-2.647 0,0 m 0,-7.94 c 0.038,1.182 0.758,2.206 1.438,3.12 1.212,1.51 2.648,2.846 4.228,3.963 C 6.28,-0.474 6.932,-0.0185 7.68,0 5.12,0 2.56,0 0,0 M 7.68,0 C 6.57,0.035 5.622,0.741 4.776,1.392 3.281,2.648 1.987,4.141 0.895,5.757 0.494,6.426 0.0225,7.135 0,7.94 0,5.293 0,2.647 0,0"
         id="path782" />
    </g>
    <g
       id="use648"
       transform="matrix(2.4,0,0,2.4,1631.892,153.94369)">
      <path
         style="fill:#e6180a"
         d="m 0,0 c -2.56,0 -5.12,0 -7.68,0 0.8747,0.039 1.619,0.605 2.322,1.0728 C -3.779,2.264 -2.3,3.63 -1.132,5.228 -0.587,6.032 -0.0144,6.936 0,7.94 M -7.68,0 c 1.11,-0.035 2.058,-0.7413 2.904,-1.393 1.495,-1.255 2.789,-2.748 3.881,-4.364 C -0.494,-6.426 -0.022,-7.135 0,-7.94 0,-5.293 0,-2.647 0,0 m 0,-7.94 c 0.038,1.182 0.758,2.206 1.438,3.12 1.212,1.51 2.648,2.846 4.228,3.963 C 6.28,-0.474 6.932,-0.0185 7.68,0 5.12,0 2.56,0 0,0 M 7.68,0 C 6.57,0.035 5.622,0.741 4.776,1.392 3.281,2.648 1.987,4.141 0.895,5.757 0.494,6.426 0.0225,7.135 0,7.94 0,5.293 0,2.647 0,0"
         id="path783" />
    </g>
    <g
       id="use649"
       transform="matrix(2.4,0,0,2.4,1631.892,208.09991)">
      <path
         style="fill:#e6180a"
         d="m 0,0 c -2.56,0 -5.12,0 -7.68,0 0.8747,0.039 1.619,0.605 2.322,1.0728 C -3.779,2.264 -2.3,3.63 -1.132,5.228 -0.587,6.032 -0.0144,6.936 0,7.94 M -7.68,0 c 1.11,-0.035 2.058,-0.7413 2.904,-1.393 1.495,-1.255 2.789,-2.748 3.881,-4.364 C -0.494,-6.426 -0.022,-7.135 0,-7.94 0,-5.293 0,-2.647 0,0 m 0,-7.94 c 0.038,1.182 0.758,2.206 1.438,3.12 1.212,1.51 2.648,2.846 4.228,3.963 C 6.28,-0.474 6.932,-0.0185 7.68,0 5.12,0 2.56,0 0,0 M 7.68,0 C 6.57,0.035 5.622,0.741 4.776,1.392 3.281,2.648 1.987,4.141 0.895,5.757 0.494,6.426 0.0225,7.135 0,7.94 0,5.293 0,2.647 0,0"
         id="path784" />
    </g>
    <g
       id="use650"
       transform="matrix(-2.4,0,0,-2.4,1591.9632,71.705519)">
      <path
         style="fill:#e6180a"
         d="m 0,0 c -2.56,0 -5.12,0 -7.68,0 0.8747,0.039 1.619,0.605 2.322,1.0728 C -3.779,2.264 -2.3,3.63 -1.132,5.228 -0.587,6.032 -0.0144,6.936 0,7.94 M -7.68,0 c 1.11,-0.035 2.058,-0.7413 2.904,-1.393 1.495,-1.255 2.789,-2.748 3.881,-4.364 C -0.494,-6.426 -0.022,-7.135 0,-7.94 0,-5.293 0,-2.647 0,0 m 0,-7.94 c 0.038,1.182 0.758,2.206 1.438,3.12 1.212,1.51 2.648,2.846 4.228,3.963 C 6.28,-0.474 6.932,-0.0185 7.68,0 5.12,0 2.56,0 0,0 M 7.68,0 C 6.57,0.035 5.622,0.741 4.776,1.392 3.281,2.648 1.987,4.141 0.895,5.757 0.494,6.426 0.0225,7.135 0,7.94 0,5.293 0,2.647 0,0"
         id="path785" />
    </g>
    <g
       id="use651"
       transform="matrix(2.4,0,0,2.4,1591.9632,181.02191)">
      <path
         style="fill:#e6180a"
         d="m 0,0 c -2.56,0 -5.12,0 -7.68,0 0.8747,0.039 1.619,0.605 2.322,1.0728 C -3.779,2.264 -2.3,3.63 -1.132,5.228 -0.587,6.032 -0.0144,6.936 0,7.94 M -7.68,0 c 1.11,-0.035 2.058,-0.7413 2.904,-1.393 1.495,-1.255 2.789,-2.748 3.881,-4.364 C -0.494,-6.426 -0.022,-7.135 0,-7.94 0,-5.293 0,-2.647 0,0 m 0,-7.94 c 0.038,1.182 0.758,2.206 1.438,3.12 1.212,1.51 2.648,2.846 4.228,3.963 C 6.28,-0.474 6.932,-0.0185 7.68,0 5.12,0 2.56,0 0,0 M 7.68,0 C 6.57,0.035 5.622,0.741 4.776,1.392 3.281,2.648 1.987,4.141 0.895,5.757 0.494,6.426 0.0225,7.135 0,7.94 0,5.293 0,2.647 0,0"
         id="path786" />
    </g>
  </g>
</svg>
