<?xml version="1.0" encoding="UTF-8" standalone="no"?>
<!-- Created with Inkscape (http://www.inkscape.org/) -->

<svg
   width="44.717796mm"
   height="64.703606mm"
   viewBox="0 0 44.717796 64.703606"
   version="1.1"
   id="svg1"
   inkscape:version="1.4 (86a8ad7, 2024-10-11)"
   sodipodi:docname="carreau-8.svg"
   xmlns:inkscape="http://www.inkscape.org/namespaces/inkscape"
   xmlns:sodipodi="http://sodipodi.sourceforge.net/DTD/sodipodi-0.dtd"
   xmlns="http://www.w3.org/2000/svg"
   xmlns:svg="http://www.w3.org/2000/svg">
  <sodipodi:namedview
     id="namedview1"
     pagecolor="#ffffff"
     bordercolor="#000000"
     borderopacity="0.25"
     inkscape:showpageshadow="2"
     inkscape:pageopacity="0.0"
     inkscape:pagecheckerboard="0"
     inkscape:deskcolor="#d1d1d1"
     inkscape:document-units="mm"
     inkscape:zoom="3.1233305"
     inkscape:cx="103.73542"
     inkscape:cy="121.665"
     inkscape:window-width="1712"
     inkscape:window-height="1735"
     inkscape:window-x="1912"
     inkscape:window-y="147"
     inkscape:window-maximized="0"
     inkscape:current-layer="svg1" />
  <defs
     id="defs1" />
  <g
     id="8_diamond"
     transform="matrix(0.26448497,0,0,0.26448497,-309.91555,-1.7500944)">
    <g
       id="use610"
       transform="translate(1173.02,243.13699)">
      <path
         style="fill:#ffffff;stroke:#000000;stroke-width:2.5"
         d="m 0,0 c 0,3.78 3.09,6.87 6.87,6.87 h 152.845 c 3.77,0 6.86,-3.09 6.86,-6.87 v -228.4 c 0,-3.78 -3.09,-6.87 -6.86,-6.87 H 6.87 c -3.78,0 -6.87,3.09 -6.87,6.87 z"
         id="path745" />
    </g>
    <g
       id="use611"
       style="fill:#e6180a"
       transform="translate(1177.02,44.02)">
      <path
         d="m 14.655273,-16.083008 q 3.002442,2.20459 4.157227,4.115235 1.175781,1.889648 1.175781,4.346191 0,3.4433593 -2.603515,5.836914 -2.58252,2.37255862 -7.033692,2.37255862 -4.2202146,0 -6.5297849,-2.07861332 -2.3095704,-2.0786132 -2.3095704,-5.0810546 0,-2.2885743 1.322754,-4.0102537 1.34375,-1.72168 4.4511718,-3.149414 -3.3803711,-2.58252 -4.3461914,-4.220215 -0.9448242,-1.637695 -0.9448242,-3.800293 0,-2.855469 2.4145508,-5.018067 2.4355469,-2.183593 6.6557613,-2.183593 4.073243,0 6.256836,1.93164 2.20459,1.910645 2.20459,4.598145 0,2.015625 -1.196777,3.569336 -1.175781,1.532715 -3.674317,2.771484 z m -1.595703,-1.070801 q 0.776856,-1.049804 1.154785,-2.351562 0.37793,-1.301758 0.37793,-2.855469 0,-2.729492 -1.175781,-4.178222 -0.881836,-1.112793 -2.435547,-1.112793 -1.4067382,0 -2.3935547,1.028808 -0.9868164,1.007813 -0.9868164,2.519531 0,1.532715 1.0917969,3.191407 1.112793,1.637695 4.3671872,3.7583 z m -4.1992184,4.430176 q -0.6508789,0.587891 -0.9238282,1.070801 -0.4199218,0.734863 -0.7558593,2.1416015 -0.3359375,1.4067383 -0.3359375,2.9394532 0,1.9736328 0.5039062,3.3173828 0.5039063,1.3227539 1.4277344,1.9106445 0.9448242,0.58789063 1.9316408,0.58789063 1.532715,0 2.582519,-1.11279293 1.049805,-1.1337891 1.049805,-3.0864258 0,-4.0732422 -5.4799804,-7.7685549 z"
         id="text745"
         style="font-weight:bold;font-size:43px;font-family:'Bitstream Vera Serif'"
         transform="scale(0.56453,1.05741)"
         aria-label="8" />
    </g>
    <g
       id="use612"
       style="fill:#e6180a"
       transform="rotate(180,668.30001,106.4285)">
      <path
         d="m 14.655273,-16.083008 q 3.002442,2.20459 4.157227,4.115235 1.175781,1.889648 1.175781,4.346191 0,3.4433593 -2.603515,5.836914 -2.58252,2.37255862 -7.033692,2.37255862 -4.2202146,0 -6.5297849,-2.07861332 -2.3095704,-2.0786132 -2.3095704,-5.0810546 0,-2.2885743 1.322754,-4.0102537 1.34375,-1.72168 4.4511718,-3.149414 -3.3803711,-2.58252 -4.3461914,-4.220215 -0.9448242,-1.637695 -0.9448242,-3.800293 0,-2.855469 2.4145508,-5.018067 2.4355469,-2.183593 6.6557613,-2.183593 4.073243,0 6.256836,1.93164 2.20459,1.910645 2.20459,4.598145 0,2.015625 -1.196777,3.569336 -1.175781,1.532715 -3.674317,2.771484 z m -1.595703,-1.070801 q 0.776856,-1.049804 1.154785,-2.351562 0.37793,-1.301758 0.37793,-2.855469 0,-2.729492 -1.175781,-4.178222 -0.881836,-1.112793 -2.435547,-1.112793 -1.4067382,0 -2.3935547,1.028808 -0.9868164,1.007813 -0.9868164,2.519531 0,1.532715 1.0917969,3.191407 1.112793,1.637695 4.3671872,3.7583 z m -4.1992184,4.430176 q -0.6508789,0.587891 -0.9238282,1.070801 -0.4199218,0.734863 -0.7558593,2.1416015 -0.3359375,1.4067383 -0.3359375,2.9394532 0,1.9736328 0.5039062,3.3173828 0.5039063,1.3227539 1.4277344,1.9106445 0.9448242,0.58789063 1.9316408,0.58789063 1.532715,0 2.582519,-1.11279293 1.049805,-1.1337891 1.049805,-3.0864258 0,-4.0732422 -5.4799804,-7.7685549 z"
         id="text746"
         style="font-weight:bold;font-size:43px;font-family:'Bitstream Vera Serif'"
         transform="scale(0.56453,1.05741)"
         aria-label="8" />
    </g>
    <g
       id="use613"
       transform="rotate(180,593.33498,29.01)">
      <path
         style="fill:#e6180a"
         d="m 0,0 c -2.56,0 -5.12,0 -7.68,0 0.8747,0.039 1.619,0.605 2.322,1.0728 C -3.779,2.264 -2.3,3.63 -1.132,5.228 -0.587,6.032 -0.0144,6.936 0,7.94 M -7.68,0 c 1.11,-0.035 2.058,-0.7413 2.904,-1.393 1.495,-1.255 2.789,-2.748 3.881,-4.364 C -0.494,-6.426 -0.022,-7.135 0,-7.94 0,-5.293 0,-2.647 0,0 m 0,-7.94 c 0.038,1.182 0.758,2.206 1.438,3.12 1.212,1.51 2.648,2.846 4.228,3.963 C 6.28,-0.474 6.932,-0.0185 7.68,0 5.12,0 2.56,0 0,0 M 7.68,0 C 6.57,0.035 5.622,0.741 4.776,1.392 3.281,2.648 1.987,4.141 0.895,5.757 0.494,6.426 0.0225,7.135 0,7.94 0,5.293 0,2.647 0,0"
         id="path746" />
    </g>
    <g
       id="use614"
       transform="translate(1326.95,198.85699)">
      <path
         style="fill:#e6180a"
         d="m 0,0 c -2.56,0 -5.12,0 -7.68,0 0.8747,0.039 1.619,0.605 2.322,1.0728 C -3.779,2.264 -2.3,3.63 -1.132,5.228 -0.587,6.032 -0.0144,6.936 0,7.94 M -7.68,0 c 1.11,-0.035 2.058,-0.7413 2.904,-1.393 1.495,-1.255 2.789,-2.748 3.881,-4.364 C -0.494,-6.426 -0.022,-7.135 0,-7.94 0,-5.293 0,-2.647 0,0 m 0,-7.94 c 0.038,1.182 0.758,2.206 1.438,3.12 1.212,1.51 2.648,2.846 4.228,3.963 C 6.28,-0.474 6.932,-0.0185 7.68,0 5.12,0 2.56,0 0,0 M 7.68,0 C 6.57,0.035 5.622,0.741 4.776,1.392 3.281,2.648 1.987,4.141 0.895,5.757 0.494,6.426 0.0225,7.135 0,7.94 0,5.293 0,2.647 0,0"
         id="path747" />
    </g>
    <g
       id="use615"
       transform="matrix(-2.4,0,0,-2.4,1216.884,44.627518)">
      <path
         style="fill:#e6180a"
         d="m 0,0 c -2.56,0 -5.12,0 -7.68,0 0.8747,0.039 1.619,0.605 2.322,1.0728 C -3.779,2.264 -2.3,3.63 -1.132,5.228 -0.587,6.032 -0.0144,6.936 0,7.94 M -7.68,0 c 1.11,-0.035 2.058,-0.7413 2.904,-1.393 1.495,-1.255 2.789,-2.748 3.881,-4.364 C -0.494,-6.426 -0.022,-7.135 0,-7.94 0,-5.293 0,-2.647 0,0 m 0,-7.94 c 0.038,1.182 0.758,2.206 1.438,3.12 1.212,1.51 2.648,2.846 4.228,3.963 C 6.28,-0.474 6.932,-0.0185 7.68,0 5.12,0 2.56,0 0,0 M 7.68,0 C 6.57,0.035 5.622,0.741 4.776,1.392 3.281,2.648 1.987,4.141 0.895,5.757 0.494,6.426 0.0225,7.135 0,7.94 0,5.293 0,2.647 0,0"
         id="path748" />
    </g>
    <g
       id="use616"
       transform="matrix(-2.4,0,0,-2.4,1216.884,98.783758)">
      <path
         style="fill:#e6180a"
         d="m 0,0 c -2.56,0 -5.12,0 -7.68,0 0.8747,0.039 1.619,0.605 2.322,1.0728 C -3.779,2.264 -2.3,3.63 -1.132,5.228 -0.587,6.032 -0.0144,6.936 0,7.94 M -7.68,0 c 1.11,-0.035 2.058,-0.7413 2.904,-1.393 1.495,-1.255 2.789,-2.748 3.881,-4.364 C -0.494,-6.426 -0.022,-7.135 0,-7.94 0,-5.293 0,-2.647 0,0 m 0,-7.94 c 0.038,1.182 0.758,2.206 1.438,3.12 1.212,1.51 2.648,2.846 4.228,3.963 C 6.28,-0.474 6.932,-0.0185 7.68,0 5.12,0 2.56,0 0,0 M 7.68,0 C 6.57,0.035 5.622,0.741 4.776,1.392 3.281,2.648 1.987,4.141 0.895,5.757 0.494,6.426 0.0225,7.135 0,7.94 0,5.293 0,2.647 0,0"
         id="path749" />
    </g>
    <g
       id="use617"
       transform="matrix(2.4,0,0,2.4,1216.884,153.94369)">
      <path
         style="fill:#e6180a"
         d="m 0,0 c -2.56,0 -5.12,0 -7.68,0 0.8747,0.039 1.619,0.605 2.322,1.0728 C -3.779,2.264 -2.3,3.63 -1.132,5.228 -0.587,6.032 -0.0144,6.936 0,7.94 M -7.68,0 c 1.11,-0.035 2.058,-0.7413 2.904,-1.393 1.495,-1.255 2.789,-2.748 3.881,-4.364 C -0.494,-6.426 -0.022,-7.135 0,-7.94 0,-5.293 0,-2.647 0,0 m 0,-7.94 c 0.038,1.182 0.758,2.206 1.438,3.12 1.212,1.51 2.648,2.846 4.228,3.963 C 6.28,-0.474 6.932,-0.0185 7.68,0 5.12,0 2.56,0 0,0 M 7.68,0 C 6.57,0.035 5.622,0.741 4.776,1.392 3.281,2.648 1.987,4.141 0.895,5.757 0.494,6.426 0.0225,7.135 0,7.94 0,5.293 0,2.647 0,0"
         id="path750" />
    </g>
    <g
       id="use618"
       transform="matrix(2.4,0,0,2.4,1216.884,208.09991)">
      <path
         style="fill:#e6180a"
         d="m 0,0 c -2.56,0 -5.12,0 -7.68,0 0.8747,0.039 1.619,0.605 2.322,1.0728 C -3.779,2.264 -2.3,3.63 -1.132,5.228 -0.587,6.032 -0.0144,6.936 0,7.94 M -7.68,0 c 1.11,-0.035 2.058,-0.7413 2.904,-1.393 1.495,-1.255 2.789,-2.748 3.881,-4.364 C -0.494,-6.426 -0.022,-7.135 0,-7.94 0,-5.293 0,-2.647 0,0 m 0,-7.94 c 0.038,1.182 0.758,2.206 1.438,3.12 1.212,1.51 2.648,2.846 4.228,3.963 C 6.28,-0.474 6.932,-0.0185 7.68,0 5.12,0 2.56,0 0,0 M 7.68,0 C 6.57,0.035 5.622,0.741 4.776,1.392 3.281,2.648 1.987,4.141 0.895,5.757 0.494,6.426 0.0225,7.135 0,7.94 0,5.293 0,2.647 0,0"
         id="path751" />
    </g>
    <g
       id="use619"
       transform="matrix(-2.4,0,0,-2.4,1296.7415,44.627518)">
      <path
         style="fill:#e6180a"
         d="m 0,0 c -2.56,0 -5.12,0 -7.68,0 0.8747,0.039 1.619,0.605 2.322,1.0728 C -3.779,2.264 -2.3,3.63 -1.132,5.228 -0.587,6.032 -0.0144,6.936 0,7.94 M -7.68,0 c 1.11,-0.035 2.058,-0.7413 2.904,-1.393 1.495,-1.255 2.789,-2.748 3.881,-4.364 C -0.494,-6.426 -0.022,-7.135 0,-7.94 0,-5.293 0,-2.647 0,0 m 0,-7.94 c 0.038,1.182 0.758,2.206 1.438,3.12 1.212,1.51 2.648,2.846 4.228,3.963 C 6.28,-0.474 6.932,-0.0185 7.68,0 5.12,0 2.56,0 0,0 M 7.68,0 C 6.57,0.035 5.622,0.741 4.776,1.392 3.281,2.648 1.987,4.141 0.895,5.757 0.494,6.426 0.0225,7.135 0,7.94 0,5.293 0,2.647 0,0"
         id="path752" />
    </g>
    <g
       id="use620"
       transform="matrix(-2.4,0,0,-2.4,1296.7415,98.783758)">
      <path
         style="fill:#e6180a"
         d="m 0,0 c -2.56,0 -5.12,0 -7.68,0 0.8747,0.039 1.619,0.605 2.322,1.0728 C -3.779,2.264 -2.3,3.63 -1.132,5.228 -0.587,6.032 -0.0144,6.936 0,7.94 M -7.68,0 c 1.11,-0.035 2.058,-0.7413 2.904,-1.393 1.495,-1.255 2.789,-2.748 3.881,-4.364 C -0.494,-6.426 -0.022,-7.135 0,-7.94 0,-5.293 0,-2.647 0,0 m 0,-7.94 c 0.038,1.182 0.758,2.206 1.438,3.12 1.212,1.51 2.648,2.846 4.228,3.963 C 6.28,-0.474 6.932,-0.0185 7.68,0 5.12,0 2.56,0 0,0 M 7.68,0 C 6.57,0.035 5.622,0.741 4.776,1.392 3.281,2.648 1.987,4.141 0.895,5.757 0.494,6.426 0.0225,7.135 0,7.94 0,5.293 0,2.647 0,0"
         id="path753" />
    </g>
    <g
       id="use621"
       transform="matrix(2.4,0,0,2.4,1296.7417,153.94369)">
      <path
         style="fill:#e6180a"
         d="m 0,0 c -2.56,0 -5.12,0 -7.68,0 0.8747,0.039 1.619,0.605 2.322,1.0728 C -3.779,2.264 -2.3,3.63 -1.132,5.228 -0.587,6.032 -0.0144,6.936 0,7.94 M -7.68,0 c 1.11,-0.035 2.058,-0.7413 2.904,-1.393 1.495,-1.255 2.789,-2.748 3.881,-4.364 C -0.494,-6.426 -0.022,-7.135 0,-7.94 0,-5.293 0,-2.647 0,0 m 0,-7.94 c 0.038,1.182 0.758,2.206 1.438,3.12 1.212,1.51 2.648,2.846 4.228,3.963 C 6.28,-0.474 6.932,-0.0185 7.68,0 5.12,0 2.56,0 0,0 M 7.68,0 C 6.57,0.035 5.622,0.741 4.776,1.392 3.281,2.648 1.987,4.141 0.895,5.757 0.494,6.426 0.0225,7.135 0,7.94 0,5.293 0,2.647 0,0"
         id="path754" />
    </g>
    <g
       id="use622"
       transform="matrix(2.4,0,0,2.4,1296.7417,208.09991)">
      <path
         style="fill:#e6180a"
         d="m 0,0 c -2.56,0 -5.12,0 -7.68,0 0.8747,0.039 1.619,0.605 2.322,1.0728 C -3.779,2.264 -2.3,3.63 -1.132,5.228 -0.587,6.032 -0.0144,6.936 0,7.94 M -7.68,0 c 1.11,-0.035 2.058,-0.7413 2.904,-1.393 1.495,-1.255 2.789,-2.748 3.881,-4.364 C -0.494,-6.426 -0.022,-7.135 0,-7.94 0,-5.293 0,-2.647 0,0 m 0,-7.94 c 0.038,1.182 0.758,2.206 1.438,3.12 1.212,1.51 2.648,2.846 4.228,3.963 C 6.28,-0.474 6.932,-0.0185 7.68,0 5.12,0 2.56,0 0,0 M 7.68,0 C 6.57,0.035 5.622,0.741 4.776,1.392 3.281,2.648 1.987,4.141 0.895,5.757 0.494,6.426 0.0225,7.135 0,7.94 0,5.293 0,2.647 0,0"
         id="path755" />
    </g>
  </g>
</svg>
