<?xml version="1.0" encoding="UTF-8" standalone="no"?>
<!-- Created with Inkscape (http://www.inkscape.org/) -->

<svg
   width="44.717796mm"
   height="64.703606mm"
   viewBox="0 0 44.717796 64.703606"
   version="1.1"
   id="svg1"
   inkscape:version="1.4 (86a8ad7, 2024-10-11)"
   sodipodi:docname="carreau-7.svg"
   xmlns:inkscape="http://www.inkscape.org/namespaces/inkscape"
   xmlns:sodipodi="http://sodipodi.sourceforge.net/DTD/sodipodi-0.dtd"
   xmlns="http://www.w3.org/2000/svg"
   xmlns:svg="http://www.w3.org/2000/svg">
  <sodipodi:namedview
     id="namedview1"
     pagecolor="#ffffff"
     bordercolor="#000000"
     borderopacity="0.25"
     inkscape:showpageshadow="2"
     inkscape:pageopacity="0.0"
     inkscape:pagecheckerboard="0"
     inkscape:deskcolor="#d1d1d1"
     inkscape:document-units="mm"
     inkscape:zoom="3.1233305"
     inkscape:cx="103.73542"
     inkscape:cy="114.62123"
     inkscape:window-width="1712"
     inkscape:window-height="1735"
     inkscape:window-x="1912"
     inkscape:window-y="147"
     inkscape:window-maximized="0"
     inkscape:current-layer="svg1" />
  <defs
     id="defs1" />
  <g
     id="7_diamond"
     transform="matrix(0.26448497,0,0,0.26448497,-265.59581,-1.7500944)">
    <g
       id="use598"
       transform="translate(1005.45,243.13699)">
      <path
         style="fill:#ffffff;stroke:#000000;stroke-width:2.5"
         d="m 0,0 c 0,3.78 3.09,6.87 6.87,6.87 h 152.845 c 3.77,0 6.86,-3.09 6.86,-6.87 v -228.4 c 0,-3.78 -3.09,-6.87 -6.86,-6.87 H 6.87 c -3.78,0 -6.87,3.09 -6.87,6.87 z"
         id="path735" />
    </g>
    <g
       id="use599"
       style="fill:#e6180a"
       transform="translate(1009.45,44.02)">
      <path
         d="M 7.621582,0.58789062 15.369141,-22.906738 H 9.4692383 q -3.4643555,0 -5.2070313,0.902832 -1.2177734,0.629883 -2.015625,2.372558 H 1.4487305 l 2.0576172,-8.839355 H 20.471191 L 10.917969,0.58789062 Z"
         id="text735"
         style="font-weight:bold;font-size:43px;font-family:'Bitstream Vera Serif'"
         transform="scale(0.56453,1.05741)"
         aria-label="7" />
    </g>
    <g
       id="use600"
       style="fill:#e6180a"
       transform="rotate(180,584.50999,106.4285)">
      <path
         d="M 7.621582,0.58789062 15.369141,-22.906738 H 9.4692383 q -3.4643555,0 -5.2070313,0.902832 -1.2177734,0.629883 -2.015625,2.372558 H 1.4487305 l 2.0576172,-8.839355 H 20.471191 L 10.917969,0.58789062 Z"
         id="text736"
         style="font-weight:bold;font-size:43px;font-family:'Bitstream Vera Serif'"
         transform="scale(0.56453,1.05741)"
         aria-label="7" />
    </g>
    <g
       id="use601"
       transform="rotate(180,509.55001,29.01)">
      <path
         style="fill:#e6180a"
         d="M 0,0 C -2.56,0 -5.12,0 -7.68,0 c 1.11,-0.035 2.058,-0.7413 2.904,-1.393 1.495,-1.255 2.789,-2.748 3.881,-4.364 C -0.494,-6.426 -0.022,-7.135 0,-7.94 c 0.038,1.182 0.758,2.206 1.438,3.12 1.212,1.51 2.648,2.846 4.228,3.963 C 6.28,-0.474 6.932,-0.0185 7.68,0 6.57,0.035 5.622,0.741 4.776,1.392 3.281,2.648 1.987,4.141 0.895,5.757 0.494,6.426 0.0225,7.135 0,7.94 c -0.0144,-1.004 -0.545,-1.908 -1.132,-2.712 -1.168,-1.598 -2.647,-2.964 -4.226,-4.155 C -6.061,0.605 -6.8053,0.039 -7.68,0 -5.12,0 -2.56,0 0,0 Z"
         id="path736" />
    </g>
    <g
       id="use602"
       transform="translate(1159.37,198.85699)">
      <path
         style="fill:#e6180a"
         d="M 0,0 C -2.56,0 -5.12,0 -7.68,0 c 1.11,-0.035 2.058,-0.7413 2.904,-1.393 1.495,-1.255 2.789,-2.748 3.881,-4.364 C -0.494,-6.426 -0.022,-7.135 0,-7.94 c 0.038,1.182 0.758,2.206 1.438,3.12 1.212,1.51 2.648,2.846 4.228,3.963 C 6.28,-0.474 6.932,-0.0185 7.68,0 6.57,0.035 5.622,0.741 4.776,1.392 3.281,2.648 1.987,4.141 0.895,5.757 0.494,6.426 0.0225,7.135 0,7.94 c -0.0144,-1.004 -0.545,-1.908 -1.132,-2.712 -1.168,-1.598 -2.647,-2.964 -4.226,-4.155 C -6.061,0.605 -6.8053,0.039 -7.68,0 -5.12,0 -2.56,0 0,0 Z"
         id="path737" />
    </g>
    <g
       id="use603"
       transform="matrix(-2.4,0,0,-2.4,1049.3088,44.627518)">
      <path
         style="fill:#e6180a"
         d="M 0,0 C -2.56,0 -5.12,0 -7.68,0 c 1.11,-0.035 2.058,-0.7413 2.904,-1.393 1.495,-1.255 2.789,-2.748 3.881,-4.364 C -0.494,-6.426 -0.022,-7.135 0,-7.94 c 0.038,1.182 0.758,2.206 1.438,3.12 1.212,1.51 2.648,2.846 4.228,3.963 C 6.28,-0.474 6.932,-0.0185 7.68,0 6.57,0.035 5.622,0.741 4.776,1.392 3.281,2.648 1.987,4.141 0.895,5.757 0.494,6.426 0.0225,7.135 0,7.94 c -0.0144,-1.004 -0.545,-1.908 -1.132,-2.712 -1.168,-1.598 -2.647,-2.964 -4.226,-4.155 C -6.061,0.605 -6.8053,0.039 -7.68,0 -5.12,0 -2.56,0 0,0 Z"
         id="path738" />
    </g>
    <g
       id="use604"
       transform="matrix(-2.4,0,0,-2.4,1049.3088,121.56864)">
      <path
         style="fill:#e6180a"
         d="M 0,0 C -2.56,0 -5.12,0 -7.68,0 c 1.11,-0.035 2.058,-0.7413 2.904,-1.393 1.495,-1.255 2.789,-2.748 3.881,-4.364 C -0.494,-6.426 -0.022,-7.135 0,-7.94 c 0.038,1.182 0.758,2.206 1.438,3.12 1.212,1.51 2.648,2.846 4.228,3.963 C 6.28,-0.474 6.932,-0.0185 7.68,0 6.57,0.035 5.622,0.741 4.776,1.392 3.281,2.648 1.987,4.141 0.895,5.757 0.494,6.426 0.0225,7.135 0,7.94 c -0.0144,-1.004 -0.545,-1.908 -1.132,-2.712 -1.168,-1.598 -2.647,-2.964 -4.226,-4.155 C -6.061,0.605 -6.8053,0.039 -7.68,0 -5.12,0 -2.56,0 0,0 Z"
         id="path739" />
    </g>
    <g
       id="use605"
       transform="matrix(2.4,0,0,2.4,1049.3088,208.09991)">
      <path
         style="fill:#e6180a"
         d="M 0,0 C -2.56,0 -5.12,0 -7.68,0 c 1.11,-0.035 2.058,-0.7413 2.904,-1.393 1.495,-1.255 2.789,-2.748 3.881,-4.364 C -0.494,-6.426 -0.022,-7.135 0,-7.94 c 0.038,1.182 0.758,2.206 1.438,3.12 1.212,1.51 2.648,2.846 4.228,3.963 C 6.28,-0.474 6.932,-0.0185 7.68,0 6.57,0.035 5.622,0.741 4.776,1.392 3.281,2.648 1.987,4.141 0.895,5.757 0.494,6.426 0.0225,7.135 0,7.94 c -0.0144,-1.004 -0.545,-1.908 -1.132,-2.712 -1.168,-1.598 -2.647,-2.964 -4.226,-4.155 C -6.061,0.605 -6.8053,0.039 -7.68,0 -5.12,0 -2.56,0 0,0 Z"
         id="path740" />
    </g>
    <g
       id="use606"
       transform="matrix(-2.4,0,0,-2.4,1129.1664,44.627518)">
      <path
         style="fill:#e6180a"
         d="M 0,0 C -2.56,0 -5.12,0 -7.68,0 c 1.11,-0.035 2.058,-0.7413 2.904,-1.393 1.495,-1.255 2.789,-2.748 3.881,-4.364 C -0.494,-6.426 -0.022,-7.135 0,-7.94 c 0.038,1.182 0.758,2.206 1.438,3.12 1.212,1.51 2.648,2.846 4.228,3.963 C 6.28,-0.474 6.932,-0.0185 7.68,0 6.57,0.035 5.622,0.741 4.776,1.392 3.281,2.648 1.987,4.141 0.895,5.757 0.494,6.426 0.0225,7.135 0,7.94 c -0.0144,-1.004 -0.545,-1.908 -1.132,-2.712 -1.168,-1.598 -2.647,-2.964 -4.226,-4.155 C -6.061,0.605 -6.8053,0.039 -7.68,0 -5.12,0 -2.56,0 0,0 Z"
         id="path741" />
    </g>
    <g
       id="use607"
       transform="matrix(-2.4,0,0,-2.4,1129.1664,121.56864)">
      <path
         style="fill:#e6180a"
         d="M 0,0 C -2.56,0 -5.12,0 -7.68,0 c 1.11,-0.035 2.058,-0.7413 2.904,-1.393 1.495,-1.255 2.789,-2.748 3.881,-4.364 C -0.494,-6.426 -0.022,-7.135 0,-7.94 c 0.038,1.182 0.758,2.206 1.438,3.12 1.212,1.51 2.648,2.846 4.228,3.963 C 6.28,-0.474 6.932,-0.0185 7.68,0 6.57,0.035 5.622,0.741 4.776,1.392 3.281,2.648 1.987,4.141 0.895,5.757 0.494,6.426 0.0225,7.135 0,7.94 c -0.0144,-1.004 -0.545,-1.908 -1.132,-2.712 -1.168,-1.598 -2.647,-2.964 -4.226,-4.155 C -6.061,0.605 -6.8053,0.039 -7.68,0 -5.12,0 -2.56,0 0,0 Z"
         id="path742" />
    </g>
    <g
       id="use608"
       transform="matrix(2.4,0,0,2.4,1129.1664,208.09991)">
      <path
         style="fill:#e6180a"
         d="M 0,0 C -2.56,0 -5.12,0 -7.68,0 c 1.11,-0.035 2.058,-0.7413 2.904,-1.393 1.495,-1.255 2.789,-2.748 3.881,-4.364 C -0.494,-6.426 -0.022,-7.135 0,-7.94 c 0.038,1.182 0.758,2.206 1.438,3.12 1.212,1.51 2.648,2.846 4.228,3.963 C 6.28,-0.474 6.932,-0.0185 7.68,0 6.57,0.035 5.622,0.741 4.776,1.392 3.281,2.648 1.987,4.141 0.895,5.757 0.494,6.426 0.0225,7.135 0,7.94 c -0.0144,-1.004 -0.545,-1.908 -1.132,-2.712 -1.168,-1.598 -2.647,-2.964 -4.226,-4.155 C -6.061,0.605 -6.8053,0.039 -7.68,0 -5.12,0 -2.56,0 0,0 Z"
         id="path743" />
    </g>
    <g
       id="use609"
       transform="matrix(-2.4,0,0,-2.4,1089.2376,98.783758)">
      <path
         style="fill:#e6180a"
         d="M 0,0 C -2.56,0 -5.12,0 -7.68,0 c 1.11,-0.035 2.058,-0.7413 2.904,-1.393 1.495,-1.255 2.789,-2.748 3.881,-4.364 C -0.494,-6.426 -0.022,-7.135 0,-7.94 c 0.038,1.182 0.758,2.206 1.438,3.12 1.212,1.51 2.648,2.846 4.228,3.963 C 6.28,-0.474 6.932,-0.0185 7.68,0 6.57,0.035 5.622,0.741 4.776,1.392 3.281,2.648 1.987,4.141 0.895,5.757 0.494,6.426 0.0225,7.135 0,7.94 c -0.0144,-1.004 -0.545,-1.908 -1.132,-2.712 -1.168,-1.598 -2.647,-2.964 -4.226,-4.155 C -6.061,0.605 -6.8053,0.039 -7.68,0 -5.12,0 -2.56,0 0,0 Z"
         id="path744" />
    </g>
  </g>
</svg>
