<?xml version="1.0" encoding="UTF-8" standalone="no"?>
<!-- Created with Inkscape (http://www.inkscape.org/) -->

<svg
   width="44.717796mm"
   height="64.703606mm"
   viewBox="0 0 44.717796 64.703606"
   version="1.1"
   id="svg1"
   inkscape:version="1.4 (86a8ad7, 2024-10-11)"
   sodipodi:docname="carreau-9.svg"
   xmlns:inkscape="http://www.inkscape.org/namespaces/inkscape"
   xmlns:sodipodi="http://sodipodi.sourceforge.net/DTD/sodipodi-0.dtd"
   xmlns="http://www.w3.org/2000/svg"
   xmlns:svg="http://www.w3.org/2000/svg">
  <sodipodi:namedview
     id="namedview1"
     pagecolor="#ffffff"
     bordercolor="#000000"
     borderopacity="0.25"
     inkscape:showpageshadow="2"
     inkscape:pageopacity="0.0"
     inkscape:pagecheckerboard="0"
     inkscape:deskcolor="#d1d1d1"
     inkscape:document-units="mm"
     inkscape:zoom="3.1233305"
     inkscape:cx="82.283959"
     inkscape:cy="129.66927"
     inkscape:window-width="1712"
     inkscape:window-height="1735"
     inkscape:window-x="1912"
     inkscape:window-y="147"
     inkscape:window-maximized="0"
     inkscape:current-layer="use625" />
  <defs
     id="defs1" />
  <g
     id="9_diamond"
     transform="matrix(0.26448497,0,0,0.26448497,-354.23794,-1.7500944)">
    <g
       id="use623"
       transform="translate(1340.6,243.13699)">
      <path
         style="fill:#ffffff;stroke:#000000;stroke-width:2.5"
         d="m 0,0 c 0,3.78 3.09,6.87 6.87,6.87 h 152.845 c 3.77,0 6.86,-3.09 6.86,-6.87 v -228.4 c 0,-3.78 -3.09,-6.87 -6.86,-6.87 H 6.87 c -3.78,0 -6.87,3.09 -6.87,6.87 z"
         id="path760" />
    </g>
    <g
       id="use624"
       style="fill:#e6180a"
       transform="translate(1344.6,44.02)">
      <path
         d="M 1.3227539,0.58789062 V 0 q 3.4853516,-0.79785156 5.8999023,-2.3515625 2.4355469,-1.5537109 3.8422848,-3.8422852 1.427735,-2.2885742 1.994629,-5.2700193 -1.301757,0.671875 -2.225586,0.944824 -0.9028317,0.251953 -1.9106442,0.251953 -3.2333984,0 -5.395996,-2.330566 -2.1416016,-2.330567 -2.1416016,-6.382813 0,-2.813476 1.1547851,-5.144043 1.1757813,-2.351562 3.3383789,-3.632324 2.1625977,-1.301758 4.4931638,-1.301758 2.498535,0 4.724121,1.427735 2.225586,1.427734 3.54834,4.13623 1.322754,2.708496 1.322754,6.172852 0,4.493164 -2.162598,8.6083981 -2.141601,4.1152344 -6.403808,6.6137695 Q 7.1386719,0.37792969 1.3227539,0.58789062 Z M 13.374512,-13.227539 q 0.209961,-2.351563 0.209961,-4.136231 0,-3.821289 -0.881836,-7.117675 -0.503907,-1.82666 -1.490723,-2.6875 -0.524902,-0.461914 -1.364746,-0.461914 -1.0498047,0 -1.6376953,0.902832 -0.8188477,1.238769 -0.8188477,4.724121 0,5.815918 1.3857422,8.020508 0.902832,1.427734 2.4355468,1.427734 0.818848,0 2.162598,-0.671875 z"
         id="text762"
         style="font-weight:bold;font-size:43px;font-family:'Bitstream Vera Serif'"
         transform="scale(0.56453,1.05741)"
         aria-label="9" />
    </g>
    <g
       id="use625"
       style="fill:#e6180a"
       transform="rotate(180,752.08498,106.4285)">
      <path
         d="M 1.3227539,0.58789062 V 0 q 3.4853516,-0.79785156 5.8999023,-2.3515625 2.4355469,-1.5537109 3.8422848,-3.8422852 1.427735,-2.2885742 1.994629,-5.2700193 -1.301757,0.671875 -2.225586,0.944824 -0.9028317,0.251953 -1.9106442,0.251953 -3.2333984,0 -5.395996,-2.330566 -2.1416016,-2.330567 -2.1416016,-6.382813 0,-2.813476 1.1547851,-5.144043 1.1757813,-2.351562 3.3383789,-3.632324 2.1625977,-1.301758 4.4931638,-1.301758 2.498535,0 4.724121,1.427735 2.225586,1.427734 3.54834,4.13623 1.322754,2.708496 1.322754,6.172852 0,4.493164 -2.162598,8.6083981 -2.141601,4.1152344 -6.403808,6.6137695 Q 7.1386719,0.37792969 1.3227539,0.58789062 Z M 13.374512,-13.227539 q 0.209961,-2.351563 0.209961,-4.136231 0,-3.821289 -0.881836,-7.117675 -0.503907,-1.82666 -1.490723,-2.6875 -0.524902,-0.461914 -1.364746,-0.461914 -1.0498047,0 -1.6376953,0.902832 -0.8188477,1.238769 -0.8188477,4.724121 0,5.815918 1.3857422,8.020508 0.902832,1.427734 2.4355468,1.427734 0.818848,0 2.162598,-0.671875 z"
         id="text763"
         style="font-weight:bold;font-size:43px;font-family:'Bitstream Vera Serif'"
         transform="scale(0.56453,1.05741)"
         aria-label="9" />
    </g>
    <g
       id="use626"
       transform="rotate(180,677.125,29.01)">
      <path
         style="fill:#e6180a"
         d="m 0,0 c -2.56,0 -5.12,0 -7.68,0 0.8747,0.039 1.619,0.605 2.322,1.0728 C -3.779,2.264 -2.3,3.63 -1.132,5.228 -0.587,6.032 -0.0144,6.936 0,7.94 M -7.68,0 c 1.11,-0.035 2.058,-0.7413 2.904,-1.393 1.495,-1.255 2.789,-2.748 3.881,-4.364 C -0.494,-6.426 -0.022,-7.135 0,-7.94 0,-5.293 0,-2.647 0,0 m 0,-7.94 c 0.038,1.182 0.758,2.206 1.438,3.12 1.212,1.51 2.648,2.846 4.228,3.963 C 6.28,-0.474 6.932,-0.0185 7.68,0 5.12,0 2.56,0 0,0 M 7.68,0 C 6.57,0.035 5.622,0.741 4.776,1.392 3.281,2.648 1.987,4.141 0.895,5.757 0.494,6.426 0.0225,7.135 0,7.94 0,5.293 0,2.647 0,0"
         id="path763" />
    </g>
    <g
       id="use627"
       transform="translate(1494.52,198.85699)">
      <path
         style="fill:#e6180a"
         d="m 0,0 c -2.56,0 -5.12,0 -7.68,0 0.8747,0.039 1.619,0.605 2.322,1.0728 C -3.779,2.264 -2.3,3.63 -1.132,5.228 -0.587,6.032 -0.0144,6.936 0,7.94 M -7.68,0 c 1.11,-0.035 2.058,-0.7413 2.904,-1.393 1.495,-1.255 2.789,-2.748 3.881,-4.364 C -0.494,-6.426 -0.022,-7.135 0,-7.94 0,-5.293 0,-2.647 0,0 m 0,-7.94 c 0.038,1.182 0.758,2.206 1.438,3.12 1.212,1.51 2.648,2.846 4.228,3.963 C 6.28,-0.474 6.932,-0.0185 7.68,0 5.12,0 2.56,0 0,0 M 7.68,0 C 6.57,0.035 5.622,0.741 4.776,1.392 3.281,2.648 1.987,4.141 0.895,5.757 0.494,6.426 0.0225,7.135 0,7.94 0,5.293 0,2.647 0,0"
         id="path764" />
    </g>
    <g
       id="use628"
       transform="matrix(-2.4,0,0,-2.4,1384.4593,44.627518)">
      <path
         style="fill:#e6180a"
         d="m 0,0 c -2.56,0 -5.12,0 -7.68,0 0.8747,0.039 1.619,0.605 2.322,1.0728 C -3.779,2.264 -2.3,3.63 -1.132,5.228 -0.587,6.032 -0.0144,6.936 0,7.94 M -7.68,0 c 1.11,-0.035 2.058,-0.7413 2.904,-1.393 1.495,-1.255 2.789,-2.748 3.881,-4.364 C -0.494,-6.426 -0.022,-7.135 0,-7.94 0,-5.293 0,-2.647 0,0 m 0,-7.94 c 0.038,1.182 0.758,2.206 1.438,3.12 1.212,1.51 2.648,2.846 4.228,3.963 C 6.28,-0.474 6.932,-0.0185 7.68,0 5.12,0 2.56,0 0,0 M 7.68,0 C 6.57,0.035 5.622,0.741 4.776,1.392 3.281,2.648 1.987,4.141 0.895,5.757 0.494,6.426 0.0225,7.135 0,7.94 0,5.293 0,2.647 0,0"
         id="path765" />
    </g>
    <g
       id="use629"
       transform="matrix(-2.4,0,0,-2.4,1384.4593,98.783758)">
      <path
         style="fill:#e6180a"
         d="m 0,0 c -2.56,0 -5.12,0 -7.68,0 0.8747,0.039 1.619,0.605 2.322,1.0728 C -3.779,2.264 -2.3,3.63 -1.132,5.228 -0.587,6.032 -0.0144,6.936 0,7.94 M -7.68,0 c 1.11,-0.035 2.058,-0.7413 2.904,-1.393 1.495,-1.255 2.789,-2.748 3.881,-4.364 C -0.494,-6.426 -0.022,-7.135 0,-7.94 0,-5.293 0,-2.647 0,0 m 0,-7.94 c 0.038,1.182 0.758,2.206 1.438,3.12 1.212,1.51 2.648,2.846 4.228,3.963 C 6.28,-0.474 6.932,-0.0185 7.68,0 5.12,0 2.56,0 0,0 M 7.68,0 C 6.57,0.035 5.622,0.741 4.776,1.392 3.281,2.648 1.987,4.141 0.895,5.757 0.494,6.426 0.0225,7.135 0,7.94 0,5.293 0,2.647 0,0"
         id="path766" />
    </g>
    <g
       id="use630"
       transform="matrix(2.4,0,0,2.4,1384.4591,153.94369)">
      <path
         style="fill:#e6180a"
         d="m 0,0 c -2.56,0 -5.12,0 -7.68,0 0.8747,0.039 1.619,0.605 2.322,1.0728 C -3.779,2.264 -2.3,3.63 -1.132,5.228 -0.587,6.032 -0.0144,6.936 0,7.94 M -7.68,0 c 1.11,-0.035 2.058,-0.7413 2.904,-1.393 1.495,-1.255 2.789,-2.748 3.881,-4.364 C -0.494,-6.426 -0.022,-7.135 0,-7.94 0,-5.293 0,-2.647 0,0 m 0,-7.94 c 0.038,1.182 0.758,2.206 1.438,3.12 1.212,1.51 2.648,2.846 4.228,3.963 C 6.28,-0.474 6.932,-0.0185 7.68,0 5.12,0 2.56,0 0,0 M 7.68,0 C 6.57,0.035 5.622,0.741 4.776,1.392 3.281,2.648 1.987,4.141 0.895,5.757 0.494,6.426 0.0225,7.135 0,7.94 0,5.293 0,2.647 0,0"
         id="path767" />
    </g>
    <g
       id="use631"
       transform="matrix(2.4,0,0,2.4,1384.4591,208.09991)">
      <path
         style="fill:#e6180a"
         d="m 0,0 c -2.56,0 -5.12,0 -7.68,0 0.8747,0.039 1.619,0.605 2.322,1.0728 C -3.779,2.264 -2.3,3.63 -1.132,5.228 -0.587,6.032 -0.0144,6.936 0,7.94 M -7.68,0 c 1.11,-0.035 2.058,-0.7413 2.904,-1.393 1.495,-1.255 2.789,-2.748 3.881,-4.364 C -0.494,-6.426 -0.022,-7.135 0,-7.94 0,-5.293 0,-2.647 0,0 m 0,-7.94 c 0.038,1.182 0.758,2.206 1.438,3.12 1.212,1.51 2.648,2.846 4.228,3.963 C 6.28,-0.474 6.932,-0.0185 7.68,0 5.12,0 2.56,0 0,0 M 7.68,0 C 6.57,0.035 5.622,0.741 4.776,1.392 3.281,2.648 1.987,4.141 0.895,5.757 0.494,6.426 0.0225,7.135 0,7.94 0,5.293 0,2.647 0,0"
         id="path768" />
    </g>
    <g
       id="use632"
       transform="matrix(-2.4,0,0,-2.4,1464.3168,44.627518)">
      <path
         style="fill:#e6180a"
         d="m 0,0 c -2.56,0 -5.12,0 -7.68,0 0.8747,0.039 1.619,0.605 2.322,1.0728 C -3.779,2.264 -2.3,3.63 -1.132,5.228 -0.587,6.032 -0.0144,6.936 0,7.94 M -7.68,0 c 1.11,-0.035 2.058,-0.7413 2.904,-1.393 1.495,-1.255 2.789,-2.748 3.881,-4.364 C -0.494,-6.426 -0.022,-7.135 0,-7.94 0,-5.293 0,-2.647 0,0 m 0,-7.94 c 0.038,1.182 0.758,2.206 1.438,3.12 1.212,1.51 2.648,2.846 4.228,3.963 C 6.28,-0.474 6.932,-0.0185 7.68,0 5.12,0 2.56,0 0,0 M 7.68,0 C 6.57,0.035 5.622,0.741 4.776,1.392 3.281,2.648 1.987,4.141 0.895,5.757 0.494,6.426 0.0225,7.135 0,7.94 0,5.293 0,2.647 0,0"
         id="path769" />
    </g>
    <g
       id="use633"
       transform="matrix(-2.4,0,0,-2.4,1464.3168,98.783758)">
      <path
         style="fill:#e6180a"
         d="m 0,0 c -2.56,0 -5.12,0 -7.68,0 0.8747,0.039 1.619,0.605 2.322,1.0728 C -3.779,2.264 -2.3,3.63 -1.132,5.228 -0.587,6.032 -0.0144,6.936 0,7.94 M -7.68,0 c 1.11,-0.035 2.058,-0.7413 2.904,-1.393 1.495,-1.255 2.789,-2.748 3.881,-4.364 C -0.494,-6.426 -0.022,-7.135 0,-7.94 0,-5.293 0,-2.647 0,0 m 0,-7.94 c 0.038,1.182 0.758,2.206 1.438,3.12 1.212,1.51 2.648,2.846 4.228,3.963 C 6.28,-0.474 6.932,-0.0185 7.68,0 5.12,0 2.56,0 0,0 M 7.68,0 C 6.57,0.035 5.622,0.741 4.776,1.392 3.281,2.648 1.987,4.141 0.895,5.757 0.494,6.426 0.0225,7.135 0,7.94 0,5.293 0,2.647 0,0"
         id="path770" />
    </g>
    <g
       id="use634"
       transform="matrix(2.4,0,0,2.4,1464.3168,153.94369)">
      <path
         style="fill:#e6180a"
         d="m 0,0 c -2.56,0 -5.12,0 -7.68,0 0.8747,0.039 1.619,0.605 2.322,1.0728 C -3.779,2.264 -2.3,3.63 -1.132,5.228 -0.587,6.032 -0.0144,6.936 0,7.94 M -7.68,0 c 1.11,-0.035 2.058,-0.7413 2.904,-1.393 1.495,-1.255 2.789,-2.748 3.881,-4.364 C -0.494,-6.426 -0.022,-7.135 0,-7.94 0,-5.293 0,-2.647 0,0 m 0,-7.94 c 0.038,1.182 0.758,2.206 1.438,3.12 1.212,1.51 2.648,2.846 4.228,3.963 C 6.28,-0.474 6.932,-0.0185 7.68,0 5.12,0 2.56,0 0,0 M 7.68,0 C 6.57,0.035 5.622,0.741 4.776,1.392 3.281,2.648 1.987,4.141 0.895,5.757 0.494,6.426 0.0225,7.135 0,7.94 0,5.293 0,2.647 0,0"
         id="path771" />
    </g>
    <g
       id="use635"
       transform="matrix(2.4,0,0,2.4,1464.3168,208.09991)">
      <path
         style="fill:#e6180a"
         d="m 0,0 c -2.56,0 -5.12,0 -7.68,0 0.8747,0.039 1.619,0.605 2.322,1.0728 C -3.779,2.264 -2.3,3.63 -1.132,5.228 -0.587,6.032 -0.0144,6.936 0,7.94 M -7.68,0 c 1.11,-0.035 2.058,-0.7413 2.904,-1.393 1.495,-1.255 2.789,-2.748 3.881,-4.364 C -0.494,-6.426 -0.022,-7.135 0,-7.94 0,-5.293 0,-2.647 0,0 m 0,-7.94 c 0.038,1.182 0.758,2.206 1.438,3.12 1.212,1.51 2.648,2.846 4.228,3.963 C 6.28,-0.474 6.932,-0.0185 7.68,0 5.12,0 2.56,0 0,0 M 7.68,0 C 6.57,0.035 5.622,0.741 4.776,1.392 3.281,2.648 1.987,4.141 0.895,5.757 0.494,6.426 0.0225,7.135 0,7.94 0,5.293 0,2.647 0,0"
         id="path772" />
    </g>
    <g
       id="use636"
       transform="matrix(-2.4,0,0,-2.4,1424.388,71.705519)">
      <path
         style="fill:#e6180a"
         d="m 0,0 c -2.56,0 -5.12,0 -7.68,0 0.8747,0.039 1.619,0.605 2.322,1.0728 C -3.779,2.264 -2.3,3.63 -1.132,5.228 -0.587,6.032 -0.0144,6.936 0,7.94 M -7.68,0 c 1.11,-0.035 2.058,-0.7413 2.904,-1.393 1.495,-1.255 2.789,-2.748 3.881,-4.364 C -0.494,-6.426 -0.022,-7.135 0,-7.94 0,-5.293 0,-2.647 0,0 m 0,-7.94 c 0.038,1.182 0.758,2.206 1.438,3.12 1.212,1.51 2.648,2.846 4.228,3.963 C 6.28,-0.474 6.932,-0.0185 7.68,0 5.12,0 2.56,0 0,0 M 7.68,0 C 6.57,0.035 5.622,0.741 4.776,1.392 3.281,2.648 1.987,4.141 0.895,5.757 0.494,6.426 0.0225,7.135 0,7.94 0,5.293 0,2.647 0,0"
         id="path773" />
    </g>
  </g>
</svg>
