<?xml version="1.0" encoding="UTF-8" standalone="no"?>
<!-- Created with Inkscape (http://www.inkscape.org/) -->

<svg
   width="44.717796mm"
   height="64.703606mm"
   viewBox="0 0 44.717796 64.703606"
   version="1.1"
   id="svg1"
   xmlns="http://www.w3.org/2000/svg"
   xmlns:svg="http://www.w3.org/2000/svg">
  <defs
     id="defs1" />
  <g
     id="layer1"
     transform="translate(-24.562043,-17.730551)">
    <g
       id="8_heart"
       transform="matrix(0.26448497,0,0,0.26448497,-285.35351,-48.32589)">
      <g
         id="use883"
         transform="translate(1173.02,486.27499)">
        <path
           style="fill:#ffffff;stroke:#000000;stroke-width:2.5"
           d="m 0,0 c 0,3.78 3.09,6.87 6.87,6.87 h 152.845 c 3.77,0 6.86,-3.09 6.86,-6.87 v -228.4 c 0,-3.78 -3.09,-6.87 -6.86,-6.87 H 6.87 c -3.78,0 -6.87,3.09 -6.87,6.87 z"
           id="path152" />
      </g>
      <g
         id="use884"
         style="fill:#e6180a"
         transform="translate(1177.02,287.15701)">
        <path
           d="m 14.655273,-16.083008 q 3.002442,2.20459 4.157227,4.115235 1.175781,1.889648 1.175781,4.346191 0,3.4433593 -2.603515,5.836914 -2.58252,2.37255862 -7.033692,2.37255862 -4.2202146,0 -6.5297849,-2.07861332 -2.3095704,-2.0786132 -2.3095704,-5.0810546 0,-2.2885743 1.322754,-4.0102537 1.34375,-1.72168 4.4511718,-3.149414 -3.3803711,-2.58252 -4.3461914,-4.220215 -0.9448242,-1.637695 -0.9448242,-3.800293 0,-2.855469 2.4145508,-5.018067 2.4355469,-2.183593 6.6557613,-2.183593 4.073243,0 6.256836,1.93164 2.20459,1.910645 2.20459,4.598145 0,2.015625 -1.196777,3.569336 -1.175781,1.532715 -3.674317,2.771484 z m -1.595703,-1.070801 q 0.776856,-1.049804 1.154785,-2.351562 0.37793,-1.301758 0.37793,-2.855469 0,-2.729492 -1.175781,-4.178222 -0.881836,-1.112793 -2.435547,-1.112793 -1.4067382,0 -2.3935547,1.028808 -0.9868164,1.007813 -0.9868164,2.519531 0,1.532715 1.0917969,3.191407 1.112793,1.637695 4.3671872,3.7583 z m -4.1992184,4.430176 q -0.6508789,0.587891 -0.9238282,1.070801 -0.4199218,0.734863 -0.7558593,2.1416015 -0.3359375,1.4067383 -0.3359375,2.9394532 0,1.9736328 0.5039062,3.3173828 0.5039063,1.3227539 1.4277344,1.9106445 0.9448242,0.58789063 1.9316408,0.58789063 1.532715,0 2.582519,-1.11279293 1.049805,-1.1337891 1.049805,-3.0864258 0,-4.0732422 -5.4799804,-7.7685549 z"
           id="text162"
           style="font-weight:bold;font-size:43px;font-family:'Bitstream Vera Serif'"
           transform="scale(0.56453,1.05741)"
           aria-label="8" />
      </g>
      <g
         id="use885"
         style="fill:#e6180a"
         transform="rotate(180,668.30001,227.9975)">
        <path
           d="m 14.655273,-16.083008 q 3.002442,2.20459 4.157227,4.115235 1.175781,1.889648 1.175781,4.346191 0,3.4433593 -2.603515,5.836914 -2.58252,2.37255862 -7.033692,2.37255862 -4.2202146,0 -6.5297849,-2.07861332 -2.3095704,-2.0786132 -2.3095704,-5.0810546 0,-2.2885743 1.322754,-4.0102537 1.34375,-1.72168 4.4511718,-3.149414 -3.3803711,-2.58252 -4.3461914,-4.220215 -0.9448242,-1.637695 -0.9448242,-3.800293 0,-2.855469 2.4145508,-5.018067 2.4355469,-2.183593 6.6557613,-2.183593 4.073243,0 6.256836,1.93164 2.20459,1.910645 2.20459,4.598145 0,2.015625 -1.196777,3.569336 -1.175781,1.532715 -3.674317,2.771484 z m -1.595703,-1.070801 q 0.776856,-1.049804 1.154785,-2.351562 0.37793,-1.301758 0.37793,-2.855469 0,-2.729492 -1.175781,-4.178222 -0.881836,-1.112793 -2.435547,-1.112793 -1.4067382,0 -2.3935547,1.028808 -0.9868164,1.007813 -0.9868164,2.519531 0,1.532715 1.0917969,3.191407 1.112793,1.637695 4.3671872,3.7583 z m -4.1992184,4.430176 q -0.6508789,0.587891 -0.9238282,1.070801 -0.4199218,0.734863 -0.7558593,2.1416015 -0.3359375,1.4067383 -0.3359375,2.9394532 0,1.9736328 0.5039062,3.3173828 0.5039063,1.3227539 1.4277344,1.9106445 0.9448242,0.58789063 1.9316408,0.58789063 1.532715,0 2.582519,-1.11279293 1.049805,-1.1337891 1.049805,-3.0864258 0,-4.0732422 -5.4799804,-7.7685549 z"
           id="text163"
           style="font-weight:bold;font-size:43px;font-family:'Bitstream Vera Serif'"
           transform="scale(0.56453,1.05741)"
           aria-label="8" />
      </g>
      <g
         id="use886"
         transform="rotate(180,593.33498,150.57849)">
        <path
           style="fill:#e6180a"
           d="m -7.67,3.93 c 0.01,-4.71 5.91,-8.14 7.64,-11.87 1.75,3.72 7.66,7.12 7.7,11.83 C 7.68,6.11 5.96,7.92 3.85,7.92 1.73,7.92 0,6.13 0,3.91 0,6.14 -1.71,7.94 -3.82,7.94 -5.94,7.95 -7.66,6.15 -7.67,3.93 Z"
           id="path153" />
      </g>
      <g
         id="use887"
         transform="translate(1326.95,441.995)">
        <path
           style="fill:#e6180a"
           d="m -7.67,3.93 c 0.01,-4.71 5.91,-8.14 7.64,-11.87 1.75,3.72 7.66,7.12 7.7,11.83 C 7.68,6.11 5.96,7.92 3.85,7.92 1.73,7.92 0,6.13 0,3.91 0,6.14 -1.71,7.94 -3.82,7.94 -5.94,7.95 -7.66,6.15 -7.67,3.93 Z"
           id="path154" />
      </g>
      <g
         id="use888"
         transform="matrix(-2.4,0,0,-2.4,1216.884,287.7648)">
        <path
           style="fill:#e6180a"
           d="m -7.67,3.93 c 0.01,-4.71 5.91,-8.14 7.64,-11.87 1.75,3.72 7.66,7.12 7.7,11.83 C 7.68,6.11 5.96,7.92 3.85,7.92 1.73,7.92 0,6.13 0,3.91 0,6.14 -1.71,7.94 -3.82,7.94 -5.94,7.95 -7.66,6.15 -7.67,3.93 Z"
           id="path155" />
      </g>
      <g
         id="use889"
         transform="matrix(-2.4,0,0,-2.4,1216.884,341.92081)">
        <path
           style="fill:#e6180a"
           d="m -7.67,3.93 c 0.01,-4.71 5.91,-8.14 7.64,-11.87 1.75,3.72 7.66,7.12 7.7,11.83 C 7.68,6.11 5.96,7.92 3.85,7.92 1.73,7.92 0,6.13 0,3.91 0,6.14 -1.71,7.94 -3.82,7.94 -5.94,7.95 -7.66,6.15 -7.67,3.93 Z"
           id="path156" />
      </g>
      <g
         id="use890"
         transform="matrix(2.4,0,0,2.4,1216.884,397.08241)">
        <path
           style="fill:#e6180a"
           d="m -7.67,3.93 c 0.01,-4.71 5.91,-8.14 7.64,-11.87 1.75,3.72 7.66,7.12 7.7,11.83 C 7.68,6.11 5.96,7.92 3.85,7.92 1.73,7.92 0,6.13 0,3.91 0,6.14 -1.71,7.94 -3.82,7.94 -5.94,7.95 -7.66,6.15 -7.67,3.93 Z"
           id="path157" />
      </g>
      <g
         id="use891"
         transform="matrix(2.4,0,0,2.4,1216.884,451.23842)">
        <path
           style="fill:#e6180a"
           d="m -7.67,3.93 c 0.01,-4.71 5.91,-8.14 7.64,-11.87 1.75,3.72 7.66,7.12 7.7,11.83 C 7.68,6.11 5.96,7.92 3.85,7.92 1.73,7.92 0,6.13 0,3.91 0,6.14 -1.71,7.94 -3.82,7.94 -5.94,7.95 -7.66,6.15 -7.67,3.93 Z"
           id="path158" />
      </g>
      <g
         id="use892"
         transform="matrix(-2.4,0,0,-2.4,1296.7415,287.7648)">
        <path
           style="fill:#e6180a"
           d="m -7.67,3.93 c 0.01,-4.71 5.91,-8.14 7.64,-11.87 1.75,3.72 7.66,7.12 7.7,11.83 C 7.68,6.11 5.96,7.92 3.85,7.92 1.73,7.92 0,6.13 0,3.91 0,6.14 -1.71,7.94 -3.82,7.94 -5.94,7.95 -7.66,6.15 -7.67,3.93 Z"
           id="path159" />
      </g>
      <g
         id="use893"
         transform="matrix(-2.4,0,0,-2.4,1296.7415,341.92081)">
        <path
           style="fill:#e6180a"
           d="m -7.67,3.93 c 0.01,-4.71 5.91,-8.14 7.64,-11.87 1.75,3.72 7.66,7.12 7.7,11.83 C 7.68,6.11 5.96,7.92 3.85,7.92 1.73,7.92 0,6.13 0,3.91 0,6.14 -1.71,7.94 -3.82,7.94 -5.94,7.95 -7.66,6.15 -7.67,3.93 Z"
           id="path160" />
      </g>
      <g
         id="use894"
         transform="matrix(2.4,0,0,2.4,1296.7417,397.08241)">
        <path
           style="fill:#e6180a"
           d="m -7.67,3.93 c 0.01,-4.71 5.91,-8.14 7.64,-11.87 1.75,3.72 7.66,7.12 7.7,11.83 C 7.68,6.11 5.96,7.92 3.85,7.92 1.73,7.92 0,6.13 0,3.91 0,6.14 -1.71,7.94 -3.82,7.94 -5.94,7.95 -7.66,6.15 -7.67,3.93 Z"
           id="path161" />
      </g>
      <g
         id="use895"
         transform="matrix(2.4,0,0,2.4,1296.7417,451.23842)">
        <path
           style="fill:#e6180a"
           d="m -7.67,3.93 c 0.01,-4.71 5.91,-8.14 7.64,-11.87 1.75,3.72 7.66,7.12 7.7,11.83 C 7.68,6.11 5.96,7.92 3.85,7.92 1.73,7.92 0,6.13 0,3.91 0,6.14 -1.71,7.94 -3.82,7.94 -5.94,7.95 -7.66,6.15 -7.67,3.93 Z"
           id="path162" />
      </g>
    </g>
  </g>
</svg>
