<?xml version="1.0" encoding="UTF-8" standalone="no"?>
<!-- Created with Inkscape (http://www.inkscape.org/) -->

<svg
   width="44.717796mm"
   height="64.703606mm"
   viewBox="0 0 44.717796 64.703606"
   version="1.1"
   id="svg1"
   xmlns="http://www.w3.org/2000/svg"
   xmlns:svg="http://www.w3.org/2000/svg">
  <defs
     id="defs1" />
  <g
     id="layer1"
     transform="translate(-51.408175,-88.427101)">
    <g
       id="9_heart"
       transform="matrix(0.26448497,0,0,0.26448497,-302.82977,22.37066)">
      <g
         id="use896"
         transform="translate(1340.6,486.27499)">
        <path
           style="fill:#ffffff;stroke:#000000;stroke-width:2.5"
           d="m 0,0 c 0,3.78 3.09,6.87 6.87,6.87 h 152.845 c 3.77,0 6.86,-3.09 6.86,-6.87 v -228.4 c 0,-3.78 -3.09,-6.87 -6.86,-6.87 H 6.87 c -3.78,0 -6.87,3.09 -6.87,6.87 z"
           id="path141" />
      </g>
      <g
         id="use897"
         style="fill:#e6180a"
         transform="translate(1344.6,287.15701)">
        <path
           d="M 1.3227539,0.58789062 V 0 q 3.4853516,-0.79785156 5.8999023,-2.3515625 2.4355469,-1.5537109 3.8422848,-3.8422852 1.427735,-2.2885742 1.994629,-5.2700193 -1.301757,0.671875 -2.225586,0.944824 -0.9028317,0.251953 -1.9106442,0.251953 -3.2333984,0 -5.395996,-2.330566 -2.1416016,-2.330567 -2.1416016,-6.382813 0,-2.813476 1.1547851,-5.144043 1.1757813,-2.351562 3.3383789,-3.632324 2.1625977,-1.301758 4.4931638,-1.301758 2.498535,0 4.724121,1.427735 2.225586,1.427734 3.54834,4.13623 1.322754,2.708496 1.322754,6.172852 0,4.493164 -2.162598,8.6083981 -2.141601,4.1152344 -6.403808,6.6137695 Q 7.1386719,0.37792969 1.3227539,0.58789062 Z M 13.374512,-13.227539 q 0.209961,-2.351563 0.209961,-4.136231 0,-3.821289 -0.881836,-7.117675 -0.503907,-1.82666 -1.490723,-2.6875 -0.524902,-0.461914 -1.364746,-0.461914 -1.0498047,0 -1.6376953,0.902832 -0.8188477,1.238769 -0.8188477,4.724121 0,5.815918 1.3857422,8.020508 0.902832,1.427734 2.4355468,1.427734 0.818848,0 2.162598,-0.671875 z"
           id="text140"
           style="font-weight:bold;font-size:43px;font-family:'Bitstream Vera Serif'"
           transform="scale(0.56453,1.05741)"
           aria-label="9" />
      </g>
      <g
         id="use898"
         style="fill:#e6180a"
         transform="rotate(180,752.08498,227.9975)">
        <path
           d="M 1.3227539,0.58789062 V 0 q 3.4853516,-0.79785156 5.8999023,-2.3515625 2.4355469,-1.5537109 3.8422848,-3.8422852 1.427735,-2.2885742 1.994629,-5.2700193 -1.301757,0.671875 -2.225586,0.944824 -0.9028317,0.251953 -1.9106442,0.251953 -3.2333984,0 -5.395996,-2.330566 -2.1416016,-2.330567 -2.1416016,-6.382813 0,-2.813476 1.1547851,-5.144043 1.1757813,-2.351562 3.3383789,-3.632324 2.1625977,-1.301758 4.4931638,-1.301758 2.498535,0 4.724121,1.427735 2.225586,1.427734 3.54834,4.13623 1.322754,2.708496 1.322754,6.172852 0,4.493164 -2.162598,8.6083981 -2.141601,4.1152344 -6.403808,6.6137695 Q 7.1386719,0.37792969 1.3227539,0.58789062 Z M 13.374512,-13.227539 q 0.209961,-2.351563 0.209961,-4.136231 0,-3.821289 -0.881836,-7.117675 -0.503907,-1.82666 -1.490723,-2.6875 -0.524902,-0.461914 -1.364746,-0.461914 -1.0498047,0 -1.6376953,0.902832 -0.8188477,1.238769 -0.8188477,4.724121 0,5.815918 1.3857422,8.020508 0.902832,1.427734 2.4355468,1.427734 0.818848,0 2.162598,-0.671875 z"
           id="text141"
           style="font-weight:bold;font-size:43px;font-family:'Bitstream Vera Serif'"
           transform="scale(0.56453,1.05741)"
           aria-label="9" />
      </g>
      <g
         id="use899"
         transform="rotate(180,677.125,150.57849)">
        <path
           style="fill:#e6180a"
           d="m -7.67,3.93 c 0.01,-4.71 5.91,-8.14 7.64,-11.87 1.75,3.72 7.66,7.12 7.7,11.83 C 7.68,6.11 5.96,7.92 3.85,7.92 1.73,7.92 0,6.13 0,3.91 0,6.14 -1.71,7.94 -3.82,7.94 -5.94,7.95 -7.66,6.15 -7.67,3.93 Z"
           id="path142" />
      </g>
      <g
         id="use900"
         transform="translate(1494.52,441.995)">
        <path
           style="fill:#e6180a"
           d="m -7.67,3.93 c 0.01,-4.71 5.91,-8.14 7.64,-11.87 1.75,3.72 7.66,7.12 7.7,11.83 C 7.68,6.11 5.96,7.92 3.85,7.92 1.73,7.92 0,6.13 0,3.91 0,6.14 -1.71,7.94 -3.82,7.94 -5.94,7.95 -7.66,6.15 -7.67,3.93 Z"
           id="path143" />
      </g>
      <g
         id="use901"
         transform="matrix(-2.4,0,0,-2.4,1384.4593,287.7648)">
        <path
           style="fill:#e6180a"
           d="m -7.67,3.93 c 0.01,-4.71 5.91,-8.14 7.64,-11.87 1.75,3.72 7.66,7.12 7.7,11.83 C 7.68,6.11 5.96,7.92 3.85,7.92 1.73,7.92 0,6.13 0,3.91 0,6.14 -1.71,7.94 -3.82,7.94 -5.94,7.95 -7.66,6.15 -7.67,3.93 Z"
           id="path144" />
      </g>
      <g
         id="use902"
         transform="matrix(-2.4,0,0,-2.4,1384.4593,341.92081)">
        <path
           style="fill:#e6180a"
           d="m -7.67,3.93 c 0.01,-4.71 5.91,-8.14 7.64,-11.87 1.75,3.72 7.66,7.12 7.7,11.83 C 7.68,6.11 5.96,7.92 3.85,7.92 1.73,7.92 0,6.13 0,3.91 0,6.14 -1.71,7.94 -3.82,7.94 -5.94,7.95 -7.66,6.15 -7.67,3.93 Z"
           id="path145" />
      </g>
      <g
         id="use903"
         transform="matrix(2.4,0,0,2.4,1384.4591,397.08241)">
        <path
           style="fill:#e6180a"
           d="m -7.67,3.93 c 0.01,-4.71 5.91,-8.14 7.64,-11.87 1.75,3.72 7.66,7.12 7.7,11.83 C 7.68,6.11 5.96,7.92 3.85,7.92 1.73,7.92 0,6.13 0,3.91 0,6.14 -1.71,7.94 -3.82,7.94 -5.94,7.95 -7.66,6.15 -7.67,3.93 Z"
           id="path146" />
      </g>
      <g
         id="use904"
         transform="matrix(2.4,0,0,2.4,1384.4591,451.23842)">
        <path
           style="fill:#e6180a"
           d="m -7.67,3.93 c 0.01,-4.71 5.91,-8.14 7.64,-11.87 1.75,3.72 7.66,7.12 7.7,11.83 C 7.68,6.11 5.96,7.92 3.85,7.92 1.73,7.92 0,6.13 0,3.91 0,6.14 -1.71,7.94 -3.82,7.94 -5.94,7.95 -7.66,6.15 -7.67,3.93 Z"
           id="path147" />
      </g>
      <g
         id="use905"
         transform="matrix(-2.4,0,0,-2.4,1464.3168,287.7648)">
        <path
           style="fill:#e6180a"
           d="m -7.67,3.93 c 0.01,-4.71 5.91,-8.14 7.64,-11.87 1.75,3.72 7.66,7.12 7.7,11.83 C 7.68,6.11 5.96,7.92 3.85,7.92 1.73,7.92 0,6.13 0,3.91 0,6.14 -1.71,7.94 -3.82,7.94 -5.94,7.95 -7.66,6.15 -7.67,3.93 Z"
           id="path148" />
      </g>
      <g
         id="use906"
         transform="matrix(-2.4,0,0,-2.4,1464.3168,341.92081)">
        <path
           style="fill:#e6180a"
           d="m -7.67,3.93 c 0.01,-4.71 5.91,-8.14 7.64,-11.87 1.75,3.72 7.66,7.12 7.7,11.83 C 7.68,6.11 5.96,7.92 3.85,7.92 1.73,7.92 0,6.13 0,3.91 0,6.14 -1.71,7.94 -3.82,7.94 -5.94,7.95 -7.66,6.15 -7.67,3.93 Z"
           id="path149" />
      </g>
      <g
         id="use907"
         transform="matrix(2.4,0,0,2.4,1464.3168,397.08241)">
        <path
           style="fill:#e6180a"
           d="m -7.67,3.93 c 0.01,-4.71 5.91,-8.14 7.64,-11.87 1.75,3.72 7.66,7.12 7.7,11.83 C 7.68,6.11 5.96,7.92 3.85,7.92 1.73,7.92 0,6.13 0,3.91 0,6.14 -1.71,7.94 -3.82,7.94 -5.94,7.95 -7.66,6.15 -7.67,3.93 Z"
           id="path150" />
      </g>
      <g
         id="use908"
         transform="matrix(2.4,0,0,2.4,1464.3168,451.23842)">
        <path
           style="fill:#e6180a"
           d="m -7.67,3.93 c 0.01,-4.71 5.91,-8.14 7.64,-11.87 1.75,3.72 7.66,7.12 7.7,11.83 C 7.68,6.11 5.96,7.92 3.85,7.92 1.73,7.92 0,6.13 0,3.91 0,6.14 -1.71,7.94 -3.82,7.94 -5.94,7.95 -7.66,6.15 -7.67,3.93 Z"
           id="path151" />
      </g>
      <g
         id="use909"
         transform="matrix(-2.4,0,0,-2.4,1424.388,314.84401)">
        <path
           style="fill:#e6180a"
           d="m -7.67,3.93 c 0.01,-4.71 5.91,-8.14 7.64,-11.87 1.75,3.72 7.66,7.12 7.7,11.83 C 7.68,6.11 5.96,7.92 3.85,7.92 1.73,7.92 0,6.13 0,3.91 0,6.14 -1.71,7.94 -3.82,7.94 -5.94,7.95 -7.66,6.15 -7.67,3.93 Z"
           id="path152" />
      </g>
    </g>
  </g>
</svg>
