<?xml version="1.0" encoding="UTF-8" standalone="no"?>
<!-- Created with Inkscape (http://www.inkscape.org/) -->

<svg
   width="44.717796mm"
   height="64.703606mm"
   viewBox="0 0 44.717796 64.703606"
   version="1.1"
   id="svg1"
   xmlns="http://www.w3.org/2000/svg"
   xmlns:svg="http://www.w3.org/2000/svg">
  <defs
     id="defs1" />
  <g
     id="layer1"
     transform="translate(-20.843357,-2.668645)">
    <g
       id="7_heart"
       transform="matrix(0.26448497,0,0,0.26448497,-244.75245,-63.387796)">
      <g
         id="use871"
         transform="translate(1005.45,486.27499)">
        <path
           style="fill:#ffffff;stroke:#000000;stroke-width:2.5"
           d="m 0,0 c 0,3.78 3.09,6.87 6.87,6.87 h 152.845 c 3.77,0 6.86,-3.09 6.86,-6.87 v -228.4 c 0,-3.78 -3.09,-6.87 -6.86,-6.87 H 6.87 c -3.78,0 -6.87,3.09 -6.87,6.87 z"
           id="path163" />
      </g>
      <g
         id="use872"
         style="fill:#e6180a"
         transform="translate(1009.45,287.15701)">
        <path
           d="M 7.621582,0.58789062 15.369141,-22.906738 H 9.4692383 q -3.4643555,0 -5.2070313,0.902832 -1.2177734,0.629883 -2.015625,2.372558 H 1.4487305 l 2.0576172,-8.839355 H 20.471191 L 10.917969,0.58789062 Z"
           id="text172"
           style="font-weight:bold;font-size:43px;font-family:'Bitstream Vera Serif'"
           transform="scale(0.56453,1.05741)"
           aria-label="7" />
      </g>
      <g
         id="use873"
         style="fill:#e6180a"
         transform="rotate(180,584.50999,227.9975)">
        <path
           d="M 7.621582,0.58789062 15.369141,-22.906738 H 9.4692383 q -3.4643555,0 -5.2070313,0.902832 -1.2177734,0.629883 -2.015625,2.372558 H 1.4487305 l 2.0576172,-8.839355 H 20.471191 L 10.917969,0.58789062 Z"
           id="text173"
           style="font-weight:bold;font-size:43px;font-family:'Bitstream Vera Serif'"
           transform="scale(0.56453,1.05741)"
           aria-label="7" />
      </g>
      <g
         id="use874"
         transform="rotate(180,509.55001,150.57849)">
        <path
           style="fill:#e6180a"
           d="m -7.67,3.93 c 0.01,-4.71 5.91,-8.14 7.64,-11.87 1.75,3.72 7.66,7.12 7.7,11.83 C 7.68,6.11 5.96,7.92 3.85,7.92 1.73,7.92 0,6.13 0,3.91 0,6.14 -1.71,7.94 -3.82,7.94 -5.94,7.95 -7.66,6.15 -7.67,3.93 Z"
           id="path164" />
      </g>
      <g
         id="use875"
         transform="translate(1159.37,441.995)">
        <path
           style="fill:#e6180a"
           d="m -7.67,3.93 c 0.01,-4.71 5.91,-8.14 7.64,-11.87 1.75,3.72 7.66,7.12 7.7,11.83 C 7.68,6.11 5.96,7.92 3.85,7.92 1.73,7.92 0,6.13 0,3.91 0,6.14 -1.71,7.94 -3.82,7.94 -5.94,7.95 -7.66,6.15 -7.67,3.93 Z"
           id="path165" />
      </g>
      <g
         id="use876"
         transform="matrix(-2.4,0,0,-2.4,1049.3088,287.7648)">
        <path
           style="fill:#e6180a"
           d="m -7.67,3.93 c 0.01,-4.71 5.91,-8.14 7.64,-11.87 1.75,3.72 7.66,7.12 7.7,11.83 C 7.68,6.11 5.96,7.92 3.85,7.92 1.73,7.92 0,6.13 0,3.91 0,6.14 -1.71,7.94 -3.82,7.94 -5.94,7.95 -7.66,6.15 -7.67,3.93 Z"
           id="path166" />
      </g>
      <g
         id="use877"
         transform="matrix(-2.4,0,0,-2.4,1049.3088,364.7064)">
        <path
           style="fill:#e6180a"
           d="m -7.67,3.93 c 0.01,-4.71 5.91,-8.14 7.64,-11.87 1.75,3.72 7.66,7.12 7.7,11.83 C 7.68,6.11 5.96,7.92 3.85,7.92 1.73,7.92 0,6.13 0,3.91 0,6.14 -1.71,7.94 -3.82,7.94 -5.94,7.95 -7.66,6.15 -7.67,3.93 Z"
           id="path167" />
      </g>
      <g
         id="use878"
         transform="matrix(2.4,0,0,2.4,1049.3088,451.23842)">
        <path
           style="fill:#e6180a"
           d="m -7.67,3.93 c 0.01,-4.71 5.91,-8.14 7.64,-11.87 1.75,3.72 7.66,7.12 7.7,11.83 C 7.68,6.11 5.96,7.92 3.85,7.92 1.73,7.92 0,6.13 0,3.91 0,6.14 -1.71,7.94 -3.82,7.94 -5.94,7.95 -7.66,6.15 -7.67,3.93 Z"
           id="path168" />
      </g>
      <g
         id="use879"
         transform="matrix(-2.4,0,0,-2.4,1129.1664,287.7648)">
        <path
           style="fill:#e6180a"
           d="m -7.67,3.93 c 0.01,-4.71 5.91,-8.14 7.64,-11.87 1.75,3.72 7.66,7.12 7.7,11.83 C 7.68,6.11 5.96,7.92 3.85,7.92 1.73,7.92 0,6.13 0,3.91 0,6.14 -1.71,7.94 -3.82,7.94 -5.94,7.95 -7.66,6.15 -7.67,3.93 Z"
           id="path169" />
      </g>
      <g
         id="use880"
         transform="matrix(-2.4,0,0,-2.4,1129.1664,364.7064)">
        <path
           style="fill:#e6180a"
           d="m -7.67,3.93 c 0.01,-4.71 5.91,-8.14 7.64,-11.87 1.75,3.72 7.66,7.12 7.7,11.83 C 7.68,6.11 5.96,7.92 3.85,7.92 1.73,7.92 0,6.13 0,3.91 0,6.14 -1.71,7.94 -3.82,7.94 -5.94,7.95 -7.66,6.15 -7.67,3.93 Z"
           id="path170" />
      </g>
      <g
         id="use881"
         transform="matrix(2.4,0,0,2.4,1129.1664,451.23842)">
        <path
           style="fill:#e6180a"
           d="m -7.67,3.93 c 0.01,-4.71 5.91,-8.14 7.64,-11.87 1.75,3.72 7.66,7.12 7.7,11.83 C 7.68,6.11 5.96,7.92 3.85,7.92 1.73,7.92 0,6.13 0,3.91 0,6.14 -1.71,7.94 -3.82,7.94 -5.94,7.95 -7.66,6.15 -7.67,3.93 Z"
           id="path171" />
      </g>
      <g
         id="use882"
         transform="matrix(-2.4,0,0,-2.4,1089.2376,341.92081)">
        <path
           style="fill:#e6180a"
           d="m -7.67,3.93 c 0.01,-4.71 5.91,-8.14 7.64,-11.87 1.75,3.72 7.66,7.12 7.7,11.83 C 7.68,6.11 5.96,7.92 3.85,7.92 1.73,7.92 0,6.13 0,3.91 0,6.14 -1.71,7.94 -3.82,7.94 -5.94,7.95 -7.66,6.15 -7.67,3.93 Z"
           id="path172" />
      </g>
    </g>
  </g>
</svg>
