<?xml version="1.0" encoding="UTF-8" standalone="no"?>
<!-- Created with Inkscape (http://www.inkscape.org/) -->

<svg
   width="44.717796mm"
   height="64.703606mm"
   viewBox="0 0 44.717796 64.703606"
   version="1.1"
   id="svg1"
   xmlns="http://www.w3.org/2000/svg"
   xmlns:svg="http://www.w3.org/2000/svg">
  <defs
     id="defs1" />
  <g
     id="layer1"
     transform="translate(-75.774241,-73.447358)">
    <g
       id="10_heart"
       transform="matrix(0.26448497,0,0,0.26448497,-322.78345,7.3909167)">
      <g
         id="use910"
         transform="translate(1508.17,486.27499)">
        <path
           style="fill:#ffffff;stroke:#000000;stroke-width:2.5"
           d="m 0,0 c 0,3.78 3.09,6.87 6.87,6.87 h 152.845 c 3.77,0 6.86,-3.09 6.86,-6.87 v -228.4 c 0,-3.78 -3.09,-6.87 -6.86,-6.87 H 6.87 c -3.78,0 -6.87,3.09 -6.87,6.87 z"
           id="path127" />
      </g>
      <g
         id="use911"
         style="fill:#e6180a"
         transform="translate(1512.17,287.15701)">
        <path
           d="m 14.004395,-29.058594 v 23.2846682 q 0,2.6245117 0.230957,3.359375 0.230957,0.7138672 0.96582,1.1757813 0.734863,0.46191403 2.351562,0.46191403 h 0.650879 V 0 H 3.2124023 v -0.77685547 h 0.7558594 q 1.8266602,0 2.6035156,-0.41992183 0.7768555,-0.4199219 1.0498047,-1.1547852 0.2729492,-0.7348633 0.2729492,-3.4223633 V -20.53418 q 0,-1.973632 -0.1889648,-2.456543 Q 7.5166016,-23.494629 6.9916992,-23.830566 6.487793,-24.1875 5.815918,-24.1875 q -1.0708008,0 -2.6035157,0.671875 l -0.3779296,-0.755859 10.4770503,-4.78711 z m 27.420898,14.823242 q 0,4.2622075 -1.196777,7.95752 -0.713868,2.2675781 -1.931641,3.7163086 -1.196777,1.4487304 -2.729492,2.30957027 -1.532715,0.83984375 -3.338379,0.83984375 -2.057617,0 -3.716309,-1.04980468 -1.658691,-1.04980464 -2.939453,-3.00244144 -0.923828,-1.4277343 -1.616699,-3.8002929 -0.902832,-3.2124026 -0.902832,-6.6347656 0,-4.640137 1.301758,-8.524414 1.070801,-3.212402 3.254394,-4.913086 2.183594,-1.72168 4.619141,-1.72168 2.477539,0 4.619141,1.700684 2.162597,1.679687 3.17041,4.535156 1.406738,3.92627 1.406738,8.587402 z m -6.466797,-0.04199 q 0,-7.474609 -0.08398,-8.713379 -0.209961,-2.918457 -1.007813,-3.947265 -0.524902,-0.671875 -1.700683,-0.671875 -0.902832,0 -1.427735,0.503906 -0.776855,0.734863 -1.049804,2.603516 -0.27295,1.847656 -0.27295,12.954589 0,6.0468754 0.419922,8.1044926 0.314942,1.4907227 0.902832,1.9946289 0.587891,0.50390628 1.553711,0.50390628 1.049805,0 1.574707,-0.67187498 0.881836,-1.1757813 1.007813,-3.6323242 z"
           id="text139"
           style="font-weight:bold;font-size:43px;font-family:'Bitstream Vera Serif'"
           transform="scale(0.32258,1.05741)"
           aria-label="10" />
      </g>
      <g
         id="use912"
         style="fill:#e6180a"
         transform="rotate(180,835.875,227.9975)">
        <path
           d="m 14.004395,-29.058594 v 23.2846682 q 0,2.6245117 0.230957,3.359375 0.230957,0.7138672 0.96582,1.1757813 0.734863,0.46191403 2.351562,0.46191403 h 0.650879 V 0 H 3.2124023 v -0.77685547 h 0.7558594 q 1.8266602,0 2.6035156,-0.41992183 0.7768555,-0.4199219 1.0498047,-1.1547852 0.2729492,-0.7348633 0.2729492,-3.4223633 V -20.53418 q 0,-1.973632 -0.1889648,-2.456543 Q 7.5166016,-23.494629 6.9916992,-23.830566 6.487793,-24.1875 5.815918,-24.1875 q -1.0708008,0 -2.6035157,0.671875 l -0.3779296,-0.755859 10.4770503,-4.78711 z m 27.420898,14.823242 q 0,4.2622075 -1.196777,7.95752 -0.713868,2.2675781 -1.931641,3.7163086 -1.196777,1.4487304 -2.729492,2.30957027 -1.532715,0.83984375 -3.338379,0.83984375 -2.057617,0 -3.716309,-1.04980468 -1.658691,-1.04980464 -2.939453,-3.00244144 -0.923828,-1.4277343 -1.616699,-3.8002929 -0.902832,-3.2124026 -0.902832,-6.6347656 0,-4.640137 1.301758,-8.524414 1.070801,-3.212402 3.254394,-4.913086 2.183594,-1.72168 4.619141,-1.72168 2.477539,0 4.619141,1.700684 2.162597,1.679687 3.17041,4.535156 1.406738,3.92627 1.406738,8.587402 z m -6.466797,-0.04199 q 0,-7.474609 -0.08398,-8.713379 -0.209961,-2.918457 -1.007813,-3.947265 -0.524902,-0.671875 -1.700683,-0.671875 -0.902832,0 -1.427735,0.503906 -0.776855,0.734863 -1.049804,2.603516 -0.27295,1.847656 -0.27295,12.954589 0,6.0468754 0.419922,8.1044926 0.314942,1.4907227 0.902832,1.9946289 0.587891,0.50390628 1.553711,0.50390628 1.049805,0 1.574707,-0.67187498 0.881836,-1.1757813 1.007813,-3.6323242 z"
           id="text140"
           style="font-weight:bold;font-size:43px;font-family:'Bitstream Vera Serif'"
           transform="scale(0.32258,1.05741)"
           aria-label="10" />
      </g>
      <g
         id="use913"
         transform="rotate(180,760.91502,150.57849)">
        <path
           style="fill:#e6180a"
           d="m -7.67,3.93 c 0.01,-4.71 5.91,-8.14 7.64,-11.87 1.75,3.72 7.66,7.12 7.7,11.83 C 7.68,6.11 5.96,7.92 3.85,7.92 1.73,7.92 0,6.13 0,3.91 0,6.14 -1.71,7.94 -3.82,7.94 -5.94,7.95 -7.66,6.15 -7.67,3.93 Z"
           id="path128" />
      </g>
      <g
         id="use914"
         transform="translate(1662.1,441.995)">
        <path
           style="fill:#e6180a"
           d="m -7.67,3.93 c 0.01,-4.71 5.91,-8.14 7.64,-11.87 1.75,3.72 7.66,7.12 7.7,11.83 C 7.68,6.11 5.96,7.92 3.85,7.92 1.73,7.92 0,6.13 0,3.91 0,6.14 -1.71,7.94 -3.82,7.94 -5.94,7.95 -7.66,6.15 -7.67,3.93 Z"
           id="path129" />
      </g>
      <g
         id="use915"
         transform="matrix(-2.4,0,0,-2.4,1552.0343,287.7648)">
        <path
           style="fill:#e6180a"
           d="m -7.67,3.93 c 0.01,-4.71 5.91,-8.14 7.64,-11.87 1.75,3.72 7.66,7.12 7.7,11.83 C 7.68,6.11 5.96,7.92 3.85,7.92 1.73,7.92 0,6.13 0,3.91 0,6.14 -1.71,7.94 -3.82,7.94 -5.94,7.95 -7.66,6.15 -7.67,3.93 Z"
           id="path130" />
      </g>
      <g
         id="use916"
         transform="matrix(-2.4,0,0,-2.4,1552.0343,341.92081)">
        <path
           style="fill:#e6180a"
           d="m -7.67,3.93 c 0.01,-4.71 5.91,-8.14 7.64,-11.87 1.75,3.72 7.66,7.12 7.7,11.83 C 7.68,6.11 5.96,7.92 3.85,7.92 1.73,7.92 0,6.13 0,3.91 0,6.14 -1.71,7.94 -3.82,7.94 -5.94,7.95 -7.66,6.15 -7.67,3.93 Z"
           id="path131" />
      </g>
      <g
         id="use917"
         transform="matrix(2.4,0,0,2.4,1552.0345,397.08241)">
        <path
           style="fill:#e6180a"
           d="m -7.67,3.93 c 0.01,-4.71 5.91,-8.14 7.64,-11.87 1.75,3.72 7.66,7.12 7.7,11.83 C 7.68,6.11 5.96,7.92 3.85,7.92 1.73,7.92 0,6.13 0,3.91 0,6.14 -1.71,7.94 -3.82,7.94 -5.94,7.95 -7.66,6.15 -7.67,3.93 Z"
           id="path132" />
      </g>
      <g
         id="use918"
         transform="matrix(2.4,0,0,2.4,1552.0345,451.23842)">
        <path
           style="fill:#e6180a"
           d="m -7.67,3.93 c 0.01,-4.71 5.91,-8.14 7.64,-11.87 1.75,3.72 7.66,7.12 7.7,11.83 C 7.68,6.11 5.96,7.92 3.85,7.92 1.73,7.92 0,6.13 0,3.91 0,6.14 -1.71,7.94 -3.82,7.94 -5.94,7.95 -7.66,6.15 -7.67,3.93 Z"
           id="path133" />
      </g>
      <g
         id="use919"
         transform="matrix(-2.4,0,0,-2.4,1631.892,287.7648)">
        <path
           style="fill:#e6180a"
           d="m -7.67,3.93 c 0.01,-4.71 5.91,-8.14 7.64,-11.87 1.75,3.72 7.66,7.12 7.7,11.83 C 7.68,6.11 5.96,7.92 3.85,7.92 1.73,7.92 0,6.13 0,3.91 0,6.14 -1.71,7.94 -3.82,7.94 -5.94,7.95 -7.66,6.15 -7.67,3.93 Z"
           id="path134" />
      </g>
      <g
         id="use920"
         transform="matrix(-2.4,0,0,-2.4,1631.892,341.92081)">
        <path
           style="fill:#e6180a"
           d="m -7.67,3.93 c 0.01,-4.71 5.91,-8.14 7.64,-11.87 1.75,3.72 7.66,7.12 7.7,11.83 C 7.68,6.11 5.96,7.92 3.85,7.92 1.73,7.92 0,6.13 0,3.91 0,6.14 -1.71,7.94 -3.82,7.94 -5.94,7.95 -7.66,6.15 -7.67,3.93 Z"
           id="path135" />
      </g>
      <g
         id="use921"
         transform="matrix(2.4,0,0,2.4,1631.892,397.08241)">
        <path
           style="fill:#e6180a"
           d="m -7.67,3.93 c 0.01,-4.71 5.91,-8.14 7.64,-11.87 1.75,3.72 7.66,7.12 7.7,11.83 C 7.68,6.11 5.96,7.92 3.85,7.92 1.73,7.92 0,6.13 0,3.91 0,6.14 -1.71,7.94 -3.82,7.94 -5.94,7.95 -7.66,6.15 -7.67,3.93 Z"
           id="path136" />
      </g>
      <g
         id="use922"
         transform="matrix(2.4,0,0,2.4,1631.892,451.23842)">
        <path
           style="fill:#e6180a"
           d="m -7.67,3.93 c 0.01,-4.71 5.91,-8.14 7.64,-11.87 1.75,3.72 7.66,7.12 7.7,11.83 C 7.68,6.11 5.96,7.92 3.85,7.92 1.73,7.92 0,6.13 0,3.91 0,6.14 -1.71,7.94 -3.82,7.94 -5.94,7.95 -7.66,6.15 -7.67,3.93 Z"
           id="path137" />
      </g>
      <g
         id="use923"
         transform="matrix(-2.4,0,0,-2.4,1591.9632,314.84401)">
        <path
           style="fill:#e6180a"
           d="m -7.67,3.93 c 0.01,-4.71 5.91,-8.14 7.64,-11.87 1.75,3.72 7.66,7.12 7.7,11.83 C 7.68,6.11 5.96,7.92 3.85,7.92 1.73,7.92 0,6.13 0,3.91 0,6.14 -1.71,7.94 -3.82,7.94 -5.94,7.95 -7.66,6.15 -7.67,3.93 Z"
           id="path138" />
      </g>
      <g
         id="use924"
         transform="matrix(2.4,0,0,2.4,1591.9632,424.1592)">
        <path
           style="fill:#e6180a"
           d="m -7.67,3.93 c 0.01,-4.71 5.91,-8.14 7.64,-11.87 1.75,3.72 7.66,7.12 7.7,11.83 C 7.68,6.11 5.96,7.92 3.85,7.92 1.73,7.92 0,6.13 0,3.91 0,6.14 -1.71,7.94 -3.82,7.94 -5.94,7.95 -7.66,6.15 -7.67,3.93 Z"
           id="path139" />
      </g>
    </g>
  </g>
</svg>
