<?xml version="1.0" encoding="UTF-8" standalone="no"?>
<!-- Created with Inkscape (http://www.inkscape.org/) -->

<svg
   width="44.717796mm"
   height="64.703606mm"
   viewBox="0 0 44.717796 64.703606"
   version="1.1"
   id="svg1"
   xmlns="http://www.w3.org/2000/svg"
   xmlns:svg="http://www.w3.org/2000/svg">
  <defs
     id="defs1" />
  <g
     id="layer1"
     transform="translate(-61.105624,-67.428282)">
    <g
       id="1_spade"
       transform="matrix(0.26448497,0,0,0.26448497,61.43623,-62.934241)">
      <g
         id="use1103"
         transform="translate(0,729.41199)">
        <path
           style="fill:#ffffff;stroke:#000000;stroke-width:2.5"
           d="m 0,0 c 0,3.78 3.09,6.87 6.87,6.87 h 152.845 c 3.77,0 6.86,-3.09 6.86,-6.87 v -228.4 c 0,-3.78 -3.09,-6.87 -6.86,-6.87 H 6.87 c -3.78,0 -6.87,3.09 -6.87,6.87 z"
           id="path9" />
      </g>
      <g
         id="use1104"
         transform="translate(4,530.29498)">
        <path
           d="M 17.888672,-8.1044922 H 7.831543 l -1.1967774,2.7714844 q -0.5878906,1.3857422 -0.5878906,2.2885742 0,1.1967774 0.9658203,1.7636719 0.5668945,0.33593748 2.7924805,0.50390623 V 0 H 0.3359375 V -0.77685547 Q 1.8686523,-1.0078125 2.8554688,-2.0366211 3.8422852,-3.0864258 5.2910156,-6.3408203 L 15.474121,-29.058594 h 0.398926 l 10.26709,23.3476565 q 1.469726,3.3173828 2.41455,4.1782227 0.713868,0.65087886 2.015625,0.75585933 V 0 H 16.796875 v -0.77685547 h 0.566895 q 1.658691,0 2.330566,-0.46191403 0.461914,-0.3359375 0.461914,-0.9658203 0,-0.3779297 -0.125977,-0.7768555 -0.04199,-0.1889649 -0.629882,-1.574707 z m -0.713867,-1.5537109 -4.241211,-9.8051759 -4.3671877,9.8051759 z"
           id="text1"
           style="font-weight:bold;font-size:43px;font-family:'Bitstream Vera Serif'"
           transform="scale(0.56453,1.05741)"
           aria-label="A" />
      </g>
      <g
         id="use1105"
         transform="rotate(180,81.787502,349.56599)">
        <path
           d="M 17.888672,-8.1044922 H 7.831543 l -1.1967774,2.7714844 q -0.5878906,1.3857422 -0.5878906,2.2885742 0,1.1967774 0.9658203,1.7636719 0.5668945,0.33593748 2.7924805,0.50390623 V 0 H 0.3359375 V -0.77685547 Q 1.8686523,-1.0078125 2.8554688,-2.0366211 3.8422852,-3.0864258 5.2910156,-6.3408203 L 15.474121,-29.058594 h 0.398926 l 10.26709,23.3476565 q 1.469726,3.3173828 2.41455,4.1782227 0.713868,0.65087886 2.015625,0.75585933 V 0 H 16.796875 v -0.77685547 h 0.566895 q 1.658691,0 2.330566,-0.46191403 0.461914,-0.3359375 0.461914,-0.9658203 0,-0.3779297 -0.125977,-0.7768555 -0.04199,-0.1889649 -0.629882,-1.574707 z m -0.713867,-1.5537109 -4.241211,-9.8051759 -4.3671877,9.8051759 z"
           id="text3"
           style="font-weight:bold;font-size:43px;font-family:'Bitstream Vera Serif'"
           transform="scale(0.56453,1.05741)"
           aria-label="A" />
      </g>
      <g
         id="use1106"
         transform="rotate(180,6.8250002,272.14751)">
        <path
           d="m 3.92,-7.93 c -1.67,0 -2.55,1.78 -3.01,3.56 -0.46,1.78 -0.5,3.56 -0.5,3.56 l -0.85,0.01 c 0,0 -0.16,-7.13 -3.5,-7.13 z"
           id="path3" />
        <path
           d="M 6.75,-0.8 C 6.74,2.67 1.53,5.19 0,7.93 -1.53,5.18 -6.74,2.66 -6.75,-0.8 c 0,-1.64 1.51,-2.97 3.38,-2.97 1.86,0 3.37,1.33 3.37,2.97 0,-1.64 1.51,-2.97 3.38,-2.97 1.87,0 3.37,1.33 3.37,2.97 z"
           id="path4" />
      </g>
      <g
         id="use1107"
         transform="translate(153.925,685.13202)">
        <path
           d="m 3.92,-7.93 c -1.67,0 -2.55,1.78 -3.01,3.56 -0.46,1.78 -0.5,3.56 -0.5,3.56 l -0.85,0.01 c 0,0 -0.16,-7.13 -3.5,-7.13 z"
           id="path5" />
        <path
           d="M 6.75,-0.8 C 6.74,2.67 1.53,5.19 0,7.93 -1.53,5.18 -6.74,2.66 -6.75,-0.8 c 0,-1.64 1.51,-2.97 3.38,-2.97 1.86,0 3.37,1.33 3.37,2.97 0,-1.64 1.51,-2.97 3.38,-2.97 1.87,0 3.37,1.33 3.37,2.97 z"
           id="path6" />
      </g>
      <g
         id="use1108"
         transform="matrix(-2.4,0,0,-2.4,83.787602,607.84319)">
        <path
           d="m 3.92,-7.93 c -1.67,0 -2.55,1.78 -3.01,3.56 -0.46,1.78 -0.5,3.56 -0.5,3.56 l -0.85,0.01 c 0,0 -0.16,-7.13 -3.5,-7.13 z"
           id="path7" />
        <path
           d="M 6.75,-0.8 C 6.74,2.67 1.53,5.19 0,7.93 -1.53,5.18 -6.74,2.66 -6.75,-0.8 c 0,-1.64 1.51,-2.97 3.38,-2.97 1.86,0 3.37,1.33 3.37,2.97 0,-1.64 1.51,-2.97 3.38,-2.97 1.87,0 3.37,1.33 3.37,2.97 z"
           id="path8" />
      </g>
    </g>
  </g>
</svg>
