<?xml version="1.0" encoding="UTF-8" standalone="no"?>
<!-- Created with Inkscape (http://www.inkscape.org/) -->

<svg
   width="44.717796mm"
   height="64.703606mm"
   viewBox="0 0 44.717796 64.703606"
   version="1.1"
   id="svg1"
   xmlns="http://www.w3.org/2000/svg"
   xmlns:svg="http://www.w3.org/2000/svg">
  <defs
     id="defs1" />
  <g
     id="layer1"
     transform="translate(-42.987311,-66.004618)">
    <g
       id="10_spade"
       transform="matrix(0.26448497,0,0,0.26448497,-355.57038,-64.357905)">
      <g
         id="use1193"
         transform="translate(1508.17,729.41199)">
        <path
           style="fill:#ffffff;stroke:#000000;stroke-width:2.5"
           d="m 0,0 c 0,3.78 3.09,6.87 6.87,6.87 h 152.845 c 3.77,0 6.86,-3.09 6.86,-6.87 v -228.4 c 0,-3.78 -3.09,-6.87 -6.86,-6.87 H 6.87 c -3.78,0 -6.87,3.09 -6.87,6.87 z"
           id="path28" />
      </g>
      <g
         id="use1194"
         transform="translate(1512.17,530.29498)">
        <path
           d="m 14.004395,-29.058594 v 23.2846682 q 0,2.6245117 0.230957,3.359375 0.230957,0.7138672 0.96582,1.1757813 0.734863,0.46191403 2.351562,0.46191403 h 0.650879 V 0 H 3.2124023 v -0.77685547 h 0.7558594 q 1.8266602,0 2.6035156,-0.41992183 0.7768555,-0.4199219 1.0498047,-1.1547852 0.2729492,-0.7348633 0.2729492,-3.4223633 V -20.53418 q 0,-1.973632 -0.1889648,-2.456543 Q 7.5166016,-23.494629 6.9916992,-23.830566 6.487793,-24.1875 5.815918,-24.1875 q -1.0708008,0 -2.6035157,0.671875 l -0.3779296,-0.755859 10.4770503,-4.78711 z m 27.420898,14.823242 q 0,4.2622075 -1.196777,7.95752 -0.713868,2.2675781 -1.931641,3.7163086 -1.196777,1.4487304 -2.729492,2.30957027 -1.532715,0.83984375 -3.338379,0.83984375 -2.057617,0 -3.716309,-1.04980468 -1.658691,-1.04980464 -2.939453,-3.00244144 -0.923828,-1.4277343 -1.616699,-3.8002929 -0.902832,-3.2124026 -0.902832,-6.6347656 0,-4.640137 1.301758,-8.524414 1.070801,-3.212402 3.254394,-4.913086 2.183594,-1.72168 4.619141,-1.72168 2.477539,0 4.619141,1.700684 2.162597,1.679687 3.17041,4.535156 1.406738,3.92627 1.406738,8.587402 z m -6.466797,-0.04199 q 0,-7.474609 -0.08398,-8.713379 -0.209961,-2.918457 -1.007813,-3.947265 -0.524902,-0.671875 -1.700683,-0.671875 -0.902832,0 -1.427735,0.503906 -0.776855,0.734863 -1.049804,2.603516 -0.27295,1.847656 -0.27295,12.954589 0,6.0468754 0.419922,8.1044926 0.314942,1.4907227 0.902832,1.9946289 0.587891,0.50390628 1.553711,0.50390628 1.049805,0 1.574707,-0.67187498 0.881836,-1.1757813 1.007813,-3.6323242 z"
           id="text28"
           style="font-weight:bold;font-size:43px;font-family:'Bitstream Vera Serif'"
           transform="scale(0.32258,1.05741)"
           aria-label="10" />
      </g>
      <g
         id="use1195"
         transform="rotate(180,835.875,349.56599)">
        <path
           d="m 14.004395,-29.058594 v 23.2846682 q 0,2.6245117 0.230957,3.359375 0.230957,0.7138672 0.96582,1.1757813 0.734863,0.46191403 2.351562,0.46191403 h 0.650879 V 0 H 3.2124023 v -0.77685547 h 0.7558594 q 1.8266602,0 2.6035156,-0.41992183 0.7768555,-0.4199219 1.0498047,-1.1547852 0.2729492,-0.7348633 0.2729492,-3.4223633 V -20.53418 q 0,-1.973632 -0.1889648,-2.456543 Q 7.5166016,-23.494629 6.9916992,-23.830566 6.487793,-24.1875 5.815918,-24.1875 q -1.0708008,0 -2.6035157,0.671875 l -0.3779296,-0.755859 10.4770503,-4.78711 z m 27.420898,14.823242 q 0,4.2622075 -1.196777,7.95752 -0.713868,2.2675781 -1.931641,3.7163086 -1.196777,1.4487304 -2.729492,2.30957027 -1.532715,0.83984375 -3.338379,0.83984375 -2.057617,0 -3.716309,-1.04980468 -1.658691,-1.04980464 -2.939453,-3.00244144 -0.923828,-1.4277343 -1.616699,-3.8002929 -0.902832,-3.2124026 -0.902832,-6.6347656 0,-4.640137 1.301758,-8.524414 1.070801,-3.212402 3.254394,-4.913086 2.183594,-1.72168 4.619141,-1.72168 2.477539,0 4.619141,1.700684 2.162597,1.679687 3.17041,4.535156 1.406738,3.92627 1.406738,8.587402 z m -6.466797,-0.04199 q 0,-7.474609 -0.08398,-8.713379 -0.209961,-2.918457 -1.007813,-3.947265 -0.524902,-0.671875 -1.700683,-0.671875 -0.902832,0 -1.427735,0.503906 -0.776855,0.734863 -1.049804,2.603516 -0.27295,1.847656 -0.27295,12.954589 0,6.0468754 0.419922,8.1044926 0.314942,1.4907227 0.902832,1.9946289 0.587891,0.50390628 1.553711,0.50390628 1.049805,0 1.574707,-0.67187498 0.881836,-1.1757813 1.007813,-3.6323242 z"
           id="text29"
           style="font-weight:bold;font-size:43px;font-family:'Bitstream Vera Serif'"
           transform="scale(0.32258,1.05741)"
           aria-label="10" />
      </g>
      <g
         id="use1196"
         transform="rotate(180,760.91502,272.14751)">
        <path
           d="m 3.92,-7.93 c -1.67,0 -2.55,1.78 -3.01,3.56 -0.46,1.78 -0.5,3.56 -0.5,3.56 l -0.85,0.01 c 0,0 -0.16,-7.13 -3.5,-7.13 z"
           id="path1" />
        <path
           d="M 6.75,-0.8 C 6.74,2.67 1.53,5.19 0,7.93 -1.53,5.18 -6.74,2.66 -6.75,-0.8 c 0,-1.64 1.51,-2.97 3.38,-2.97 1.86,0 3.37,1.33 3.37,2.97 0,-1.64 1.51,-2.97 3.38,-2.97 1.87,0 3.37,1.33 3.37,2.97 z"
           id="path2" />
      </g>
      <g
         id="use1197"
         transform="translate(1662.1,685.13202)">
        <path
           d="m 3.92,-7.93 c -1.67,0 -2.55,1.78 -3.01,3.56 -0.46,1.78 -0.5,3.56 -0.5,3.56 l -0.85,0.01 c 0,0 -0.16,-7.13 -3.5,-7.13 z"
           id="path3" />
        <path
           d="M 6.75,-0.8 C 6.74,2.67 1.53,5.19 0,7.93 -1.53,5.18 -6.74,2.66 -6.75,-0.8 c 0,-1.64 1.51,-2.97 3.38,-2.97 1.86,0 3.37,1.33 3.37,2.97 0,-1.64 1.51,-2.97 3.38,-2.97 1.87,0 3.37,1.33 3.37,2.97 z"
           id="path4" />
      </g>
      <g
         id="use1198"
         transform="matrix(-2.4,0,0,-2.4,1552.0343,530.9016)">
        <path
           d="m 3.92,-7.93 c -1.67,0 -2.55,1.78 -3.01,3.56 -0.46,1.78 -0.5,3.56 -0.5,3.56 l -0.85,0.01 c 0,0 -0.16,-7.13 -3.5,-7.13 z"
           id="path5" />
        <path
           d="M 6.75,-0.8 C 6.74,2.67 1.53,5.19 0,7.93 -1.53,5.18 -6.74,2.66 -6.75,-0.8 c 0,-1.64 1.51,-2.97 3.38,-2.97 1.86,0 3.37,1.33 3.37,2.97 0,-1.64 1.51,-2.97 3.38,-2.97 1.87,0 3.37,1.33 3.37,2.97 z"
           id="path6" />
      </g>
      <g
         id="use1199"
         transform="matrix(-2.4,0,0,-2.4,1552.0343,585.0576)">
        <path
           d="m 3.92,-7.93 c -1.67,0 -2.55,1.78 -3.01,3.56 -0.46,1.78 -0.5,3.56 -0.5,3.56 l -0.85,0.01 c 0,0 -0.16,-7.13 -3.5,-7.13 z"
           id="path7" />
        <path
           d="M 6.75,-0.8 C 6.74,2.67 1.53,5.19 0,7.93 -1.53,5.18 -6.74,2.66 -6.75,-0.8 c 0,-1.64 1.51,-2.97 3.38,-2.97 1.86,0 3.37,1.33 3.37,2.97 0,-1.64 1.51,-2.97 3.38,-2.97 1.87,0 3.37,1.33 3.37,2.97 z"
           id="path8" />
      </g>
      <g
         id="use1200"
         transform="matrix(2.4,0,0,2.4,1552.0345,640.21919)">
        <path
           d="m 3.92,-7.93 c -1.67,0 -2.55,1.78 -3.01,3.56 -0.46,1.78 -0.5,3.56 -0.5,3.56 l -0.85,0.01 c 0,0 -0.16,-7.13 -3.5,-7.13 z"
           id="path9" />
        <path
           d="M 6.75,-0.8 C 6.74,2.67 1.53,5.19 0,7.93 -1.53,5.18 -6.74,2.66 -6.75,-0.8 c 0,-1.64 1.51,-2.97 3.38,-2.97 1.86,0 3.37,1.33 3.37,2.97 0,-1.64 1.51,-2.97 3.38,-2.97 1.87,0 3.37,1.33 3.37,2.97 z"
           id="path10" />
      </g>
      <g
         id="use1201"
         transform="matrix(2.4,0,0,2.4,1552.0345,694.3752)">
        <path
           d="m 3.92,-7.93 c -1.67,0 -2.55,1.78 -3.01,3.56 -0.46,1.78 -0.5,3.56 -0.5,3.56 l -0.85,0.01 c 0,0 -0.16,-7.13 -3.5,-7.13 z"
           id="path11" />
        <path
           d="M 6.75,-0.8 C 6.74,2.67 1.53,5.19 0,7.93 -1.53,5.18 -6.74,2.66 -6.75,-0.8 c 0,-1.64 1.51,-2.97 3.38,-2.97 1.86,0 3.37,1.33 3.37,2.97 0,-1.64 1.51,-2.97 3.38,-2.97 1.87,0 3.37,1.33 3.37,2.97 z"
           id="path12" />
      </g>
      <g
         id="use1202"
         transform="matrix(-2.4,0,0,-2.4,1631.892,530.9016)">
        <path
           d="m 3.92,-7.93 c -1.67,0 -2.55,1.78 -3.01,3.56 -0.46,1.78 -0.5,3.56 -0.5,3.56 l -0.85,0.01 c 0,0 -0.16,-7.13 -3.5,-7.13 z"
           id="path13" />
        <path
           d="M 6.75,-0.8 C 6.74,2.67 1.53,5.19 0,7.93 -1.53,5.18 -6.74,2.66 -6.75,-0.8 c 0,-1.64 1.51,-2.97 3.38,-2.97 1.86,0 3.37,1.33 3.37,2.97 0,-1.64 1.51,-2.97 3.38,-2.97 1.87,0 3.37,1.33 3.37,2.97 z"
           id="path15" />
      </g>
      <g
         id="use1203"
         transform="matrix(-2.4,0,0,-2.4,1631.892,585.0576)">
        <path
           d="m 3.92,-7.93 c -1.67,0 -2.55,1.78 -3.01,3.56 -0.46,1.78 -0.5,3.56 -0.5,3.56 l -0.85,0.01 c 0,0 -0.16,-7.13 -3.5,-7.13 z"
           id="path16" />
        <path
           d="M 6.75,-0.8 C 6.74,2.67 1.53,5.19 0,7.93 -1.53,5.18 -6.74,2.66 -6.75,-0.8 c 0,-1.64 1.51,-2.97 3.38,-2.97 1.86,0 3.37,1.33 3.37,2.97 0,-1.64 1.51,-2.97 3.38,-2.97 1.87,0 3.37,1.33 3.37,2.97 z"
           id="path17" />
      </g>
      <g
         id="use1204"
         transform="matrix(2.4,0,0,2.4,1631.892,640.21919)">
        <path
           d="m 3.92,-7.93 c -1.67,0 -2.55,1.78 -3.01,3.56 -0.46,1.78 -0.5,3.56 -0.5,3.56 l -0.85,0.01 c 0,0 -0.16,-7.13 -3.5,-7.13 z"
           id="path18" />
        <path
           d="M 6.75,-0.8 C 6.74,2.67 1.53,5.19 0,7.93 -1.53,5.18 -6.74,2.66 -6.75,-0.8 c 0,-1.64 1.51,-2.97 3.38,-2.97 1.86,0 3.37,1.33 3.37,2.97 0,-1.64 1.51,-2.97 3.38,-2.97 1.87,0 3.37,1.33 3.37,2.97 z"
           id="path19" />
      </g>
      <g
         id="use1205"
         transform="matrix(2.4,0,0,2.4,1631.892,694.3752)">
        <path
           d="m 3.92,-7.93 c -1.67,0 -2.55,1.78 -3.01,3.56 -0.46,1.78 -0.5,3.56 -0.5,3.56 l -0.85,0.01 c 0,0 -0.16,-7.13 -3.5,-7.13 z"
           id="path20" />
        <path
           d="M 6.75,-0.8 C 6.74,2.67 1.53,5.19 0,7.93 -1.53,5.18 -6.74,2.66 -6.75,-0.8 c 0,-1.64 1.51,-2.97 3.38,-2.97 1.86,0 3.37,1.33 3.37,2.97 0,-1.64 1.51,-2.97 3.38,-2.97 1.87,0 3.37,1.33 3.37,2.97 z"
           id="path21" />
      </g>
      <g
         id="use1206"
         transform="matrix(-2.4,0,0,-2.4,1591.9632,557.98079)">
        <path
           d="m 3.92,-7.93 c -1.67,0 -2.55,1.78 -3.01,3.56 -0.46,1.78 -0.5,3.56 -0.5,3.56 l -0.85,0.01 c 0,0 -0.16,-7.13 -3.5,-7.13 z"
           id="path22" />
        <path
           d="M 6.75,-0.8 C 6.74,2.67 1.53,5.19 0,7.93 -1.53,5.18 -6.74,2.66 -6.75,-0.8 c 0,-1.64 1.51,-2.97 3.38,-2.97 1.86,0 3.37,1.33 3.37,2.97 0,-1.64 1.51,-2.97 3.38,-2.97 1.87,0 3.37,1.33 3.37,2.97 z"
           id="path23" />
      </g>
      <g
         id="use1207"
         transform="matrix(2.4,0,0,2.4,1591.9632,667.29602)">
        <path
           d="m 3.92,-7.93 c -1.67,0 -2.55,1.78 -3.01,3.56 -0.46,1.78 -0.5,3.56 -0.5,3.56 l -0.85,0.01 c 0,0 -0.16,-7.13 -3.5,-7.13 z"
           id="path26" />
        <path
           d="M 6.75,-0.8 C 6.74,2.67 1.53,5.19 0,7.93 -1.53,5.18 -6.74,2.66 -6.75,-0.8 c 0,-1.64 1.51,-2.97 3.38,-2.97 1.86,0 3.37,1.33 3.37,2.97 0,-1.64 1.51,-2.97 3.38,-2.97 1.87,0 3.37,1.33 3.37,2.97 z"
           id="path27" />
      </g>
    </g>
  </g>
</svg>
