<?xml version="1.0" encoding="UTF-8" standalone="no"?>
<!-- Created with Inkscape (http://www.inkscape.org/) -->

<svg
   width="44.717796mm"
   height="64.703606mm"
   viewBox="0 0 44.717796 64.703606"
   version="1.1"
   id="svg1"
   xmlns="http://www.w3.org/2000/svg"
   xmlns:svg="http://www.w3.org/2000/svg">
  <defs
     id="defs1" />
  <g
     id="layer1"
     transform="translate(-92.611207,-77.217865)">
    <g
       id="7_spade"
       transform="matrix(0.26448497,0,0,0.26448497,-172.9846,-53.144658)">
      <g
         id="use1154"
         transform="translate(1005.45,729.41199)">
        <path
           style="fill:#ffffff;stroke:#000000;stroke-width:2.5"
           d="m 0,0 c 0,3.78 3.09,6.87 6.87,6.87 h 152.845 c 3.77,0 6.86,-3.09 6.86,-6.87 v -228.4 c 0,-3.78 -3.09,-6.87 -6.86,-6.87 H 6.87 c -3.78,0 -6.87,3.09 -6.87,6.87 z"
           id="path20" />
      </g>
      <g
         id="use1155"
         transform="translate(1009.45,530.29498)">
        <path
           d="M 7.621582,0.58789062 15.369141,-22.906738 H 9.4692383 q -3.4643555,0 -5.2070313,0.902832 -1.2177734,0.629883 -2.015625,2.372558 H 1.4487305 l 2.0576172,-8.839355 H 20.471191 L 10.917969,0.58789062 Z"
           id="text20"
           style="font-weight:bold;font-size:43px;font-family:'Bitstream Vera Serif'"
           transform="scale(0.56453,1.05741)"
           aria-label="7" />
      </g>
      <g
         id="use1156"
         transform="rotate(180,584.50999,349.56599)">
        <path
           d="M 7.621582,0.58789062 15.369141,-22.906738 H 9.4692383 q -3.4643555,0 -5.2070313,0.902832 -1.2177734,0.629883 -2.015625,2.372558 H 1.4487305 l 2.0576172,-8.839355 H 20.471191 L 10.917969,0.58789062 Z"
           id="text21"
           style="font-weight:bold;font-size:43px;font-family:'Bitstream Vera Serif'"
           transform="scale(0.56453,1.05741)"
           aria-label="7" />
      </g>
      <g
         id="use1157"
         transform="rotate(180,509.55001,272.14751)">
        <path
           d="m 3.92,-7.93 c -1.67,0 -2.55,1.78 -3.01,3.56 -0.46,1.78 -0.5,3.56 -0.5,3.56 l -0.85,0.01 c 0,0 -0.16,-7.13 -3.5,-7.13 z"
           id="path1" />
        <path
           d="M 6.75,-0.8 C 6.74,2.67 1.53,5.19 0,7.93 -1.53,5.18 -6.74,2.66 -6.75,-0.8 c 0,-1.64 1.51,-2.97 3.38,-2.97 1.86,0 3.37,1.33 3.37,2.97 0,-1.64 1.51,-2.97 3.38,-2.97 1.87,0 3.37,1.33 3.37,2.97 z"
           id="path2" />
      </g>
      <g
         id="use1158"
         transform="translate(1159.37,685.13202)">
        <path
           d="m 3.92,-7.93 c -1.67,0 -2.55,1.78 -3.01,3.56 -0.46,1.78 -0.5,3.56 -0.5,3.56 l -0.85,0.01 c 0,0 -0.16,-7.13 -3.5,-7.13 z"
           id="path3" />
        <path
           d="M 6.75,-0.8 C 6.74,2.67 1.53,5.19 0,7.93 -1.53,5.18 -6.74,2.66 -6.75,-0.8 c 0,-1.64 1.51,-2.97 3.38,-2.97 1.86,0 3.37,1.33 3.37,2.97 0,-1.64 1.51,-2.97 3.38,-2.97 1.87,0 3.37,1.33 3.37,2.97 z"
           id="path4" />
      </g>
      <g
         id="use1159"
         transform="matrix(-2.4,0,0,-2.4,1049.3088,530.9016)">
        <path
           d="m 3.92,-7.93 c -1.67,0 -2.55,1.78 -3.01,3.56 -0.46,1.78 -0.5,3.56 -0.5,3.56 l -0.85,0.01 c 0,0 -0.16,-7.13 -3.5,-7.13 z"
           id="path5" />
        <path
           d="M 6.75,-0.8 C 6.74,2.67 1.53,5.19 0,7.93 -1.53,5.18 -6.74,2.66 -6.75,-0.8 c 0,-1.64 1.51,-2.97 3.38,-2.97 1.86,0 3.37,1.33 3.37,2.97 0,-1.64 1.51,-2.97 3.38,-2.97 1.87,0 3.37,1.33 3.37,2.97 z"
           id="path6" />
      </g>
      <g
         id="use1160"
         transform="matrix(-2.4,0,0,-2.4,1049.3088,607.84319)">
        <path
           d="m 3.92,-7.93 c -1.67,0 -2.55,1.78 -3.01,3.56 -0.46,1.78 -0.5,3.56 -0.5,3.56 l -0.85,0.01 c 0,0 -0.16,-7.13 -3.5,-7.13 z"
           id="path7" />
        <path
           d="M 6.75,-0.8 C 6.74,2.67 1.53,5.19 0,7.93 -1.53,5.18 -6.74,2.66 -6.75,-0.8 c 0,-1.64 1.51,-2.97 3.38,-2.97 1.86,0 3.37,1.33 3.37,2.97 0,-1.64 1.51,-2.97 3.38,-2.97 1.87,0 3.37,1.33 3.37,2.97 z"
           id="path8" />
      </g>
      <g
         id="use1161"
         transform="matrix(2.4,0,0,2.4,1049.3088,694.3752)">
        <path
           d="m 3.92,-7.93 c -1.67,0 -2.55,1.78 -3.01,3.56 -0.46,1.78 -0.5,3.56 -0.5,3.56 l -0.85,0.01 c 0,0 -0.16,-7.13 -3.5,-7.13 z"
           id="path9" />
        <path
           d="M 6.75,-0.8 C 6.74,2.67 1.53,5.19 0,7.93 -1.53,5.18 -6.74,2.66 -6.75,-0.8 c 0,-1.64 1.51,-2.97 3.38,-2.97 1.86,0 3.37,1.33 3.37,2.97 0,-1.64 1.51,-2.97 3.38,-2.97 1.87,0 3.37,1.33 3.37,2.97 z"
           id="path10" />
      </g>
      <g
         id="use1162"
         transform="matrix(-2.4,0,0,-2.4,1129.1664,530.9016)">
        <path
           d="m 3.92,-7.93 c -1.67,0 -2.55,1.78 -3.01,3.56 -0.46,1.78 -0.5,3.56 -0.5,3.56 l -0.85,0.01 c 0,0 -0.16,-7.13 -3.5,-7.13 z"
           id="path11" />
        <path
           d="M 6.75,-0.8 C 6.74,2.67 1.53,5.19 0,7.93 -1.53,5.18 -6.74,2.66 -6.75,-0.8 c 0,-1.64 1.51,-2.97 3.38,-2.97 1.86,0 3.37,1.33 3.37,2.97 0,-1.64 1.51,-2.97 3.38,-2.97 1.87,0 3.37,1.33 3.37,2.97 z"
           id="path12" />
      </g>
      <g
         id="use1163"
         transform="matrix(-2.4,0,0,-2.4,1129.1664,607.84319)">
        <path
           d="m 3.92,-7.93 c -1.67,0 -2.55,1.78 -3.01,3.56 -0.46,1.78 -0.5,3.56 -0.5,3.56 l -0.85,0.01 c 0,0 -0.16,-7.13 -3.5,-7.13 z"
           id="path13" />
        <path
           d="M 6.75,-0.8 C 6.74,2.67 1.53,5.19 0,7.93 -1.53,5.18 -6.74,2.66 -6.75,-0.8 c 0,-1.64 1.51,-2.97 3.38,-2.97 1.86,0 3.37,1.33 3.37,2.97 0,-1.64 1.51,-2.97 3.38,-2.97 1.87,0 3.37,1.33 3.37,2.97 z"
           id="path15" />
      </g>
      <g
         id="use1164"
         transform="matrix(2.4,0,0,2.4,1129.1664,694.3752)">
        <path
           d="m 3.92,-7.93 c -1.67,0 -2.55,1.78 -3.01,3.56 -0.46,1.78 -0.5,3.56 -0.5,3.56 l -0.85,0.01 c 0,0 -0.16,-7.13 -3.5,-7.13 z"
           id="path16" />
        <path
           d="M 6.75,-0.8 C 6.74,2.67 1.53,5.19 0,7.93 -1.53,5.18 -6.74,2.66 -6.75,-0.8 c 0,-1.64 1.51,-2.97 3.38,-2.97 1.86,0 3.37,1.33 3.37,2.97 0,-1.64 1.51,-2.97 3.38,-2.97 1.87,0 3.37,1.33 3.37,2.97 z"
           id="path17" />
      </g>
      <g
         id="use1165"
         transform="matrix(-2.4,0,0,-2.4,1089.2376,585.0576)">
        <path
           d="m 3.92,-7.93 c -1.67,0 -2.55,1.78 -3.01,3.56 -0.46,1.78 -0.5,3.56 -0.5,3.56 l -0.85,0.01 c 0,0 -0.16,-7.13 -3.5,-7.13 z"
           id="path18" />
        <path
           d="M 6.75,-0.8 C 6.74,2.67 1.53,5.19 0,7.93 -1.53,5.18 -6.74,2.66 -6.75,-0.8 c 0,-1.64 1.51,-2.97 3.38,-2.97 1.86,0 3.37,1.33 3.37,2.97 0,-1.64 1.51,-2.97 3.38,-2.97 1.87,0 3.37,1.33 3.37,2.97 z"
           id="path19" />
      </g>
    </g>
  </g>
</svg>
