<?xml version="1.0" encoding="UTF-8" standalone="no"?>
<!-- Created with Inkscape (http://www.inkscape.org/) -->

<svg
   width="44.717796mm"
   height="64.703606mm"
   viewBox="0 0 44.717796 64.703606"
   version="1.1"
   id="svg1"
   xmlns="http://www.w3.org/2000/svg"
   xmlns:svg="http://www.w3.org/2000/svg">
  <defs
     id="defs1" />
  <g
     id="layer1"
     transform="translate(-82.563755,-116.11162)">
    <g
       id="9_spade"
       transform="matrix(0.26448497,0,0,0.26448497,-271.67419,-14.250908)">
      <g
         id="use1179"
         transform="translate(1340.6,729.41199)">
        <path
           style="fill:#ffffff;stroke:#000000;stroke-width:2.5"
           d="m 0,0 c 0,3.78 3.09,6.87 6.87,6.87 h 152.845 c 3.77,0 6.86,-3.09 6.86,-6.87 v -228.4 c 0,-3.78 -3.09,-6.87 -6.86,-6.87 H 6.87 c -3.78,0 -6.87,3.09 -6.87,6.87 z"
           id="path28" />
      </g>
      <g
         id="use1180"
         transform="translate(1344.6,530.29498)">
        <path
           d="M 1.3227539,0.58789062 V 0 q 3.4853516,-0.79785156 5.8999023,-2.3515625 2.4355469,-1.5537109 3.8422848,-3.8422852 1.427735,-2.2885742 1.994629,-5.2700193 -1.301757,0.671875 -2.225586,0.944824 -0.9028317,0.251953 -1.9106442,0.251953 -3.2333984,0 -5.395996,-2.330566 -2.1416016,-2.330567 -2.1416016,-6.382813 0,-2.813476 1.1547851,-5.144043 1.1757813,-2.351562 3.3383789,-3.632324 2.1625977,-1.301758 4.4931638,-1.301758 2.498535,0 4.724121,1.427735 2.225586,1.427734 3.54834,4.13623 1.322754,2.708496 1.322754,6.172852 0,4.493164 -2.162598,8.6083981 -2.141601,4.1152344 -6.403808,6.6137695 Q 7.1386719,0.37792969 1.3227539,0.58789062 Z M 13.374512,-13.227539 q 0.209961,-2.351563 0.209961,-4.136231 0,-3.821289 -0.881836,-7.117675 -0.503907,-1.82666 -1.490723,-2.6875 -0.524902,-0.461914 -1.364746,-0.461914 -1.0498047,0 -1.6376953,0.902832 -0.8188477,1.238769 -0.8188477,4.724121 0,5.815918 1.3857422,8.020508 0.902832,1.427734 2.4355468,1.427734 0.818848,0 2.162598,-0.671875 z"
           id="text1"
           style="font-weight:bold;font-size:43px;font-family:'Bitstream Vera Serif'"
           transform="scale(0.56453,1.05741)"
           aria-label="9" />
      </g>
      <g
         id="use1181"
         transform="rotate(180,752.08498,349.56599)">
        <path
           d="M 1.3227539,0.58789062 V 0 q 3.4853516,-0.79785156 5.8999023,-2.3515625 2.4355469,-1.5537109 3.8422848,-3.8422852 1.427735,-2.2885742 1.994629,-5.2700193 -1.301757,0.671875 -2.225586,0.944824 -0.9028317,0.251953 -1.9106442,0.251953 -3.2333984,0 -5.395996,-2.330566 -2.1416016,-2.330567 -2.1416016,-6.382813 0,-2.813476 1.1547851,-5.144043 1.1757813,-2.351562 3.3383789,-3.632324 2.1625977,-1.301758 4.4931638,-1.301758 2.498535,0 4.724121,1.427735 2.225586,1.427734 3.54834,4.13623 1.322754,2.708496 1.322754,6.172852 0,4.493164 -2.162598,8.6083981 -2.141601,4.1152344 -6.403808,6.6137695 Q 7.1386719,0.37792969 1.3227539,0.58789062 Z M 13.374512,-13.227539 q 0.209961,-2.351563 0.209961,-4.136231 0,-3.821289 -0.881836,-7.117675 -0.503907,-1.82666 -1.490723,-2.6875 -0.524902,-0.461914 -1.364746,-0.461914 -1.0498047,0 -1.6376953,0.902832 -0.8188477,1.238769 -0.8188477,4.724121 0,5.815918 1.3857422,8.020508 0.902832,1.427734 2.4355468,1.427734 0.818848,0 2.162598,-0.671875 z"
           id="text3"
           style="font-weight:bold;font-size:43px;font-family:'Bitstream Vera Serif'"
           transform="scale(0.56453,1.05741)"
           aria-label="9" />
      </g>
      <g
         id="use1182"
         transform="rotate(180,677.125,272.14751)">
        <path
           d="m 3.92,-7.93 c -1.67,0 -2.55,1.78 -3.01,3.56 -0.46,1.78 -0.5,3.56 -0.5,3.56 l -0.85,0.01 c 0,0 -0.16,-7.13 -3.5,-7.13 z"
           id="path3" />
        <path
           d="M 6.75,-0.8 C 6.74,2.67 1.53,5.19 0,7.93 -1.53,5.18 -6.74,2.66 -6.75,-0.8 c 0,-1.64 1.51,-2.97 3.38,-2.97 1.86,0 3.37,1.33 3.37,2.97 0,-1.64 1.51,-2.97 3.38,-2.97 1.87,0 3.37,1.33 3.37,2.97 z"
           id="path4" />
      </g>
      <g
         id="use1183"
         transform="translate(1494.52,685.13202)">
        <path
           d="m 3.92,-7.93 c -1.67,0 -2.55,1.78 -3.01,3.56 -0.46,1.78 -0.5,3.56 -0.5,3.56 l -0.85,0.01 c 0,0 -0.16,-7.13 -3.5,-7.13 z"
           id="path5" />
        <path
           d="M 6.75,-0.8 C 6.74,2.67 1.53,5.19 0,7.93 -1.53,5.18 -6.74,2.66 -6.75,-0.8 c 0,-1.64 1.51,-2.97 3.38,-2.97 1.86,0 3.37,1.33 3.37,2.97 0,-1.64 1.51,-2.97 3.38,-2.97 1.87,0 3.37,1.33 3.37,2.97 z"
           id="path6" />
      </g>
      <g
         id="use1184"
         transform="matrix(-2.4,0,0,-2.4,1384.4593,530.9016)">
        <path
           d="m 3.92,-7.93 c -1.67,0 -2.55,1.78 -3.01,3.56 -0.46,1.78 -0.5,3.56 -0.5,3.56 l -0.85,0.01 c 0,0 -0.16,-7.13 -3.5,-7.13 z"
           id="path7" />
        <path
           d="M 6.75,-0.8 C 6.74,2.67 1.53,5.19 0,7.93 -1.53,5.18 -6.74,2.66 -6.75,-0.8 c 0,-1.64 1.51,-2.97 3.38,-2.97 1.86,0 3.37,1.33 3.37,2.97 0,-1.64 1.51,-2.97 3.38,-2.97 1.87,0 3.37,1.33 3.37,2.97 z"
           id="path8" />
      </g>
      <g
         id="use1185"
         transform="matrix(-2.4,0,0,-2.4,1384.4593,585.0576)">
        <path
           d="m 3.92,-7.93 c -1.67,0 -2.55,1.78 -3.01,3.56 -0.46,1.78 -0.5,3.56 -0.5,3.56 l -0.85,0.01 c 0,0 -0.16,-7.13 -3.5,-7.13 z"
           id="path9" />
        <path
           d="M 6.75,-0.8 C 6.74,2.67 1.53,5.19 0,7.93 -1.53,5.18 -6.74,2.66 -6.75,-0.8 c 0,-1.64 1.51,-2.97 3.38,-2.97 1.86,0 3.37,1.33 3.37,2.97 0,-1.64 1.51,-2.97 3.38,-2.97 1.87,0 3.37,1.33 3.37,2.97 z"
           id="path10" />
      </g>
      <g
         id="use1186"
         transform="matrix(2.4,0,0,2.4,1384.4591,640.21919)">
        <path
           d="m 3.92,-7.93 c -1.67,0 -2.55,1.78 -3.01,3.56 -0.46,1.78 -0.5,3.56 -0.5,3.56 l -0.85,0.01 c 0,0 -0.16,-7.13 -3.5,-7.13 z"
           id="path11" />
        <path
           d="M 6.75,-0.8 C 6.74,2.67 1.53,5.19 0,7.93 -1.53,5.18 -6.74,2.66 -6.75,-0.8 c 0,-1.64 1.51,-2.97 3.38,-2.97 1.86,0 3.37,1.33 3.37,2.97 0,-1.64 1.51,-2.97 3.38,-2.97 1.87,0 3.37,1.33 3.37,2.97 z"
           id="path12" />
      </g>
      <g
         id="use1187"
         transform="matrix(2.4,0,0,2.4,1384.4591,694.3752)">
        <path
           d="m 3.92,-7.93 c -1.67,0 -2.55,1.78 -3.01,3.56 -0.46,1.78 -0.5,3.56 -0.5,3.56 l -0.85,0.01 c 0,0 -0.16,-7.13 -3.5,-7.13 z"
           id="path13" />
        <path
           d="M 6.75,-0.8 C 6.74,2.67 1.53,5.19 0,7.93 -1.53,5.18 -6.74,2.66 -6.75,-0.8 c 0,-1.64 1.51,-2.97 3.38,-2.97 1.86,0 3.37,1.33 3.37,2.97 0,-1.64 1.51,-2.97 3.38,-2.97 1.87,0 3.37,1.33 3.37,2.97 z"
           id="path15" />
      </g>
      <g
         id="use1188"
         transform="matrix(-2.4,0,0,-2.4,1464.3168,530.9016)">
        <path
           d="m 3.92,-7.93 c -1.67,0 -2.55,1.78 -3.01,3.56 -0.46,1.78 -0.5,3.56 -0.5,3.56 l -0.85,0.01 c 0,0 -0.16,-7.13 -3.5,-7.13 z"
           id="path16" />
        <path
           d="M 6.75,-0.8 C 6.74,2.67 1.53,5.19 0,7.93 -1.53,5.18 -6.74,2.66 -6.75,-0.8 c 0,-1.64 1.51,-2.97 3.38,-2.97 1.86,0 3.37,1.33 3.37,2.97 0,-1.64 1.51,-2.97 3.38,-2.97 1.87,0 3.37,1.33 3.37,2.97 z"
           id="path17" />
      </g>
      <g
         id="use1189"
         transform="matrix(-2.4,0,0,-2.4,1464.3168,585.0576)">
        <path
           d="m 3.92,-7.93 c -1.67,0 -2.55,1.78 -3.01,3.56 -0.46,1.78 -0.5,3.56 -0.5,3.56 l -0.85,0.01 c 0,0 -0.16,-7.13 -3.5,-7.13 z"
           id="path18" />
        <path
           d="M 6.75,-0.8 C 6.74,2.67 1.53,5.19 0,7.93 -1.53,5.18 -6.74,2.66 -6.75,-0.8 c 0,-1.64 1.51,-2.97 3.38,-2.97 1.86,0 3.37,1.33 3.37,2.97 0,-1.64 1.51,-2.97 3.38,-2.97 1.87,0 3.37,1.33 3.37,2.97 z"
           id="path19" />
      </g>
      <g
         id="use1190"
         transform="matrix(2.4,0,0,2.4,1464.3168,640.21919)">
        <path
           d="m 3.92,-7.93 c -1.67,0 -2.55,1.78 -3.01,3.56 -0.46,1.78 -0.5,3.56 -0.5,3.56 l -0.85,0.01 c 0,0 -0.16,-7.13 -3.5,-7.13 z"
           id="path20" />
        <path
           d="M 6.75,-0.8 C 6.74,2.67 1.53,5.19 0,7.93 -1.53,5.18 -6.74,2.66 -6.75,-0.8 c 0,-1.64 1.51,-2.97 3.38,-2.97 1.86,0 3.37,1.33 3.37,2.97 0,-1.64 1.51,-2.97 3.38,-2.97 1.87,0 3.37,1.33 3.37,2.97 z"
           id="path21" />
      </g>
      <g
         id="use1191"
         transform="matrix(2.4,0,0,2.4,1464.3168,694.3752)">
        <path
           d="m 3.92,-7.93 c -1.67,0 -2.55,1.78 -3.01,3.56 -0.46,1.78 -0.5,3.56 -0.5,3.56 l -0.85,0.01 c 0,0 -0.16,-7.13 -3.5,-7.13 z"
           id="path22" />
        <path
           d="M 6.75,-0.8 C 6.74,2.67 1.53,5.19 0,7.93 -1.53,5.18 -6.74,2.66 -6.75,-0.8 c 0,-1.64 1.51,-2.97 3.38,-2.97 1.86,0 3.37,1.33 3.37,2.97 0,-1.64 1.51,-2.97 3.38,-2.97 1.87,0 3.37,1.33 3.37,2.97 z"
           id="path23" />
      </g>
      <g
         id="use1192"
         transform="matrix(-2.4,0,0,-2.4,1424.388,557.98079)">
        <path
           d="m 3.92,-7.93 c -1.67,0 -2.55,1.78 -3.01,3.56 -0.46,1.78 -0.5,3.56 -0.5,3.56 l -0.85,0.01 c 0,0 -0.16,-7.13 -3.5,-7.13 z"
           id="path26" />
        <path
           d="M 6.75,-0.8 C 6.74,2.67 1.53,5.19 0,7.93 -1.53,5.18 -6.74,2.66 -6.75,-0.8 c 0,-1.64 1.51,-2.97 3.38,-2.97 1.86,0 3.37,1.33 3.37,2.97 0,-1.64 1.51,-2.97 3.38,-2.97 1.87,0 3.37,1.33 3.37,2.97 z"
           id="path27" />
      </g>
    </g>
  </g>
</svg>
