<?xml version="1.0" encoding="UTF-8" standalone="no"?>
<!-- Created with Inkscape (http://www.inkscape.org/) -->

<svg
   width="44.717796mm"
   height="64.703606mm"
   viewBox="0 0 44.717796 64.703606"
   version="1.1"
   id="svg1"
   xmlns="http://www.w3.org/2000/svg"
   xmlns:svg="http://www.w3.org/2000/svg">
  <defs
     id="defs1" />
  <g
     id="layer1"
     transform="translate(-136.1372,-87.272032)">
    <g
       id="8_spade"
       transform="matrix(0.26448497,0,0,0.26448497,-173.77835,-43.090491)">
      <g
         id="use1166"
         transform="translate(1173.02,729.41199)">
        <path
           style="fill:#ffffff;stroke:#000000;stroke-width:2.5"
           d="m 0,0 c 0,3.78 3.09,6.87 6.87,6.87 h 152.845 c 3.77,0 6.86,-3.09 6.86,-6.87 v -228.4 c 0,-3.78 -3.09,-6.87 -6.86,-6.87 H 6.87 c -3.78,0 -6.87,3.09 -6.87,6.87 z"
           id="path22" />
      </g>
      <g
         id="use1167"
         transform="translate(1177.02,530.29498)">
        <path
           d="m 14.655273,-16.083008 q 3.002442,2.20459 4.157227,4.115235 1.175781,1.889648 1.175781,4.346191 0,3.4433593 -2.603515,5.836914 -2.58252,2.37255862 -7.033692,2.37255862 -4.2202146,0 -6.5297849,-2.07861332 -2.3095704,-2.0786132 -2.3095704,-5.0810546 0,-2.2885743 1.322754,-4.0102537 1.34375,-1.72168 4.4511718,-3.149414 -3.3803711,-2.58252 -4.3461914,-4.220215 -0.9448242,-1.637695 -0.9448242,-3.800293 0,-2.855469 2.4145508,-5.018067 2.4355469,-2.183593 6.6557613,-2.183593 4.073243,0 6.256836,1.93164 2.20459,1.910645 2.20459,4.598145 0,2.015625 -1.196777,3.569336 -1.175781,1.532715 -3.674317,2.771484 z m -1.595703,-1.070801 q 0.776856,-1.049804 1.154785,-2.351562 0.37793,-1.301758 0.37793,-2.855469 0,-2.729492 -1.175781,-4.178222 -0.881836,-1.112793 -2.435547,-1.112793 -1.4067382,0 -2.3935547,1.028808 -0.9868164,1.007813 -0.9868164,2.519531 0,1.532715 1.0917969,3.191407 1.112793,1.637695 4.3671872,3.7583 z m -4.1992184,4.430176 q -0.6508789,0.587891 -0.9238282,1.070801 -0.4199218,0.734863 -0.7558593,2.1416015 -0.3359375,1.4067383 -0.3359375,2.9394532 0,1.9736328 0.5039062,3.3173828 0.5039063,1.3227539 1.4277344,1.9106445 0.9448242,0.58789063 1.9316408,0.58789063 1.532715,0 2.582519,-1.11279293 1.049805,-1.1337891 1.049805,-3.0864258 0,-4.0732422 -5.4799804,-7.7685549 z"
           id="text22"
           style="font-weight:bold;font-size:43px;font-family:'Bitstream Vera Serif'"
           transform="scale(0.56453,1.05741)"
           aria-label="8" />
      </g>
      <g
         id="use1168"
         transform="rotate(180,668.30001,349.56599)">
        <path
           d="m 14.655273,-16.083008 q 3.002442,2.20459 4.157227,4.115235 1.175781,1.889648 1.175781,4.346191 0,3.4433593 -2.603515,5.836914 -2.58252,2.37255862 -7.033692,2.37255862 -4.2202146,0 -6.5297849,-2.07861332 -2.3095704,-2.0786132 -2.3095704,-5.0810546 0,-2.2885743 1.322754,-4.0102537 1.34375,-1.72168 4.4511718,-3.149414 -3.3803711,-2.58252 -4.3461914,-4.220215 -0.9448242,-1.637695 -0.9448242,-3.800293 0,-2.855469 2.4145508,-5.018067 2.4355469,-2.183593 6.6557613,-2.183593 4.073243,0 6.256836,1.93164 2.20459,1.910645 2.20459,4.598145 0,2.015625 -1.196777,3.569336 -1.175781,1.532715 -3.674317,2.771484 z m -1.595703,-1.070801 q 0.776856,-1.049804 1.154785,-2.351562 0.37793,-1.301758 0.37793,-2.855469 0,-2.729492 -1.175781,-4.178222 -0.881836,-1.112793 -2.435547,-1.112793 -1.4067382,0 -2.3935547,1.028808 -0.9868164,1.007813 -0.9868164,2.519531 0,1.532715 1.0917969,3.191407 1.112793,1.637695 4.3671872,3.7583 z m -4.1992184,4.430176 q -0.6508789,0.587891 -0.9238282,1.070801 -0.4199218,0.734863 -0.7558593,2.1416015 -0.3359375,1.4067383 -0.3359375,2.9394532 0,1.9736328 0.5039062,3.3173828 0.5039063,1.3227539 1.4277344,1.9106445 0.9448242,0.58789063 1.9316408,0.58789063 1.532715,0 2.582519,-1.11279293 1.049805,-1.1337891 1.049805,-3.0864258 0,-4.0732422 -5.4799804,-7.7685549 z"
           id="text23"
           style="font-weight:bold;font-size:43px;font-family:'Bitstream Vera Serif'"
           transform="scale(0.56453,1.05741)"
           aria-label="8" />
      </g>
      <g
         id="use1169"
         transform="rotate(180,593.33498,272.14751)">
        <path
           d="m 3.92,-7.93 c -1.67,0 -2.55,1.78 -3.01,3.56 -0.46,1.78 -0.5,3.56 -0.5,3.56 l -0.85,0.01 c 0,0 -0.16,-7.13 -3.5,-7.13 z"
           id="path1" />
        <path
           d="M 6.75,-0.8 C 6.74,2.67 1.53,5.19 0,7.93 -1.53,5.18 -6.74,2.66 -6.75,-0.8 c 0,-1.64 1.51,-2.97 3.38,-2.97 1.86,0 3.37,1.33 3.37,2.97 0,-1.64 1.51,-2.97 3.38,-2.97 1.87,0 3.37,1.33 3.37,2.97 z"
           id="path2" />
      </g>
      <g
         id="use1170"
         transform="translate(1326.95,685.13202)">
        <path
           d="m 3.92,-7.93 c -1.67,0 -2.55,1.78 -3.01,3.56 -0.46,1.78 -0.5,3.56 -0.5,3.56 l -0.85,0.01 c 0,0 -0.16,-7.13 -3.5,-7.13 z"
           id="path3" />
        <path
           d="M 6.75,-0.8 C 6.74,2.67 1.53,5.19 0,7.93 -1.53,5.18 -6.74,2.66 -6.75,-0.8 c 0,-1.64 1.51,-2.97 3.38,-2.97 1.86,0 3.37,1.33 3.37,2.97 0,-1.64 1.51,-2.97 3.38,-2.97 1.87,0 3.37,1.33 3.37,2.97 z"
           id="path4" />
      </g>
      <g
         id="use1171"
         transform="matrix(-2.4,0,0,-2.4,1216.884,530.9016)">
        <path
           d="m 3.92,-7.93 c -1.67,0 -2.55,1.78 -3.01,3.56 -0.46,1.78 -0.5,3.56 -0.5,3.56 l -0.85,0.01 c 0,0 -0.16,-7.13 -3.5,-7.13 z"
           id="path5" />
        <path
           d="M 6.75,-0.8 C 6.74,2.67 1.53,5.19 0,7.93 -1.53,5.18 -6.74,2.66 -6.75,-0.8 c 0,-1.64 1.51,-2.97 3.38,-2.97 1.86,0 3.37,1.33 3.37,2.97 0,-1.64 1.51,-2.97 3.38,-2.97 1.87,0 3.37,1.33 3.37,2.97 z"
           id="path6" />
      </g>
      <g
         id="use1172"
         transform="matrix(-2.4,0,0,-2.4,1216.884,585.0576)">
        <path
           d="m 3.92,-7.93 c -1.67,0 -2.55,1.78 -3.01,3.56 -0.46,1.78 -0.5,3.56 -0.5,3.56 l -0.85,0.01 c 0,0 -0.16,-7.13 -3.5,-7.13 z"
           id="path7" />
        <path
           d="M 6.75,-0.8 C 6.74,2.67 1.53,5.19 0,7.93 -1.53,5.18 -6.74,2.66 -6.75,-0.8 c 0,-1.64 1.51,-2.97 3.38,-2.97 1.86,0 3.37,1.33 3.37,2.97 0,-1.64 1.51,-2.97 3.38,-2.97 1.87,0 3.37,1.33 3.37,2.97 z"
           id="path8" />
      </g>
      <g
         id="use1173"
         transform="matrix(2.4,0,0,2.4,1216.884,640.21919)">
        <path
           d="m 3.92,-7.93 c -1.67,0 -2.55,1.78 -3.01,3.56 -0.46,1.78 -0.5,3.56 -0.5,3.56 l -0.85,0.01 c 0,0 -0.16,-7.13 -3.5,-7.13 z"
           id="path9" />
        <path
           d="M 6.75,-0.8 C 6.74,2.67 1.53,5.19 0,7.93 -1.53,5.18 -6.74,2.66 -6.75,-0.8 c 0,-1.64 1.51,-2.97 3.38,-2.97 1.86,0 3.37,1.33 3.37,2.97 0,-1.64 1.51,-2.97 3.38,-2.97 1.87,0 3.37,1.33 3.37,2.97 z"
           id="path10" />
      </g>
      <g
         id="use1174"
         transform="matrix(2.4,0,0,2.4,1216.884,694.3752)">
        <path
           d="m 3.92,-7.93 c -1.67,0 -2.55,1.78 -3.01,3.56 -0.46,1.78 -0.5,3.56 -0.5,3.56 l -0.85,0.01 c 0,0 -0.16,-7.13 -3.5,-7.13 z"
           id="path11" />
        <path
           d="M 6.75,-0.8 C 6.74,2.67 1.53,5.19 0,7.93 -1.53,5.18 -6.74,2.66 -6.75,-0.8 c 0,-1.64 1.51,-2.97 3.38,-2.97 1.86,0 3.37,1.33 3.37,2.97 0,-1.64 1.51,-2.97 3.38,-2.97 1.87,0 3.37,1.33 3.37,2.97 z"
           id="path12" />
      </g>
      <g
         id="use1175"
         transform="matrix(-2.4,0,0,-2.4,1296.7415,530.9016)">
        <path
           d="m 3.92,-7.93 c -1.67,0 -2.55,1.78 -3.01,3.56 -0.46,1.78 -0.5,3.56 -0.5,3.56 l -0.85,0.01 c 0,0 -0.16,-7.13 -3.5,-7.13 z"
           id="path13" />
        <path
           d="M 6.75,-0.8 C 6.74,2.67 1.53,5.19 0,7.93 -1.53,5.18 -6.74,2.66 -6.75,-0.8 c 0,-1.64 1.51,-2.97 3.38,-2.97 1.86,0 3.37,1.33 3.37,2.97 0,-1.64 1.51,-2.97 3.38,-2.97 1.87,0 3.37,1.33 3.37,2.97 z"
           id="path15" />
      </g>
      <g
         id="use1176"
         transform="matrix(-2.4,0,0,-2.4,1296.7415,585.0576)">
        <path
           d="m 3.92,-7.93 c -1.67,0 -2.55,1.78 -3.01,3.56 -0.46,1.78 -0.5,3.56 -0.5,3.56 l -0.85,0.01 c 0,0 -0.16,-7.13 -3.5,-7.13 z"
           id="path16" />
        <path
           d="M 6.75,-0.8 C 6.74,2.67 1.53,5.19 0,7.93 -1.53,5.18 -6.74,2.66 -6.75,-0.8 c 0,-1.64 1.51,-2.97 3.38,-2.97 1.86,0 3.37,1.33 3.37,2.97 0,-1.64 1.51,-2.97 3.38,-2.97 1.87,0 3.37,1.33 3.37,2.97 z"
           id="path17" />
      </g>
      <g
         id="use1177"
         transform="matrix(2.4,0,0,2.4,1296.7417,640.21919)">
        <path
           d="m 3.92,-7.93 c -1.67,0 -2.55,1.78 -3.01,3.56 -0.46,1.78 -0.5,3.56 -0.5,3.56 l -0.85,0.01 c 0,0 -0.16,-7.13 -3.5,-7.13 z"
           id="path18" />
        <path
           d="M 6.75,-0.8 C 6.74,2.67 1.53,5.19 0,7.93 -1.53,5.18 -6.74,2.66 -6.75,-0.8 c 0,-1.64 1.51,-2.97 3.38,-2.97 1.86,0 3.37,1.33 3.37,2.97 0,-1.64 1.51,-2.97 3.38,-2.97 1.87,0 3.37,1.33 3.37,2.97 z"
           id="path19" />
      </g>
      <g
         id="use1178"
         transform="matrix(2.4,0,0,2.4,1296.7417,694.3752)">
        <path
           d="m 3.92,-7.93 c -1.67,0 -2.55,1.78 -3.01,3.56 -0.46,1.78 -0.5,3.56 -0.5,3.56 l -0.85,0.01 c 0,0 -0.16,-7.13 -3.5,-7.13 z"
           id="path20" />
        <path
           d="M 6.75,-0.8 C 6.74,2.67 1.53,5.19 0,7.93 -1.53,5.18 -6.74,2.66 -6.75,-0.8 c 0,-1.64 1.51,-2.97 3.38,-2.97 1.86,0 3.37,1.33 3.37,2.97 0,-1.64 1.51,-2.97 3.38,-2.97 1.87,0 3.37,1.33 3.37,2.97 z"
           id="path21" />
      </g>
    </g>
  </g>
</svg>
